<?xml version="1.0" encoding="UTF-8" standalone="no"?>
<!-- Created with Inkscape (http://www.inkscape.org/) -->

<svg
   xmlns:dc="http://purl.org/dc/elements/1.1/"
   xmlns:cc="http://creativecommons.org/ns#"
   xmlns:rdf="http://www.w3.org/1999/02/22-rdf-syntax-ns#"
   xmlns:svg="http://www.w3.org/2000/svg"
   xmlns="http://www.w3.org/2000/svg"
   xmlns:xlink="http://www.w3.org/1999/xlink"
   xmlns:sodipodi="http://sodipodi.sourceforge.net/DTD/sodipodi-0.dtd"
   xmlns:inkscape="http://www.inkscape.org/namespaces/inkscape"
   width="80"
   height="92"
   version="1.1"
   id="svg1859"
   inkscape:version="0.92.3 (2405546, 2018-03-11)"
   sodipodi:docname="age_radio_alt_bg.svg">
  <defs
     id="defs1853" />
  <sodipodi:namedview
     id="base"
     pagecolor="#ffffff"
     bordercolor="#666666"
     borderopacity="1.0"
     inkscape:pageopacity="0.0"
     inkscape:pageshadow="2"
     inkscape:zoom="1.4"
     inkscape:cx="49.870773"
     inkscape:cy="54.545549"
     inkscape:document-units="mm"
     inkscape:current-layer="g1335"
     showgrid="false"
     fit-margin-top="0"
     fit-margin-left="0"
     fit-margin-right="0"
     fit-margin-bottom="0"
     units="px"
     inkscape:window-width="2560"
     inkscape:window-height="1031"
     inkscape:window-x="0"
     inkscape:window-y="0"
     inkscape:window-maximized="1" />
  <metadata
     id="metadata1856">
    <rdf:RDF>
      <cc:Work
         rdf:about="">
        <dc:format>image/svg+xml</dc:format>
        <dc:type
           rdf:resource="http://purl.org/dc/dcmitype/StillImage" />
        <dc:title />
      </cc:Work>
    </rdf:RDF>
  </metadata>
  <g
     inkscape:label="Layer 1"
     inkscape:groupmode="layer"
     id="layer1"
     transform="translate(280.26952,-275.67381)">
    <g
       transform="matrix(3.7795753,0,0,3.7795753,-198.30488,-125.82149)"
       id="g1335"
       style="stroke-width:0.07000346">
      <path
         sodipodi:nodetypes="ccccc"
         inkscape:connector-curvature="0"
         id="path1837"
         d="m -16.394865,108.53188 c -2.818043,7e-5 -5.102488,2.17879 -5.102531,4.86637 4.3e-5,2.68758 2.284488,4.86629 5.102531,4.86637 2.818246,1.9e-4 5.103005,-2.1786 5.103048,-4.86637 -4.3e-5,-2.68778 -2.284802,-4.86657 -5.103048,-4.86637 z"
         style="color:#000000;clip-rule:nonzero;display:inline;overflow:visible;visibility:visible;opacity:1;isolation:auto;mix-blend-mode:normal;color-interpolation:sRGB;color-interpolation-filters:linearRGB;solid-color:#000000;solid-opacity:1;fill:#edf9ff;fill-opacity:1;fill-rule:evenodd;stroke:none;stroke-width:0.01852175;stroke-linecap:round;stroke-linejoin:round;stroke-miterlimit:4;stroke-dasharray:none;stroke-dashoffset:0;stroke-opacity:1;paint-order:normal;color-rendering:auto;image-rendering:auto;shape-rendering:auto;text-rendering:auto;enable-background:accumulate" />
      <path
         style="fill:#30643b;fill-opacity:1;fill-rule:evenodd;stroke:none;stroke-width:0.01852175px;stroke-linecap:butt;stroke-linejoin:miter;stroke-opacity:1"
         d="m -16.180651,106.18628 0.359151,0.0165 c -0.0479,0.2309 -0.09484,0.46256 -0.139526,0.69453 0.610705,0.64157 1.884605,0.44966 2.434477,0.0594 0.228125,1.08572 -1.565186,1.90874 -2.51871,0.40462 -0.07395,0.43858 -0.131278,0.8826 -0.151928,1.33894 h -0.359152 c 0.02932,-0.43089 0.07789,-0.86205 0.143661,-1.29294 -0.884451,1.19766 -2.408118,0.46681 -2.2071,-0.4899 0.537224,0.38126 1.834211,0.55494 2.327506,-0.19585 0.03485,-0.17848 0.07102,-0.35689 0.111621,-0.53537 z"
         id="path1297"
         inkscape:connector-curvature="0" />
      <path
         style="color:#000000;clip-rule:nonzero;display:inline;overflow:visible;visibility:visible;opacity:1;isolation:auto;mix-blend-mode:normal;color-interpolation:sRGB;color-interpolation-filters:linearRGB;solid-color:#000000;solid-opacity:1;fill:#a12c2c;fill-opacity:1;fill-rule:evenodd;stroke:none;stroke-width:0.01852175;stroke-linecap:round;stroke-linejoin:round;stroke-miterlimit:4;stroke-dasharray:none;stroke-dashoffset:0;stroke-opacity:1;paint-order:normal;color-rendering:auto;image-rendering:auto;shape-rendering:auto;text-rendering:auto;enable-background:accumulate"
         d="m -16.394865,108.53188 c -2.818043,7e-5 -5.102488,2.17879 -5.102531,4.86637 4.3e-5,2.68758 2.284488,4.86629 5.102531,4.86637 2.818246,1.9e-4 5.103005,-2.1786 5.103048,-4.86637 -4.3e-5,-2.68778 -2.284802,-4.86657 -5.103048,-4.86637 z m 0.04754,0.61399 c 2.380219,1.1e-4 4.309729,1.84032 4.309814,4.11034 -8.5e-5,2.27002 -1.929595,4.11023 -4.309814,4.11034 -2.380422,1.6e-4 -4.310247,-1.84013 -4.310332,-4.11034 8.5e-5,-2.27022 1.92991,-4.1105 4.310332,-4.11034 z"
         id="path1292"
         inkscape:connector-curvature="0"
         sodipodi:nodetypes="cccccccccc" />
    </g>
    <use
       x="0"
       y="0"
       xlink:href="#g1335"
       id="use1378"
       transform="translate(40.000387,2.6333715e-4)"
       width="100%"
       height="100%"
       style="stroke-width:0.26458332" />
    <g
       id="g2452"
       transform="matrix(3.7795277,0,0,3.7795277,705.5287,-766.24291)"
       style="stroke-width:0.26458332">
      <g
         transform="matrix(1.0000126,0,0,1.0000126,-239.13919,181.61573)"
         id="g2445"
         style="stroke-width:0.07000346">
        <path
           sodipodi:nodetypes="ccccc"
           inkscape:connector-curvature="0"
           id="path2439"
           d="m -16.394865,108.53188 c -2.818043,7e-5 -5.102488,2.17879 -5.102531,4.86637 4.3e-5,2.68758 2.284488,4.86629 5.102531,4.86637 2.818246,1.9e-4 5.103005,-2.1786 5.103048,-4.86637 -4.3e-5,-2.68778 -2.284802,-4.86657 -5.103048,-4.86637 z"
           style="color:#000000;clip-rule:nonzero;display:inline;overflow:visible;visibility:visible;opacity:1;isolation:auto;mix-blend-mode:normal;color-interpolation:sRGB;color-interpolation-filters:linearRGB;solid-color:#000000;solid-opacity:1;fill:#a12c2c;fill-opacity:1;fill-rule:evenodd;stroke:none;stroke-width:0.01852175;stroke-linecap:round;stroke-linejoin:round;stroke-miterlimit:4;stroke-dasharray:none;stroke-dashoffset:0;stroke-opacity:1;paint-order:normal;color-rendering:auto;image-rendering:auto;shape-rendering:auto;text-rendering:auto;enable-background:accumulate" />
        <path
           style="fill:#30643b;fill-opacity:1;fill-rule:evenodd;stroke:none;stroke-width:0.01852175px;stroke-linecap:butt;stroke-linejoin:miter;stroke-opacity:1"
           d="m -16.180651,106.18628 0.359151,0.0165 c -0.0479,0.2309 -0.09484,0.46256 -0.139526,0.69453 0.610705,0.64157 1.884605,0.44966 2.434477,0.0594 0.228125,1.08572 -1.565186,1.90874 -2.51871,0.40462 -0.07395,0.43858 -0.131278,0.8826 -0.151928,1.33894 h -0.359152 c 0.02932,-0.43089 0.07789,-0.86205 0.143661,-1.29294 -0.884451,1.19766 -2.408118,0.46681 -2.2071,-0.4899 0.537224,0.38126 1.834211,0.55494 2.327506,-0.19585 0.03485,-0.17848 0.07102,-0.35689 0.111621,-0.53537 z"
           id="path2441"
           inkscape:connector-curvature="0" />
        <path
           style="color:#000000;clip-rule:nonzero;display:inline;overflow:visible;visibility:visible;opacity:1;isolation:auto;mix-blend-mode:normal;color-interpolation:sRGB;color-interpolation-filters:linearRGB;solid-color:#000000;solid-opacity:1;fill:#a12c2c;fill-opacity:1;fill-rule:evenodd;stroke:none;stroke-width:0.01852175;stroke-linecap:round;stroke-linejoin:round;stroke-miterlimit:4;stroke-dasharray:none;stroke-dashoffset:0;stroke-opacity:1;paint-order:normal;color-rendering:auto;image-rendering:auto;shape-rendering:auto;text-rendering:auto;enable-background:accumulate"
           d="m -16.394865,108.53188 c -2.818043,7e-5 -5.102488,2.17879 -5.102531,4.86637 4.3e-5,2.68758 2.284488,4.86629 5.102531,4.86637 2.818246,1.9e-4 5.103005,-2.1786 5.103048,-4.86637 -4.3e-5,-2.68778 -2.284802,-4.86657 -5.103048,-4.86637 z m 0.04754,0.61399 c 2.380219,1.1e-4 4.309729,1.84032 4.309814,4.11034 -8.5e-5,2.27002 -1.929595,4.11023 -4.309814,4.11034 -2.380422,1.6e-4 -4.310247,-1.84013 -4.310332,-4.11034 8.5e-5,-2.27022 1.92991,-4.1105 4.310332,-4.11034 z"
           id="path2443"
           inkscape:connector-curvature="0"
           sodipodi:nodetypes="cccccccccc" />
      </g>
    </g>
    <use
       x="0"
       y="0"
       xlink:href="#g2452"
       id="use1380"
       transform="translate(39.99966,-1.8543881e-4)"
       width="100%"
       height="100%"
       style="stroke-width:0.26458332" />
    <ellipse
       style="color:#000000;clip-rule:nonzero;display:inline;overflow:visible;visibility:visible;opacity:1;isolation:auto;mix-blend-mode:normal;color-interpolation:sRGB;color-interpolation-filters:linearRGB;solid-color:#000000;solid-opacity:1;fill:none;fill-opacity:1;fill-rule:evenodd;stroke:#ffffff;stroke-width:1;stroke-linecap:round;stroke-linejoin:round;stroke-miterlimit:4;stroke-dasharray:3,3;stroke-dashoffset:0;stroke-opacity:1;paint-order:normal;color-rendering:auto;image-rendering:auto;shape-rendering:auto;text-rendering:auto;enable-background:accumulate"
       id="path1382"
       cx="-220.38235"
       cy="302.60699"
       rx="17.67767"
       ry="17.046326" />
    <use
       x="0"
       y="0"
       xlink:href="#path1382"
       id="use1384"
       transform="translate(3.2742414e-4,45.999529)"
       width="100%"
       height="100%"
       style="stroke-width:0.26458332" />
  </g>
</svg>
