<?xml version="1.0" encoding="UTF-8" standalone="no"?>
<!-- Created with Inkscape (http://www.inkscape.org/) -->

<svg
   xmlns:dc="http://purl.org/dc/elements/1.1/"
   xmlns:cc="http://creativecommons.org/ns#"
   xmlns:rdf="http://www.w3.org/1999/02/22-rdf-syntax-ns#"
   xmlns:svg="http://www.w3.org/2000/svg"
   xmlns="http://www.w3.org/2000/svg"
   xmlns:sodipodi="http://sodipodi.sourceforge.net/DTD/sodipodi-0.dtd"
   xmlns:inkscape="http://www.inkscape.org/namespaces/inkscape"
   width="32"
   height="30.000002"
   version="1.1"
   id="svg2509"
   sodipodi:docname="price_fruit_bg.svg"
   inkscape:version="0.92.3 (2405546, 2018-03-11)">
  <defs
     id="defs2503" />
  <sodipodi:namedview
     id="base"
     pagecolor="#ffffff"
     bordercolor="#666666"
     borderopacity="1.0"
     inkscape:pageopacity="0.0"
     inkscape:pageshadow="2"
     inkscape:zoom="8"
     inkscape:cx="4.2055113"
     inkscape:cy="21.626873"
     inkscape:document-units="px"
     inkscape:current-layer="g1417"
     showgrid="false"
     units="px"
     inkscape:window-width="2560"
     inkscape:window-height="1031"
     inkscape:window-x="0"
     inkscape:window-y="0"
     inkscape:window-maximized="1"
     fit-margin-top="0"
     fit-margin-left="0"
     fit-margin-right="0"
     fit-margin-bottom="0"
     inkscape:measure-start="0,0"
     inkscape:measure-end="0,0" />
  <metadata
     id="metadata2506">
    <rdf:RDF>
      <cc:Work
         rdf:about="">
        <dc:format>image/svg+xml</dc:format>
        <dc:type
           rdf:resource="http://purl.org/dc/dcmitype/StillImage" />
        <dc:title />
      </cc:Work>
    </rdf:RDF>
  </metadata>
  <g
     inkscape:label="Layer 1"
     inkscape:groupmode="layer"
     id="layer1"
     transform="translate(-33.048676,-116.4642)">
    <g
       id="g1417"
       transform="matrix(3.7102586,0,0,3.7102586,-3.6166364,-336.34209)"
       style="stroke-width:0.0713113">
      <path
         style="fill:#30643b;fill-opacity:1;fill-rule:evenodd;stroke:none;stroke-width:0.01886778px;stroke-linecap:butt;stroke-linejoin:miter;stroke-opacity:1"
         d="m 14.344518,121.59639 0.36586,0.0168 c -0.149168,0.63266 -0.365597,1.58729 -0.411119,1.82359 0.622114,0.65356 1.919814,0.45806 2.479959,0.0605 0.232386,1.106 -1.594428,1.9444 -2.565766,0.41218 -0.07533,0.44677 -0.133731,0.89909 -0.154766,1.36395 h -0.365862 c 0.02987,-0.43894 0.07935,-0.87815 0.146345,-1.31709 -0.900975,1.22003 -2.453108,0.47553 -2.248335,-0.49905 0.547261,0.38838 1.868479,0.5653 2.37099,-0.19951 0.0355,-0.18182 0.228924,-1.21468 0.382694,-1.66146 z"
         id="path1297"
         inkscape:connector-curvature="0"
         sodipodi:nodetypes="cccccccccccc" />
      <path
         sodipodi:nodetypes="cccccccccc"
         inkscape:connector-curvature="0"
         id="path1393"
         transform="scale(0.26458333)"
         d="m 52.628906,459.22266 c -9.563394,4.6e-4 -17.315943,7.75301 -17.316406,17.3164 -6.2e-4,9.56416 7.752246,17.3179 17.316406,17.31836 9.564923,6.2e-4 17.31898,-7.75344 17.31836,-17.31836 -4.63e-4,-9.56416 -7.754203,-17.31702 -17.31836,-17.3164 z m 0,2.07477 c 8.41779,-1.7e-4 15.241801,6.82384 15.241629,15.24163 1.78e-4,8.41779 -6.823835,15.24181 -15.241629,15.24164 -8.417794,1.7e-4 -15.241807,-6.82385 -15.241629,-15.24164 -1.72e-4,-8.41779 6.823839,-15.2418 15.241629,-15.24163 z"
         style="color:#000000;clip-rule:nonzero;display:inline;overflow:visible;visibility:visible;opacity:1;isolation:auto;mix-blend-mode:normal;color-interpolation:sRGB;color-interpolation-filters:linearRGB;solid-color:#000000;solid-opacity:1;fill:#a12c2c;fill-opacity:1;fill-rule:evenodd;stroke:none;stroke-width:0.07131129;stroke-linecap:round;stroke-linejoin:round;stroke-miterlimit:4;stroke-dasharray:none;stroke-dashoffset:0;stroke-opacity:1;paint-order:normal;color-rendering:auto;image-rendering:auto;shape-rendering:auto;text-rendering:auto;enable-background:accumulate" />
      <path
         style="color:#000000;clip-rule:nonzero;display:inline;overflow:visible;visibility:visible;opacity:1;isolation:auto;mix-blend-mode:normal;color-interpolation:sRGB;color-interpolation-filters:linearRGB;solid-color:#000000;solid-opacity:1;fill:#a12c2c;fill-opacity:1;fill-rule:evenodd;stroke:none;stroke-width:1.00157464;stroke-linecap:round;stroke-linejoin:round;stroke-miterlimit:4;stroke-dasharray:3.00472414, 3.00472414;stroke-dashoffset:0;stroke-opacity:1;paint-order:normal;color-rendering:auto;image-rendering:auto;shape-rendering:auto;text-rendering:auto;enable-background:accumulate"
         d="M 14.300781 10.753906 A 8.0595413 6.8665168 0 0 0 6.2402344 17.621094 A 8.0595413 6.8665168 0 0 0 14.300781 24.488281 A 8.0595413 6.8665168 0 0 0 22.359375 17.621094 A 8.0595413 6.8665168 0 0 0 14.300781 10.753906 z M 13.941406 22.433594 A 1.96623 0.7149927 0 0 1 15.908203 23.148438 A 1.96623 0.7149927 0 0 1 13.941406 23.863281 A 1.96623 0.7149927 0 0 1 11.976562 23.148438 A 1.96623 0.7149927 0 0 1 13.941406 22.433594 z "
         id="path821"
         transform="matrix(0.26952299,0,0,0.26952299,9.8821447,122.04171)" />
    </g>
  </g>
</svg>
