<?xml version="1.0" encoding="UTF-8" standalone="no"?>
<!-- Created with Inkscape (http://www.inkscape.org/) -->

<svg
   xmlns:dc="http://purl.org/dc/elements/1.1/"
   xmlns:cc="http://creativecommons.org/ns#"
   xmlns:rdf="http://www.w3.org/1999/02/22-rdf-syntax-ns#"
   xmlns:svg="http://www.w3.org/2000/svg"
   xmlns="http://www.w3.org/2000/svg"
   xmlns:sodipodi="http://sodipodi.sourceforge.net/DTD/sodipodi-0.dtd"
   xmlns:inkscape="http://www.inkscape.org/namespaces/inkscape"
   width="32"
   height="30.000002"
   version="1.1"
   id="svg2509"
   sodipodi:docname="price_single_bg.svg"
   inkscape:version="0.92.3 (2405546, 2018-03-11)">
  <defs
     id="defs2503" />
  <sodipodi:namedview
     id="base"
     pagecolor="#ffffff"
     bordercolor="#666666"
     borderopacity="1.0"
     inkscape:pageopacity="0.0"
     inkscape:pageshadow="2"
     inkscape:zoom="16.783387"
     inkscape:cx="9.5804849"
     inkscape:cy="12.62195"
     inkscape:document-units="px"
     inkscape:current-layer="layer1"
     showgrid="false"
     units="px"
     inkscape:window-width="2560"
     inkscape:window-height="1031"
     inkscape:window-x="0"
     inkscape:window-y="0"
     inkscape:window-maximized="1"
     fit-margin-top="0"
     fit-margin-left="0"
     fit-margin-right="0"
     fit-margin-bottom="0" />
  <metadata
     id="metadata2506">
    <rdf:RDF>
      <cc:Work
         rdf:about="">
        <dc:format>image/svg+xml</dc:format>
        <dc:type
           rdf:resource="http://purl.org/dc/dcmitype/StillImage" />
        <dc:title></dc:title>
      </cc:Work>
    </rdf:RDF>
  </metadata>
  <g
     inkscape:label="Layer 1"
     inkscape:groupmode="layer"
     id="layer1"
     transform="translate(-33.048676,-116.4642)">
    <g
       id="g1417"
       transform="matrix(3.7102586,0,0,3.7102586,-3.6166364,-336.34209)"
       style="stroke-width:0.0713113">
      <path
         sodipodi:nodetypes="cccccccccc"
         inkscape:connector-curvature="0"
         id="path1393"
         transform="scale(0.26458333)"
         d="m 52.628906,459.22266 c -9.563394,4.6e-4 -17.315943,7.75301 -17.316406,17.3164 -6.2e-4,9.56416 7.752246,17.3179 17.316406,17.31836 9.564923,6.2e-4 17.31898,-7.75344 17.31836,-17.31836 -4.63e-4,-9.56416 -7.754203,-17.31702 -17.31836,-17.3164 z m 0,2.07477 c 8.41779,-1.7e-4 15.241801,6.82384 15.241629,15.24163 1.78e-4,8.41779 -6.823835,15.24181 -15.241629,15.24164 -8.417794,1.7e-4 -15.241807,-6.82385 -15.241629,-15.24164 -1.72e-4,-8.41779 6.823839,-15.2418 15.241629,-15.24163 z"
         style="color:#000000;clip-rule:nonzero;display:inline;overflow:visible;visibility:visible;opacity:1;isolation:auto;mix-blend-mode:normal;color-interpolation:sRGB;color-interpolation-filters:linearRGB;solid-color:#000000;solid-opacity:1;fill:#a12c2c;fill-opacity:1;fill-rule:evenodd;stroke:none;stroke-width:0.07131129;stroke-linecap:round;stroke-linejoin:round;stroke-miterlimit:4;stroke-dasharray:none;stroke-dashoffset:0;stroke-opacity:1;paint-order:normal;color-rendering:auto;image-rendering:auto;shape-rendering:auto;text-rendering:auto;enable-background:accumulate" />
      <path
         sodipodi:nodetypes="scscsssccs"
         inkscape:connector-curvature="0"
         id="path1386"
         d="m 15.816407,125.88374 c 0.355908,-1.3317 -1.846484,-1.56157 -1.891618,0.0589 0.02676,-0.96097 -0.678885,-1.42937 -1.252641,-1.409 -0.446259,0.0157 -0.871077,0.32547 -0.751289,0.93029 0.488592,-0.20623 1.579747,-0.20021 1.726892,0.86388 0.09818,0.70995 0.04602,1.4324 -0.0487,2.11376 -0.02827,0.20338 0.163346,0.23279 0.200129,0.006 0.111926,-0.69131 0.162516,-1.3792 0.357749,-2.26727 0.168876,-0.76816 1.195306,-0.53571 1.427771,-0.13773 0.06781,0.009 0.211786,-0.0836 0.231711,-0.15818 z"
         style="fill:#30643b;fill-opacity:1;fill-rule:evenodd;stroke:none;stroke-width:0.01886778px;stroke-linecap:butt;stroke-linejoin:miter;stroke-opacity:1" />
    </g>
  </g>
</svg>
