<?xml version="1.0" encoding="UTF-8" standalone="no"?>
<!-- Created with Inkscape (http://www.inkscape.org/) -->

<svg
   xmlns:dc="http://purl.org/dc/elements/1.1/"
   xmlns:cc="http://creativecommons.org/ns#"
   xmlns:rdf="http://www.w3.org/1999/02/22-rdf-syntax-ns#"
   xmlns:svg="http://www.w3.org/2000/svg"
   xmlns="http://www.w3.org/2000/svg"
   xmlns:sodipodi="http://sodipodi.sourceforge.net/DTD/sodipodi-0.dtd"
   xmlns:inkscape="http://www.inkscape.org/namespaces/inkscape"
   width="66"
   height="49"
   version="1.1"
   id="svg3068"
   inkscape:version="0.92.3 (2405546, 2018-03-11)"
   sodipodi:docname="range_end_bg.svg">
  <defs
     id="defs3062" />
  <sodipodi:namedview
     id="base"
     pagecolor="#ffffff"
     bordercolor="#666666"
     borderopacity="1.0"
     inkscape:pageopacity="0.0"
     inkscape:pageshadow="2"
     inkscape:zoom="11.2"
     inkscape:cx="45.486036"
     inkscape:cy="-10.251788"
     inkscape:document-units="px"
     inkscape:current-layer="layer1"
     showgrid="false"
     units="px"
     fit-margin-top="0"
     fit-margin-left="0"
     fit-margin-right="0"
     fit-margin-bottom="0"
     inkscape:window-width="2560"
     inkscape:window-height="1031"
     inkscape:window-x="0"
     inkscape:window-y="0"
     inkscape:window-maximized="1" />
  <metadata
     id="metadata3065">
    <rdf:RDF>
      <cc:Work
         rdf:about="">
        <dc:format>image/svg+xml</dc:format>
        <dc:type
           rdf:resource="http://purl.org/dc/dcmitype/StillImage" />
        <dc:title></dc:title>
      </cc:Work>
    </rdf:RDF>
  </metadata>
  <g
     inkscape:label="Layer 1"
     inkscape:groupmode="layer"
     id="layer1"
     transform="translate(-91.294159,-156.9942)">
    <g
       id="g1938"
       transform="matrix(3.7795275,0,0,3.7795275,-245.75808,-572.56655)"
       style="stroke-width:0.26458335">
      <path
         id="path1010"
         transform="matrix(0.26458333,0,0,0.26458333,89.178406,193.02962)"
         d="m 14.328125,12.105469 c -6.0106583,0 -11.5427139,2.714518 -13.39453125,9.394531 -1.58566299,5.719899 2.37354055,11.549353 9.71875025,12.792969 6.228434,1.054564 12.217107,-1.525914 13.458984,-6.626953 1.018772,-4.184882 -2.270623,-8.642628 -7.714844,-9.371094 -5.285669,-0.707225 -9.8441588,2.553396 -9.6757809,5.71875 -0.1099842,3.966047 3.0915131,5.873757 6.5234379,5.964844 2.069858,0.0548 5.362891,-1.104163 5.166015,-3.994141 -0.236976,-3.479622 -5.035647,-3.969425 -6.568359,-2.074219 -1.46434,1.810734 0.315232,3.981436 2.236328,3.699219 -2.335521,0.761083 -4.7868493,-1.082426 -4.7441406,-3.505859 0.050646,-2.878829 3.7372406,-4.349361 6.8320316,-3.767578 3.904856,0.734022 5.646763,3.17827 5.324218,6.21289 -0.378179,3.558728 -4.779497,6.608838 -9.841796,5.832031 C 6.406006,31.576425 2.6292395,28.20613 2.9257812,23.96875 3.319797,18.33835 7.7771587,14.287109 14.53125,14.287109 c 5.878715,0 13.857023,2.253126 13.746094,11.257813 -0.09751,7.903483 -8.662346,11.548828 -17.177735,11.548828 H -2.8769531 V 40.5625 H 8.515625 c 15.022753,0 23.177734,-6.33756 23.177734,-14.853516 0,-10.121196 -8.25234,-13.603515 -17.365234,-13.603515 z"
         style="fill:#a12c2c;fill-opacity:1;fill-rule:evenodd;stroke:none;stroke-width:0.26458332px;stroke-linecap:butt;stroke-linejoin:miter;stroke-opacity:1"
         inkscape:connector-curvature="0" />
      <path
         sodipodi:nodetypes="ccccccccccssccccccc"
         inkscape:connector-curvature="0"
         id="path1025"
         d="m 99.804095,196.38145 c -0.88251,-0.0211 -1.39205,0.48714 -1.54999,1.00638 -0.36681,1.20586 0.29972,2.17359 1.19681,2.5464 -0.89709,0.37283 -1.56362,1.34055 -1.19681,2.54641 0.15794,0.51925 0.66748,1.0275 1.54999,1.00639 1.281265,-0.0306 1.458895,-1.53762 0.605045,-1.66845 -0.3314,-0.0509 -0.618195,0.13728 -0.700815,0.27291 0.25135,0.25424 0.26155,0.63099 -0.0227,0.71907 -0.17963,0.0556 -0.33785,-0.002 -0.53751,-0.22197 -0.55482,-0.60973 -0.001,-1.9653 1.050655,-2.07419 2.73535,-0.31592 4.30505,-0.24902 5.37809,-0.30452 1.25604,-0.065 1.2767,-0.46871 0,-0.55139 -1.07222,-0.0694 -2.6073,0.001 -5.37809,-0.30452 -1.051885,-0.1089 -1.605475,-1.46447 -1.050655,-2.07419 0.19966,-0.21938 0.35788,-0.27761 0.53751,-0.22198 0.28425,0.0881 0.27405,0.46484 0.0227,0.71908 0.0826,0.13563 0.369415,0.32379 0.700815,0.27291 0.85385,-0.13084 0.67622,-1.63778 -0.605045,-1.66845 z"
         style="fill:#a12c2c;fill-opacity:1;fill-rule:evenodd;stroke:none;stroke-width:0.07000434px;stroke-linecap:butt;stroke-linejoin:miter;stroke-opacity:1" />
    </g>
  </g>
</svg>
