<?xml version="1.0" encoding="UTF-8" standalone="no"?>
<!-- Created with Inkscape (http://www.inkscape.org/) -->

<svg
   xmlns:dc="http://purl.org/dc/elements/1.1/"
   xmlns:cc="http://creativecommons.org/ns#"
   xmlns:rdf="http://www.w3.org/1999/02/22-rdf-syntax-ns#"
   xmlns:svg="http://www.w3.org/2000/svg"
   xmlns="http://www.w3.org/2000/svg"
   xmlns:sodipodi="http://sodipodi.sourceforge.net/DTD/sodipodi-0.dtd"
   xmlns:inkscape="http://www.inkscape.org/namespaces/inkscape"
   width="27"
   height="49"
   version="1.1"
   id="svg3068"
   inkscape:version="0.92.3 (2405546, 2018-03-11)"
   sodipodi:docname="range_slider_bg.svg">
  <defs
     id="defs3062" />
  <sodipodi:namedview
     id="base"
     pagecolor="#ffffff"
     bordercolor="#666666"
     borderopacity="1.0"
     inkscape:pageopacity="0.0"
     inkscape:pageshadow="2"
     inkscape:zoom="11.2"
     inkscape:cx="26.758915"
     inkscape:cy="15.649282"
     inkscape:document-units="px"
     inkscape:current-layer="layer1"
     showgrid="false"
     units="px"
     fit-margin-top="0"
     fit-margin-left="0"
     fit-margin-right="0"
     fit-margin-bottom="0"
     inkscape:window-width="2560"
     inkscape:window-height="1031"
     inkscape:window-x="0"
     inkscape:window-y="0"
     inkscape:window-maximized="1" />
  <metadata
     id="metadata3065">
    <rdf:RDF>
      <cc:Work
         rdf:about="">
        <dc:format>image/svg+xml</dc:format>
        <dc:type
           rdf:resource="http://purl.org/dc/dcmitype/StillImage" />
        <dc:title></dc:title>
      </cc:Work>
    </rdf:RDF>
  </metadata>
  <g
     inkscape:label="Layer 1"
     inkscape:groupmode="layer"
     id="layer1"
     transform="translate(-44.004936,-156.9942)">
    <path
       inkscape:connector-curvature="0"
       style="fill:#30643b;fill-opacity:1;fill-rule:evenodd;stroke:none;stroke-width:0.26458332px;stroke-linecap:butt;stroke-linejoin:miter;stroke-opacity:1"
       d="m 56.277141,157.77537 c -0.60138,0.0302 -1.18484,0.17877 -1.703131,0.4043 -2.367859,0.85217 -2.99252,3.22193 -2.41601,4.87887 0.347755,0.99939 1.639903,2.30578 3.314453,1.55275 2.016178,-0.90664 1.423767,-3.30505 0.02154,-3.60352 -1.340859,-0.28535 -2.299268,1.05665 -1.779288,1.90821 -0.879583,-0.93989 -0.19869,-2.42929 1.203118,-3.06055 1.631611,-0.73466 4.080522,0.46213 4.304689,2.07031 0.260221,1.8669 -0.232894,3.01229 -0.828128,4.43948 -0.862711,2.10943 -1.312139,4.43682 -1.31836,6.27734 -1.636611,-2.42975 -4.097699,-3.36473 -7.32226,-2.73438 -2.79798,0.54694 -5.285771,2.91167 -5.431638,6.6875 -0.169777,4.39763 3.653049,8.10935 7.576169,6.96484 2.345249,-0.68425 3.212821,-2.62942 2.800781,-4.11134 -0.565301,-2.03319 -2.259753,-2.63077 -3.781251,-2.1504 -0.91767,0.28989 -2.13289,1.41306 -1.480472,2.91799 0.78559,1.81198 2.982909,1.33308 3.283212,0.09 0.286979,-1.1876 -0.91858,-2.06702 -1.705081,-1.62108 0.874201,-0.76425 2.153011,-0.20598 2.451171,1.13084 0.248693,1.1153 -0.442772,2.10845 -1.85156,2.55273 -2.521792,0.79532 -6.0081,-1.95394 -5.35547,-5.56638 0.54133,-2.99644 3.171859,-4.92468 5.544918,-4.53713 5.524362,0.90225 5.63249,7.40973 5.744141,10.06447 0.173745,4.13072 -0.02192,12.12359 -0.03137,19.77539 -0.830868,0.31408 -1.406249,0.91223 -1.406249,1.33788 0,0.67857 1.133999,1.55078 2.533199,1.55078 1.399211,0 2.533209,-0.45963 2.533209,-1.55078 0,-0.82541 -0.635989,-1.28432 -1.542969,-1.46291 -9.98e-4,-5.22659 -0.01814,-10.35526 -0.08202,-14.51168 0.006,-0.19162 0.0042,-0.46231 0.01172,-0.63674 0.09419,-2.06744 0.131868,-6.64305 4.79102,-7.3457 2.0014,-0.30198 4.27392,1.06262 4.730468,3.65038 0.550413,3.11981 -2.388797,5.49351 -4.515628,4.80665 -1.188151,-0.38369 -1.772221,-1.23994 -1.562498,-2.20312 0.251451,-1.15465 1.331077,-1.63657 2.068357,-0.97655 -0.663318,-0.38514 -1.679539,0.37266 -1.437498,1.39842 0.253266,1.07373 2.106977,1.48872 2.76954,-0.0764 0.55022,-1.2997 -0.476069,-2.27126 -1.25,-2.52151 -1.28321,-0.41484 -2.712691,0.10167 -3.18946,1.85745 -0.347489,1.27983 0.383388,2.95986 2.361328,3.55079 3.308689,0.98846 6.53184,-2.21578 6.388672,-6.01368 -0.123024,-3.2609 -2.22031,-5.37483 -4.580081,-5.80078 -3.193172,-0.57638 -5.494998,0.53197 -6.828121,3.23048 -0.09411,-1.1192 -0.238601,-2.15604 -0.435549,-3.10156 -0.0658,-1.68998 -0.153486,-4.77812 -0.02532,-5.82618 0.393332,-3.21804 1.55904,-4.99548 2.937502,-6.5723 2.0782,-2.37721 4.2229,-2.30207 5.658198,-0.916 1.475883,1.42526 0.358413,4.4877 -0.767569,4.959 0.610609,-0.49353 0.25406,-1.72373 -0.8125,-1.88477 -1.403319,-0.21203 -2.522407,1.7368 -0.839849,2.99217 0.903039,0.67378 2.177518,0.26117 2.867192,-0.27326 1.281418,-0.99314 2.999168,-4.6761 0.6543,-7.06446 -1.397125,-1.42307 -5.130546,-2.11771 -7.705036,-0.0488 0.03326,-0.7293 -0.0635,-1.46816 -0.398441,-2.18555 -0.847098,-1.81417 -2.208858,-2.56788 -3.560549,-2.68165 -0.202734,-0.0189 -0.405011,-0.0189 -0.605462,-0.0113 z"
       id="path1050" />
  </g>
</svg>
