<?xml version="1.0" encoding="UTF-8" standalone="no"?>
<!-- Created with Inkscape (http://www.inkscape.org/) -->

<svg
   xmlns:dc="http://purl.org/dc/elements/1.1/"
   xmlns:cc="http://creativecommons.org/ns#"
   xmlns:rdf="http://www.w3.org/1999/02/22-rdf-syntax-ns#"
   xmlns:svg="http://www.w3.org/2000/svg"
   xmlns="http://www.w3.org/2000/svg"
   xmlns:sodipodi="http://sodipodi.sourceforge.net/DTD/sodipodi-0.dtd"
   xmlns:inkscape="http://www.inkscape.org/namespaces/inkscape"
   width="380"
   height="268"
   viewBox="0 0 100.54167 70.908333"
   version="1.1"
   id="svg1487"
   inkscape:version="0.92.3 (2405546, 2018-03-11)"
   sodipodi:docname="side_right_bg.svg">
  <defs
     id="defs1481" />
  <sodipodi:namedview
     id="base"
     pagecolor="#ffffff"
     bordercolor="#666666"
     borderopacity="1.0"
     inkscape:pageopacity="0.0"
     inkscape:pageshadow="2"
     inkscape:zoom="1.4"
     inkscape:cx="144.50556"
     inkscape:cy="79.665866"
     inkscape:document-units="mm"
     inkscape:current-layer="g1290"
     showgrid="false"
     fit-margin-top="0"
     fit-margin-left="0"
     fit-margin-right="0"
     fit-margin-bottom="0"
     units="px"
     inkscape:window-width="2560"
     inkscape:window-height="1031"
     inkscape:window-x="0"
     inkscape:window-y="0"
     inkscape:window-maximized="1" />
  <metadata
     id="metadata1484">
    <rdf:RDF>
      <cc:Work
         rdf:about="">
        <dc:format>image/svg+xml</dc:format>
        <dc:type
           rdf:resource="http://purl.org/dc/dcmitype/StillImage" />
        <dc:title />
      </cc:Work>
    </rdf:RDF>
  </metadata>
  <g
     inkscape:label="Layer 1"
     inkscape:groupmode="layer"
     id="layer1"
     transform="translate(355.95375,-179.8719)">
    <g
       transform="matrix(-1,0,0,1,-292.07089,132.51561)"
       id="g1152">
      <g
         id="g939">
        <path
           id="path852"
           style="fill:#ffce00;fill-opacity:1;fill-rule:evenodd;stroke:none;stroke-width:0.26458332px;stroke-linecap:butt;stroke-linejoin:miter;stroke-opacity:1"
           d="m 45.79181,104.06285 0.367497,-19.516916 c 0.571088,-11.151153 7.786057,-12.749683 9.324527,-13.03252 3.88868,-0.714906 7.404251,1.389656 8.24215,5.185842 0.717468,3.250561 -1.07378,6.922221 -4.397264,7.628962 -2.818189,0.599291 -5.528588,-0.86713 -6.090494,-3.765991 -0.460984,-2.378207 1.027469,-4.911373 3.490818,-5.325337 2.391626,-0.401911 4.454364,1.450775 4.37816,3.249608 0.04974,2.25386 -1.398689,3.338102 -2.951532,3.389872 -0.936547,0.03122 -2.42651,-0.627667 -2.33743,-2.269996 0.107257,-1.97744 2.278031,-2.254873 2.97154,-1.177839 0.662585,1.029009 -0.142456,2.262071 -1.011738,2.101703 1.056749,0.432512 2.166517,-0.614746 2.147205,-1.991949 -0.02294,-1.636006 -1.691609,-2.47165 -3.091925,-2.141041 -1.766811,0.417138 -2.555004,1.80572 -2.40909,3.530214 0.171121,2.022395 2.162925,3.75641 4.453469,3.314974 2.372042,-0.457144 4.080418,-2.731972 3.946246,-5.140015 -0.178281,-3.199701 -2.78074,-6.151069 -6.70535,-5.653564 -1.36025,0.172433 -7.987768,1.269519 -8.622944,12.130486 l -0.267271,19.483507 z"
           inkscape:connector-curvature="0"
           sodipodi:nodetypes="ccssssscssscssssssccc" />
        <path
           style="fill:#ffce00;fill-opacity:1;fill-rule:evenodd;stroke:none;stroke-width:0.99999994px;stroke-linecap:butt;stroke-linejoin:miter;stroke-opacity:1"
           d="m 161.98438,195.11719 c -2.35028,0.0152 -4.57959,0.49164 -6.35743,1.26562 -7.31017,2.63086 -9.233,9.94892 -7.45312,15.06446 1.07347,3.08526 5.06082,7.11573 10.23047,4.79101 6.22449,-2.79907 4.39522,-10.20548 0.0625,-11.12695 -4.13952,-0.88038 -7.09551,3.26742 -5.49024,5.89648 -2.71539,-2.90169 -0.61516,-7.50428 3.71289,-9.45312 5.03719,-2.26816 12.59509,1.42967 13.28711,6.39453 0.87314,6.26428 0.0464,10.58033 -3.31445,16.88281 0.0221,-0.01 0.0332,-0.0176 0.0547,-0.0273 -3.0517,5.81435 -5.49745,13.70461 -6.57813,24.41601 -7.67311,-11.19189 -18.12696,-13.0085 -21.7207,-13.57422 -13.95625,-2.19693 -24.39521,3.08073 -30.98242,14.95899 -9.162058,16.5213 1.47282,42.14522 22.49414,42.95508 12.06917,0.46497 23.58985,-4.02413 25.72461,-15.39844 1.86612,-9.94299 -3.67356,-16.78006 -10.94141,-18.07227 -6.2748,-1.11565 -11.60593,3.32417 -11.53125,7.97852 -0.27719,5.80961 3.77484,8.35298 7.81836,8.28125 3.13466,-0.0556 7.23367,-2.39943 6.45312,-6.0293 -0.58971,-2.74244 -3.45059,-3.87259 -5.3457,-3.40039 -2.22304,0.55393 -3.51772,3.17497 -0.9668,5.20313 0.55333,-1.05116 2.14068,-0.9895 2.54102,0.21093 0.20122,0.60348 -0.16723,1.41709 -1.72266,1.72461 -3.1591,0.6246 -5.89603,-2.37741 -5.66406,-5.86132 0.26699,-4.00939 4.96817,-6.57072 8.49024,-5.25782 6.73278,2.50975 7.97141,7.29783 7.35937,14.04102 -0.71777,7.90804 -10.80564,13.38847 -21.03711,12.88086 1.27878,-0.77081 2.81163,-2.82902 2.50196,-4.8711 -21.35169,-1.23086 -24.64362,-15.59006 -23.46485,-25.40625 1.31782,-10.97414 11.32415,-21.74556 26.40039,-19.86523 5.03191,0.62759 26.79147,5.65135 27.42578,43.16797 0.64039,37.87585 0.2124,72.50861 -0.13086,110.42187 h 5.95508 c 0.0912,-36.6641 0.6511,-72.40727 -0.95508,-112.68945 -0.24335,-6.1031 -0.99179,-11.3598 -2.09765,-15.90625 -0.86447,-7.00048 -2.45399,-13.34485 -0.99414,-21.86914 4.94995,-28.90354 20.69595,-30.54902 24.90039,-31.08398 16.18164,-2.05891 24.00349,9.56305 24.625,20.58984 0.46774,8.29858 -6.73861,18.81717 -15.00782,20.39258 -7.9851,1.52127 -14.92884,-4.45427 -15.52539,-11.42383 -0.50867,-5.94294 2.23913,-10.72848 8.39844,-12.16602 4.88166,-1.13934 10.69932,1.74092 10.7793,7.37891 0.0673,4.7461 -3.80043,8.35575 -7.48438,6.86523 3.03042,0.55266 5.83524,-3.69797 3.52539,-7.24414 -2.41765,-3.71166 -9.98351,-2.75409 -10.35742,4.06055 -0.31054,5.65978 4.88353,7.92987 8.14844,7.82227 5.41339,-0.17841 10.46247,-3.91441 10.28906,-11.68164 0.26566,-6.19913 -6.92618,-12.58429 -15.26367,-11.19922 -8.58752,1.42659 -13.77697,10.1558 -12.16992,18.35156 1.95887,9.99003 11.40789,15.04379 21.23242,12.97852 11.58605,-2.43557 19.08126,-17.7667 16.58008,-28.96876 -2.92101,-13.08238 -13.03318,-21.99302 -29.98242,-19.29101 -2.29818,0.36637 -7.48886,1.33157 -12.84571,5.55469 1.31413,-3.35727 1.7959,-6.93099 0.20508,-10.33789 -2.87674,-6.16083 -8.63995,-8.35769 -13.81054,-8.32422 z"
           transform="scale(0.26458333)"
           id="path855"
           inkscape:connector-curvature="0" />
        <path
           sodipodi:nodetypes="csssssssscssssscc"
           inkscape:connector-curvature="0"
           d="m 42.485827,104.06285 c 0,-4.681652 -0.0165,-9.305411 -0.146507,-11.622671 -0.27138,-4.83721 -3.056561,-6.914979 -6.106999,-6.401461 -1.680391,0.282881 -3.167436,1.804015 -3.254862,4.121317 -0.101823,2.698936 2.189159,4.97712 4.540426,4.274693 1.405593,-0.419913 1.958214,-1.622598 1.711259,-2.532111 -0.338815,-1.247825 -1.271044,-1.529955 -2.190963,-1.261124 -0.608461,0.177813 -1.216178,0.903414 -0.885941,1.702713 0.422622,1.022904 1.814809,0.762728 2.043103,0.01291 0.136498,-0.448318 0.03168,-0.636089 -0.117818,-0.831913 0.07509,0.01823 0.313303,0.192381 0.379785,0.611438 0.109757,0.691828 -0.264982,1.29359 -1.109322,1.566261 -1.511398,0.48809 -3.601199,-1.198578 -3.210055,-3.415607 0.324444,-1.838974 1.936808,-2.791775 3.36159,-2.594753 3.09834,0.428445 3.379385,3.750473 3.404752,5.220981 0.0398,2.3073 0.145623,6.890524 0.145623,11.149327 z"
           style="fill:#ffce00;fill-opacity:1;fill-rule:evenodd;stroke:none;stroke-width:0.26458332px;stroke-linecap:butt;stroke-linejoin:miter;stroke-opacity:1"
           id="path863" />
      </g>
      <g
         style="fill:#ffce00;fill-opacity:1"
         id="g955">
        <path
           sodipodi:nodetypes="csssssscssssscc"
           inkscape:connector-curvature="0"
           d="m 0.48902492,104.06285 c 0,-1.7022 -0.0180132,-3.13661 -0.0602252,-4.04532 -0.0821696,-1.769214 -0.86351504,-3.114914 -2.31673962,-3.378538 -1.2838567,-0.232899 -2.9767063,0.611409 -2.7820811,2.475213 0.1122341,1.074805 1.3389944,2.041615 2.6719688,1.732585 0.4899516,-0.1136 1.10472896,-0.45111 1.08516392,-1.268916 -0.0284031,-1.187297 -1.42455322,-1.351528 -1.54580522,-0.560305 -0.047062,0.307093 0.1269852,0.572435 0.2526777,0.64901 0.2356134,-0.232919 0.5847728,-0.241967 0.6664018,0.02152 0.051569,0.166449 0.016769,0.336761 -0.2057715,0.498131 -0.5385335,0.39054 -1.6940526,-0.17845 -1.8370491,-1.088105 -0.1995756,-1.269569 0.9045878,-1.670766 1.4285314,-1.595769 1.0641183,0.152301 1.62659216,1.142503 1.62659216,2.872144 0,1.29697 -0.0204053,2.26077 -0.0204053,3.68835 z"
           style="fill:#ffce00;fill-opacity:1;fill-rule:evenodd;stroke:none;stroke-width:0.26458332px;stroke-linecap:butt;stroke-linejoin:miter;stroke-opacity:1"
           id="path865" />
        <path
           id="path869"
           style="fill:#ffce00;fill-opacity:1;fill-rule:evenodd;stroke:none;stroke-width:0.26458332px;stroke-linecap:butt;stroke-linejoin:miter;stroke-opacity:1"
           d="m 3.1969153,104.06285 c 0,-2.5484 0.1027026,-5.733075 0.2714454,-7.084507 0.3194058,-2.558066 1.8849506,-4.894811 3.9701201,-5.630561 2.4897583,-0.87851 6.1300622,0.312697 5.8524752,4.536032 -0.14737,2.242173 -2.093447,4.030633 -4.1754229,3.679521 -0.7424898,-0.125216 -1.6539173,-0.675363 -1.624626,-1.899713 0.042523,-1.777528 2.1327338,-2.023407 2.3142632,-0.838841 0.070459,0.459746 -0.1901127,0.857004 -0.3782897,0.971643 -0.3527427,-0.348709 -0.875478,-0.362251 -0.9976868,0.03222 -0.077205,0.249199 -0.040719,0.527298 0.3080656,0.74576 1.0781735,0.675319 3.0786446,-0.4472 3.1931266,-2.896466 0.13659,-2.922245 -2.0554127,-3.82864 -4.2406334,-3.199749 -1.5465798,0.445095 -3.042113,2.444094 -3.1931804,5.018468 -0.1137467,1.938387 -0.1507315,4.428923 -0.1507315,6.566193 z"
           inkscape:connector-curvature="0"
           sodipodi:nodetypes="csssssscssssscc" />
        <path
           style="fill:#ffce00;fill-opacity:1;fill-rule:evenodd;stroke:none;stroke-width:0.99999994px;stroke-linecap:butt;stroke-linejoin:miter;stroke-opacity:1"
           d="m 9.9101562,300.24023 c -5.8637551,0.0208 -13.0258857,3.91025 -14.0195312,12.70313 -3.9274487,-5.9512 -12.696008,-1.95132 -8.21875,3.58398 0.501346,-1.95087 6.0208964,-5.19128 8.1308594,-0.32031 0.021113,0.38738 0.050836,0.7809 0.09375,1.18359 0.6198871,5.81688 1.6009298,9.37633 2.65625,12.13477 -2.5584203,-1.42231 -4.894491,-2.00064 -6.0273438,-2.19922 -7.5575746,-1.32478 -13.9645606,2.89682 -17.0429686,8.41211 -6.349143,11.37515 0.47859,24.97595 12.830078,24.39649 2.5868833,-0.12137 8.8541496,-1.65828 9.8359375,-8.30079 0.7973719,-5.39479 -2.4436692,-8.92092 -6.6601563,-9.66992 -3.6403652,-0.64665 -6.7347332,1.92528 -6.6914062,4.62305 -0.160808,3.36738 2.191278,4.84478 4.537109,4.80078 2.3436711,-0.044 4.2988333,-3.15204 2.7187504,-4.90039 0.6750727,0 2.6880248,0.72625 2.2949218,4.63477 -0.4605849,4.57946 -4.5944792,5.17087 -6.6406252,4.88476 -9.407129,-1.31537 -12.573969,-12.53181 -6.689453,-20.71289 2.507791,-3.48652 7.063281,-4.56203 10.6113282,-4.05273 2.7407959,0.39341 12.2428542,3.60859 13.1132813,16.9082 1.0290448,15.72319 0.3868253,29.65995 0.042969,44.95898 h 4.3125 C 9.1899969,378.47996 9.8557554,363.94763 8.8300781,347.42969 8.7335364,345.87494 8.5339399,344.44015 8.25,343.11328 l 0.023437,0.0195 C 7.5658,338.86325 5.9360325,335.22749 4.4960938,332.32227 2.2486975,327.78792 0.90261788,323.65595 0.13867188,317.39258 -0.90253109,308.85606 5.2807868,303.41963 11.859375,304.55859 c 6.090728,1.0545 9.449552,9.55634 6.982422,13.26368 0.856915,-2.7331 -2.742575,-5.80945 -6.279297,-4.08399 -3.7017827,1.80599 -3.7711117,9.13493 2.46875,10.29102 4.562094,0.84523 7.398649,-3.97262 8.242188,-6.89063 1.539504,-5.32553 -1.574374,-14.48202 -10.59961,-16.59765 -0.863034,-0.20231 -1.79603,-0.30421 -2.7636718,-0.30079 z"
           transform="scale(0.26458333)"
           id="path873"
           inkscape:connector-curvature="0" />
      </g>
      <g
         style="fill:#ffce00;fill-opacity:1"
         id="g949">
        <path
           id="path861"
           style="fill:#ffce00;fill-opacity:1;fill-rule:evenodd;stroke:none;stroke-width:0.26458332px;stroke-linecap:butt;stroke-linejoin:miter;stroke-opacity:1"
           d="m 20.905488,104.06285 c 0,-2.8179 0.02983,-4.309643 0.0997,-5.813979 0.121391,-2.613669 1.274016,-4.893041 3.690325,-5.266566 2.10533,-0.325453 4.176945,0.986317 3.963823,3.822425 -0.134054,1.78391 -1.888256,3.36184 -4.082454,2.799118 -0.795202,-0.203935 -1.685868,-0.889746 -1.796439,-2.100617 -0.178788,-1.957926 2.358282,-2.237392 2.559009,-0.927553 0.07791,0.508367 -0.210218,0.947637 -0.418296,1.074399 -0.390047,-0.385586 -0.968064,-0.40056 -1.103197,0.03563 -0.08537,0.275553 -0.02209,0.549815 0.340645,0.824628 0.973338,0.737423 2.907113,-0.09693 3.091261,-1.734479 0.20558,-1.828143 -1.096598,-2.932916 -2.414979,-2.708546 -1.754327,0.298562 -2.759565,1.891361 -2.759565,4.754692 0,2.147078 0.03378,2.877548 0.03378,5.240848 z"
           inkscape:connector-curvature="0"
           sodipodi:nodetypes="csssssscssssscc" />
        <path
           id="path879"
           style="fill:#ffce00;fill-opacity:1;fill-rule:evenodd;stroke:none;stroke-width:0.26458332px;stroke-linecap:butt;stroke-linejoin:miter;stroke-opacity:1"
           d="m 27.016653,90.307696 c -0.681025,-0.07552 -2.342442,-0.43859 -2.602207,-2.196085 -0.210971,-1.427372 0.646585,-2.360606 1.762197,-2.558778 0.96318,-0.171094 1.781487,0.509825 1.770023,1.223609 0.04255,0.890953 -0.579431,1.281622 -1.200099,1.26998 -0.620096,-0.01163 -1.13754,-0.8341 -0.719477,-1.296683 -0.178613,0 -0.710965,0.192223 -0.606957,1.22635 0.121863,1.211651 1.215538,1.368181 1.756914,1.292482 2.48897,-0.348025 3.326883,-3.31588 1.769939,-5.480458 -0.66352,-0.922474 -2.20841,-1.85824 -4.077807,-1.240992 -1.960591,0.64736 -3.750183,2.947122 -4.106454,6.532948 -0.430348,4.331405 -0.770374,10.934901 -0.679393,14.982781 h -1.141314 c -0.02443,-3.92342 0.177933,-10.883591 0.738963,-15.22629 0.660089,-5.109476 3.35327,-6.708299 4.748586,-7.230573 2.284868,-0.855238 4.503171,0.230034 5.559279,1.426177 2.441439,2.765161 0.557573,7.666938 -2.972193,7.275532 z"
           inkscape:connector-curvature="0"
           sodipodi:nodetypes="ssscscsssssccssss" />
        <path
           style="fill:#ffce00;fill-opacity:1;fill-rule:evenodd;stroke:none;stroke-width:0.99999994px;stroke-linecap:butt;stroke-linejoin:miter;stroke-opacity:1"
           d="m 62.072266,258.67383 c -2.238927,-0.0957 -4.454126,0.76919 -5.382813,2.12109 -1.146788,1.6694 -1.346581,3.73717 -0.265625,5.11133 0.734294,0.93347 2.192558,0.95294 2.847656,0.19922 -1.251213,-2.50778 8.973026,-4.83824 5.109375,6.78125 -3.978319,6.92461 -4.230727,13.44732 -3.375,19.43945 -5.326951,-5.85633 -11.888143,-7.42578 -13.679687,-7.42578 -7.557574,-1.32478 -13.964561,2.89682 -17.042969,8.41211 -6.349142,11.37515 0.478589,24.97595 12.830078,24.39648 2.586883,-0.12136 8.854149,-1.65828 9.835938,-8.30078 0.79737,-5.39479 -2.443666,-8.92288 -6.660157,-9.67187 -3.640365,-0.64666 -6.734734,1.92723 -6.691406,4.625 -0.160819,3.36738 2.191278,4.84478 4.53711,4.80078 2.34367,-0.044 4.298834,-3.154 2.71875,-4.90234 0.675072,0 2.688023,0.7282 2.294922,4.63671 -0.460585,4.57947 -4.59448,5.17088 -6.640626,4.88477 -9.40713,-1.31537 -12.573968,-12.53376 -6.689453,-20.71484 2.507793,-3.48652 6.22827,-4.14917 9.808594,-4.32032 5.646939,-0.26993 18.495198,8.02297 18.587891,23.74219 0.0929,15.75656 0.277455,65.52128 -0.06641,80.82031 h 4.314453 c 0.08987,-14.43263 0.727649,-62.45929 -0.09375,-80.2539 l 0.01367,0.0273 c -0.0063,-0.15962 -0.02647,-0.34376 -0.03516,-0.50781 -0.01574,-0.32034 -0.02815,-0.70724 -0.04492,-1.00586 -0.09818,-1.74808 -0.302158,-3.37342 -0.578125,-4.9082 -0.716549,-5.00322 -1.809897,-10.25675 -2.349609,-12.89844 -1.333795,-6.52844 -0.651928,-13.63225 4.376953,-19.38477 7.581797,-8.67279 16.705079,-8.11143 21.941406,-3.05468 5.384368,5.1997 1.668417,17.52472 -2.439453,19.24414 2.227616,-1.80051 0.935414,-6.35584 -2.964844,-6.87891 -4.082286,-0.54748 -8.428946,5.86224 -3.423828,9.76367 2.788857,2.17388 6.145575,1.29089 9.351563,-0.46094 7.284453,-3.98039 12.05075,-17.59329 3.496094,-26.30664 -5.453755,-5.55492 -18.792041,-8.29955 -27.785157,1.29493 1.202895,-6.65112 -2.352781,-9.15505 -5.855468,-9.30469 z"
           transform="scale(0.26458333)"
           id="path881"
           inkscape:connector-curvature="0" />
      </g>
      <g
         style="fill:#ffce00;fill-opacity:1"
         id="g960">
        <path
           style="fill:#ffce00;fill-opacity:1;fill-rule:evenodd;stroke:none;stroke-width:0.99999994px;stroke-linecap:butt;stroke-linejoin:miter;stroke-opacity:1"
           d="m -50.716797,334.37891 c -3.477391,0.14799 -7.155685,1.74814 -9.863281,5.70507 0.455718,-5.66764 -6.826095,-5.63842 -5.699219,-0.67773 1.808725,-0.8235 4.908517,0.01 4.044922,3.62305 -1.644287,3.68944 -1.673385,7.17557 -1.205078,10.41601 -3.307356,-3.65082 -7.386588,-4.64843 -8.5,-4.64843 v -0.002 c -4.687034,-0.8216 -8.659203,1.79635 -10.568359,5.2168 -3.937592,7.0546 0.296926,15.49023 7.957031,15.13086 1.604326,-0.0752 5.490727,-1.02891 6.099609,-5.14844 0.494514,-3.34572 -1.515891,-5.53353 -4.130859,-5.99805 -2.257671,-0.40104 -3.89643,1.21492 -4.148438,2.86914 -0.344617,2.26218 1.227528,3.69886 2.681641,3.75196 1.848079,0.0675 3.318416,-1.45682 2.53125,-3.2793 0.574915,0.60268 0.855815,1.30044 0.708984,2.33789 -0.277039,1.95743 -2.723215,2.76531 -3.992187,2.58789 -5.834083,-0.81577 -7.004819,-7.01661 -3.833985,-11.70898 1.51084,-2.23582 4.235075,-2.4466 5.767578,-2.55274 3.497719,-0.24223 10.460092,4.2806 10.517579,14.0293 0.0576,9.77184 0.172263,17.78922 -0.04102,27.27734 h 3.560547 c 0.05551,-8.91571 0.441757,-17.21742 -0.05859,-27.05273 l 0.0098,0.0176 c -0.149518,-3.76781 -0.487175,-9.14935 -0.97461,-11.53516 -0.827187,-4.04878 -0.491841,-8.72344 2.626954,-12.29101 4.702053,-5.37867 9.555288,-5.20834 12.802734,-2.07227 3.339262,3.22473 0.811274,10.15436 -1.736328,11.2207 1.381515,-1.11662 0.575239,-3.90112 -1.837891,-4.26562 -3.175052,-0.47957 -5.707286,3.92719 -1.900391,6.76758 2.043168,1.52443 4.923971,0.59019 6.484376,-0.61914 2.899279,-2.24699 6.789776,-10.57861 1.484374,-15.98243 -1.865508,-1.90011 -5.219177,-3.26903 -8.787109,-3.11718 z"
           transform="scale(0.26458333)"
           id="path893"
           inkscape:connector-curvature="0" />
        <path
           sodipodi:nodetypes="csscsccsssccssssc"
           inkscape:connector-curvature="0"
           d="m -10.215629,100.15854 c -0.410408,-0.0455 -1.41163,-0.264306 -1.568173,-1.323425 -0.127138,-0.860181 0.389653,-1.422578 1.061956,-1.542002 0.580443,-0.103107 1.0735804,0.307236 1.0666718,0.737385 0.02218,0.573086 -0.3274684,0.981181 -0.9003938,0.836202 -0.126721,-0.03207 -0.225363,-0.09568 -0.275746,-0.158528 -0.02374,0.444538 0.494849,0.596461 0.783213,0.564304 0.9467022,-0.138085 1.4743504,-1.872817 0.8303868,-2.818417 -0.3116566,-0.457638 -1.1418698,-0.919033 -2.1857448,-0.617931 -1.195515,0.344842 -2.220507,1.90369 -2.327555,4.072625 -0.0455,0.921807 -0.111611,3.148197 -0.111611,4.154097 h -1.021879 c 0,-1.80658 0.09014,-3.88849 0.228166,-4.790638 0.469537,-3.069013 2.020787,-4.042635 2.861649,-4.357374 1.376933,-0.515393 2.7137531,0.138626 3.3501973,0.85946 1.4712885,1.666373 0.3360111,4.620342 -1.7911373,4.384462 z"
           style="fill:#ffce00;fill-opacity:1;fill-rule:evenodd;stroke:none;stroke-width:0.26458332px;stroke-linecap:butt;stroke-linejoin:miter;stroke-opacity:1"
           id="path897" />
      </g>
      <path
         id="path1098"
         style="fill:#a12c2c;fill-opacity:1;fill-rule:evenodd;stroke:none;stroke-width:0.26458332px;stroke-linecap:butt;stroke-linejoin:miter;stroke-opacity:1"
         d="M -26.319465,105.37045 V 49.918074 c 0,-1.369731 -0.575823,-2.260671 -1.686753,-2.464721 -0.98146,-0.18026 -1.995278,0.339296 -2.015712,1.515464 -0.01593,0.917029 1.188834,1.183887 1.469933,0.815059 -0.173294,-0.09736 -0.303251,-0.245736 -0.268969,-0.56914 0.05077,-0.478885 0.520875,-0.691326 0.922531,-0.633803 0.473191,0.06777 1.04085,0.388442 1.04085,1.613391 v 55.176066 z"
         inkscape:connector-curvature="0"
         sodipodi:nodetypes="cssscssscc" />
      <path
         sodipodi:nodetypes="ccssccsccsccccccsccccccccc"
         inkscape:connector-curvature="0"
         id="rect964"
         transform="scale(0.26458333)"
         d="m 199.82227,386.00195 c -4.25136,-0.0273 -7.46541,1.73277 -10.83008,6.70195 h -307.50663 c -3.77315,0 -4.13914,2.0461 0,2.0461 h 306.51053 c -0.86113,1.40793 -1.46075,2.56797 -1.625,2.92383 h -307.54178 c -8.61984,0 -17.99038,5.35332 -16.46289,14.45703 1.02465,6.10749 7.06098,7.84516 11.69726,6.13281 3.59414,-1.32744 5.80807,-5.9418 5.03321,-9.38476 -1.07019,-4.75518 -7.42401,-5.28953 -8.50977,-1.5625 -0.67325,2.31099 1.54494,3.0862 1.1543,4.37109 -0.10783,0.35467 -0.14833,0.73535 -0.83203,1.27344 1.2642,2.0547 5.56751,-0.41987 5.18945,-3.35547 1.67718,1.53139 -0.24414,4.58627 -2.31836,5.47461 -3.94391,1.68907 -7.55552,-0.416 -7.7832,-3.86524 -0.3213,-4.8672 5.02211,-9.5 12.83203,-9.5 h 313.4578 c 0,-0.24744 -0.64939,-0.59295 -1.30859,-1.04687 -0.49523,-0.34099 -2.33351,-2.10557 -0.90625,-4.54688 3.06358,-5.24035 5.89276,-6.74177 9.97265,-6.90429 1.63378,-0.0651 2.43483,1.15364 2.09766,2.09765 -0.49054,1.37356 -2.22289,1.52724 -3.34766,0.22266 -1.98279,3.10284 1.25357,5.49976 3.61524,5.22461 2.38478,-0.27783 3.75584,-1.92107 4.19726,-3.66211 0.64488,-2.54343 -1.7996,-7.06742 -6.78515,-7.09766 z"
         style="color:#000000;clip-rule:nonzero;display:inline;overflow:visible;visibility:visible;opacity:1;isolation:auto;mix-blend-mode:normal;color-interpolation:sRGB;color-interpolation-filters:linearRGB;solid-color:#000000;solid-opacity:1;fill:#30643b;fill-opacity:1;fill-rule:evenodd;stroke:none;stroke-width:0.99999994;stroke-linecap:round;stroke-linejoin:round;stroke-miterlimit:4;stroke-dasharray:none;stroke-dashoffset:0;stroke-opacity:1;paint-order:normal;color-rendering:auto;image-rendering:auto;shape-rendering:auto;text-rendering:auto;enable-background:accumulate" />
      <path
         sodipodi:nodetypes="csssssscssssscc"
         inkscape:connector-curvature="0"
         d="m 33.862251,54.383439 h -62.728418 c -1.369731,0 -2.41101,0.60088 -2.61506,1.71181 -0.18026,0.98146 0.49687,2.0898 1.9395,2.03738 0.83191,-0.0303 1.68655,-0.79165 1.44735,-1.83968 -0.0879,-0.38522 -0.47909,-0.76959 -1.11209,-0.79755 -0.919,-0.0406 -1.04611,1.03142 -0.43369,1.16697 0.2377,0.0527 0.44308,-0.0681 0.50235,-0.16138 -0.18029,-0.19464 -0.18728,-0.46537 0.0166,-0.51467 0.12883,-0.0311 0.26066,0.005 0.38556,0.18552 0.30229,0.43741 -0.13812,1.30183 -0.84221,1.36457 -0.98268,0.0876 -1.29321,-0.78822 -1.23516,-1.1898 0.11788,-0.81563 0.881221,-1.42505 2.2231,-1.42505 h 62.452108 c 1.675539,0 1.688102,-0.53812 6e-5,-0.53812 z"
         style="fill:#a12c2c;fill-opacity:1;fill-rule:evenodd;stroke:none;stroke-width:0.26458332px;stroke-linecap:butt;stroke-linejoin:miter;stroke-opacity:1"
         id="path1087" />
      <path
         sodipodi:nodetypes="cssssccc"
         inkscape:connector-curvature="0"
         d="m 25.059986,59.88559 h -52.651034 c -0.809761,0 -1.33647,0.123519 -1.457101,0.551789 -0.106567,0.378357 0.218489,0.715483 0.913819,0.723359 0.542132,0.0061 0.667884,-0.34425 0.667884,-0.513328 0,-0.198879 0.341842,-0.2237 0.590159,-0.2237 h 51.936213 c 1.67554,0 1.6881,-0.53812 6e-5,-0.53812 z"
         style="fill:#a12c2c;fill-opacity:1;fill-rule:evenodd;stroke:none;stroke-width:0.26458332px;stroke-linecap:butt;stroke-linejoin:miter;stroke-opacity:1"
         id="path1100" />
      <path
         id="path1102"
         style="fill:#a12c2c;fill-opacity:1;fill-rule:evenodd;stroke:none;stroke-width:0.26458332px;stroke-linecap:butt;stroke-linejoin:miter;stroke-opacity:1"
         d="m 10.271668,65.387756 h -38.807656 c -1.068541,0 -1.763573,0.162993 -1.922754,0.728127 -0.140623,0.499271 0.288312,0.944133 1.205853,0.954527 0.715384,0.0081 0.890961,-0.528827 0.635836,-0.724135 -0.370075,-0.283307 0.108998,-0.420399 0.357315,-0.420399 h 38.531346 c 1.67554,0 1.6881,-0.53812 6e-5,-0.53812 z"
         inkscape:connector-curvature="0"
         sodipodi:nodetypes="cssssccc" />
      <path
         id="path1106"
         style="fill:#a12c2c;fill-opacity:1;fill-rule:evenodd;stroke:none;stroke-width:0.26458332px;stroke-linecap:butt;stroke-linejoin:miter;stroke-opacity:1"
         d="M 7.2006106,70.889899 H -27.591048 c -0.809761,0 -1.33647,0.123519 -1.457101,0.551789 -0.106567,0.378357 0.218489,0.715483 0.913819,0.723359 0.542132,0.0061 0.667884,-0.34425 0.667884,-0.513328 0,-0.198879 0.341842,-0.2237 0.590159,-0.2237 H 7.2005506 c 1.67554,0 1.6881,-0.53812 6e-5,-0.53812 z"
         inkscape:connector-curvature="0"
         sodipodi:nodetypes="cssssccc" />
      <path
         sodipodi:nodetypes="cssssccc"
         inkscape:connector-curvature="0"
         d="m -1.146912,76.392049 h -27.389076 c -1.068541,0 -1.763573,0.162993 -1.922754,0.728127 -0.140623,0.499271 0.288312,0.944133 1.205853,0.954527 0.715384,0.0081 0.890961,-0.528827 0.635836,-0.724135 -0.370075,-0.283307 0.108998,-0.420399 0.357315,-0.420399 h 27.112766 c 1.67554003,0 1.68810003,-0.53812 6e-5,-0.53812 z"
         style="fill:#a12c2c;fill-opacity:1;fill-rule:evenodd;stroke:none;stroke-width:0.26458332px;stroke-linecap:butt;stroke-linejoin:miter;stroke-opacity:1"
         id="path1108" />
      <path
         sodipodi:nodetypes="cssssccc"
         inkscape:connector-curvature="0"
         d="M -8.8882316,81.894203 H -27.591048 c -0.809761,0 -1.33647,0.123519 -1.457101,0.551789 -0.106567,0.378357 0.218489,0.715483 0.913819,0.723359 0.542132,0.0061 0.667884,-0.34425 0.667884,-0.513328 0,-0.198879 0.341842,-0.2237 0.590159,-0.2237 h 17.9879954 c 1.67554,0 1.6881,-0.53812 6e-5,-0.53812 z"
         style="fill:#a12c2c;fill-opacity:1;fill-rule:evenodd;stroke:none;stroke-width:0.26458332px;stroke-linecap:butt;stroke-linejoin:miter;stroke-opacity:1"
         id="path1110" />
      <path
         id="path1112"
         style="fill:#a12c2c;fill-opacity:1;fill-rule:evenodd;stroke:none;stroke-width:0.26458332px;stroke-linecap:butt;stroke-linejoin:miter;stroke-opacity:1"
         d="m -20.438898,87.396351 h -8.09709 c -1.068541,0 -1.763573,0.162993 -1.922754,0.728127 -0.140623,0.499269 0.288312,0.944129 1.205853,0.954529 0.715384,0.008 0.890961,-0.52883 0.635836,-0.72414 -0.370075,-0.283304 0.108998,-0.420396 0.357315,-0.420396 h 7.82078 c 1.67554,0 1.6881,-0.53812 6e-5,-0.53812 z"
         inkscape:connector-curvature="0"
         sodipodi:nodetypes="cssssccc" />
      <path
         id="path1114"
         style="fill:#a12c2c;fill-opacity:1;fill-rule:evenodd;stroke:none;stroke-width:0.26458332px;stroke-linecap:butt;stroke-linejoin:miter;stroke-opacity:1"
         d="m -24.21866,92.898509 h -3.372388 c -0.809761,0 -1.33647,0.12352 -1.457101,0.551785 -0.106567,0.37836 0.218489,0.71549 0.913819,0.72336 0.542132,0.006 0.667884,-0.34425 0.667884,-0.51333 0,-0.19887 0.341842,-0.2237 0.590159,-0.2237 h 2.657567 c 1.67554,0 1.6881,-0.538115 6e-5,-0.538115 z"
         inkscape:connector-curvature="0"
         sodipodi:nodetypes="cssssccc" />
      <path
         sodipodi:nodetypes="cssssccc"
         inkscape:connector-curvature="0"
         d="m -23.131978,98.400649 h -5.40401 c -1.068541,0 -1.763573,0.163 -1.922754,0.72813 -0.140623,0.49927 0.288312,0.944131 1.205853,0.954531 0.715384,0.008 0.890961,-0.528831 0.635836,-0.724141 -0.370075,-0.2833 0.108998,-0.4204 0.357315,-0.4204 h 5.1277 c 1.67554,0 1.6881,-0.53812 6e-5,-0.53812 z"
         style="fill:#a12c2c;fill-opacity:1;fill-rule:evenodd;stroke:none;stroke-width:0.26458332px;stroke-linecap:butt;stroke-linejoin:miter;stroke-opacity:1"
         id="path1116" />
    </g>
    <g
       id="g1290"
       transform="translate(-225.52707,132.51561)">
      <g
         aria-label="9"
         style="color:#000000;font-style:normal;font-variant:normal;font-weight:normal;font-stretch:normal;font-size:7.86491394px;line-height:125%;font-family:sans-serif;text-indent:0;text-align:start;text-decoration:none;text-decoration-line:none;text-decoration-style:solid;text-decoration-color:#000000;letter-spacing:0px;word-spacing:0px;text-transform:none;writing-mode:lr-tb;direction:ltr;baseline-shift:baseline;text-anchor:start;white-space:normal;clip-rule:nonzero;display:inline;overflow:visible;visibility:visible;opacity:1;isolation:auto;mix-blend-mode:normal;color-interpolation:sRGB;color-interpolation-filters:linearRGB;solid-color:#000000;solid-opacity:1;fill:#a12c2c;fill-opacity:1;fill-rule:nonzero;stroke:none;stroke-width:0.00238124px;stroke-linecap:butt;stroke-linejoin:miter;stroke-miterlimit:4;stroke-dasharray:none;stroke-dashoffset:0;stroke-opacity:1;color-rendering:auto;image-rendering:auto;shape-rendering:auto;text-rendering:auto;enable-background:accumulate"
         id="text1272">
        <path
           d="m -32.539811,54.594738 q 0.95952,0 1.415685,0.676383 0.456165,0.676382 0.330326,1.706686 -0.133703,1.101088 -0.747166,1.722416 -0.613464,0.621328 -1.572983,0.621328 -0.652788,0 -1.077493,-0.275272 -0.424706,-0.275272 -0.393246,-0.684247 0.01573,-0.306732 0.235947,-0.542679 0.228083,-0.235948 0.566274,-0.235948 0.180893,-0.0079 0.346056,0.04719 0.165163,0.04719 0.196623,0.08651 0.0079,0.05505 0.0079,0.08651 0,0.0236 -0.01573,0.102244 -0.01573,0.07865 -0.0236,0.133703 -0.06292,0.471895 0.283137,0.471895 0.456165,0 0.597734,-1.164007 -0.723572,0.235947 -1.211197,0.102244 -0.47976,-0.141569 -0.715707,-0.49549 -0.235948,-0.361786 -0.180893,-0.810086 0.04719,-0.369651 0.204488,-0.660653 0.165163,-0.291001 0.369651,-0.4483 0.212352,-0.165163 0.471894,-0.267407 0.267407,-0.102244 0.47976,-0.133703 0.220218,-0.03932 0.43257,-0.03932 z m 0.235948,2.037013 q 0.102244,-0.487625 0.01573,-0.802221 -0.07865,-0.314597 -0.369651,-0.306732 -0.235948,0.0079 -0.361786,0.235947 -0.117974,0.228083 -0.117974,0.416841 -0.05505,0.684247 0.833681,0.456165 z"
           style="font-style:normal;font-variant:normal;font-weight:normal;font-stretch:normal;font-family:'Appetite New';-inkscape-font-specification:'Appetite New';fill:#a12c2c;fill-opacity:1;stroke-width:0.00238124px"
           id="path1472" />
      </g>
      <g
         aria-label="7"
         style="color:#000000;font-style:normal;font-variant:normal;font-weight:normal;font-stretch:normal;font-size:7.86491394px;line-height:125%;font-family:sans-serif;text-indent:0;text-align:start;text-decoration:none;text-decoration-line:none;text-decoration-style:solid;text-decoration-color:#000000;letter-spacing:0px;word-spacing:0px;text-transform:none;writing-mode:lr-tb;direction:ltr;baseline-shift:baseline;text-anchor:start;white-space:normal;clip-rule:nonzero;display:inline;overflow:visible;visibility:visible;opacity:1;isolation:auto;mix-blend-mode:normal;color-interpolation:sRGB;color-interpolation-filters:linearRGB;solid-color:#000000;solid-opacity:1;fill:#a12c2c;fill-opacity:1;fill-rule:nonzero;stroke:none;stroke-width:0.00238124px;stroke-linecap:butt;stroke-linejoin:miter;stroke-miterlimit:4;stroke-dasharray:none;stroke-dashoffset:0;stroke-opacity:1;color-rendering:auto;image-rendering:auto;shape-rendering:auto;text-rendering:auto;enable-background:accumulate"
         id="text1276">
        <path
           d="m -30.792861,64.063244 q 0.03932,0 0.04719,0.03146 -0.0079,0.03932 -0.03146,0.251677 -0.01573,0.212353 -0.03146,0.322461 -0.01573,0.102244 -0.07865,0.267407 -0.05505,0.165164 -0.149433,0.267408 -0.09438,0.110108 -0.393246,0.322461 -0.291002,0.204488 -0.338191,0.243812 -0.314597,0.243813 -0.550544,0.597734 -0.228083,0.346056 -0.283137,0.739302 -0.03146,0.361786 0.04719,0.542679 0.06292,0.133703 0.157299,0.204488 0.102244,0.07078 0.149433,0.102243 0.05505,0.03146 0.03146,0.09438 -0.09438,0.196623 -0.401111,0.377516 -0.306731,0.180893 -0.621328,0.180893 -0.487625,0 -0.786491,-0.322461 -0.291002,-0.314597 -0.220218,-0.880871 0.117974,-1.038168 1.541523,-1.903309 h -0.0079 q 0.542679,-0.306731 0.637058,-0.338191 -1.164007,-0.07865 -2.453853,0.180893 -0.03146,0 -0.03932,-0.03146 -0.0236,-0.02359 -0.03932,-0.243812 -0.0079,-0.228083 0.125839,-0.558409 0.133703,-0.330326 0.464029,-0.495489 0.235948,-0.125839 0.582004,-0.125839 0.346056,-0.0079 0.715707,0.06292 0.377516,0.07078 0.873006,0.110109 0.503354,0.03933 1.053898,0 z"
           style="font-style:normal;font-variant:normal;font-weight:normal;font-stretch:normal;font-family:'Appetite New';-inkscape-font-specification:'Appetite New';fill:#a12c2c;fill-opacity:1;stroke-width:0.00238124px"
           id="path1469" />
      </g>
      <g
         aria-label="5"
         style="color:#000000;font-style:normal;font-variant:normal;font-weight:normal;font-stretch:normal;font-size:7.86491394px;line-height:125%;font-family:sans-serif;text-indent:0;text-align:start;text-decoration:none;text-decoration-line:none;text-decoration-style:solid;text-decoration-color:#000000;letter-spacing:0px;word-spacing:0px;text-transform:none;writing-mode:lr-tb;direction:ltr;baseline-shift:baseline;text-anchor:start;white-space:normal;clip-rule:nonzero;display:inline;overflow:visible;visibility:visible;opacity:1;isolation:auto;mix-blend-mode:normal;color-interpolation:sRGB;color-interpolation-filters:linearRGB;solid-color:#000000;solid-opacity:1;fill:#a12c2c;fill-opacity:1;fill-rule:nonzero;stroke:none;stroke-width:0.00238124px;stroke-linecap:butt;stroke-linejoin:miter;stroke-miterlimit:4;stroke-dasharray:none;stroke-dashoffset:0;stroke-opacity:1;color-rendering:auto;image-rendering:auto;shape-rendering:auto;text-rendering:auto;enable-background:accumulate"
         id="text1280">
        <path
           d="m -32.03811,76.554814 -1.297711,-0.251677 -0.07078,0.715707 q 1.148277,-0.212353 1.848255,0.173028 0.699977,0.385381 0.597733,1.219062 -0.04719,0.393245 -0.259542,0.684247 -0.212353,0.291002 -0.526949,0.4483 -0.306732,0.157299 -0.644923,0.228083 -0.330327,0.07865 -0.676383,0.07865 -0.267407,0 -0.542679,-0.05505 -0.275272,-0.04719 -0.558409,-0.157299 -0.283137,-0.102244 -0.4483,-0.322461 -0.157298,-0.212353 -0.125839,-0.49549 0.03932,-0.314596 0.267408,-0.519084 0.235947,-0.212353 0.566273,-0.212353 0.188758,0 0.361786,0.05506 0.180893,0.04719 0.196623,0.09438 0.01573,0.03146 -0.03146,0.361786 -0.03146,0.220217 0.07078,0.330326 0.102244,0.110109 0.291002,0.110109 0.188758,0 0.338191,-0.157298 0.149433,-0.165164 0.180893,-0.385381 0.03146,-0.291002 -0.09438,-0.456165 -0.117974,-0.173028 -0.534814,-0.259542 -0.408976,-0.09438 -1.195467,0.0079 h -0.04719 q -0.03146,0 -0.03146,-0.03933 l 0.04719,-0.377516 0.110109,-0.888735 q 0.09438,-0.802221 0.102244,-0.841546 0.03932,-0.259542 0.102244,-0.314597 0.06292,-0.06292 0.338191,-0.03932 0.117974,0.0079 0.550544,0.0079 0.440435,0 0.668518,-0.0079 0.558409,-0.01573 0.983114,-0.09438 0.43257,-0.07865 0.582004,-0.117974 0.149433,-0.04719 0.188758,-0.0079 0.110108,0.102244 0.125838,0.338192 0.03146,0.668517 -0.40111,0.951654 -0.424706,0.283137 -1.030304,0.196623 z"
           style="font-style:normal;font-variant:normal;font-weight:normal;font-stretch:normal;font-family:'Appetite New';-inkscape-font-specification:'Appetite New';fill:#a12c2c;fill-opacity:1;stroke-width:0.00238124px"
           id="path1466" />
      </g>
      <g
         aria-label="3"
         style="color:#000000;font-style:normal;font-variant:normal;font-weight:normal;font-stretch:normal;font-size:7.86491394px;line-height:125%;font-family:sans-serif;text-indent:0;text-align:start;text-decoration:none;text-decoration-line:none;text-decoration-style:solid;text-decoration-color:#000000;letter-spacing:0px;word-spacing:0px;text-transform:none;writing-mode:lr-tb;direction:ltr;baseline-shift:baseline;text-anchor:start;white-space:normal;clip-rule:nonzero;display:inline;overflow:visible;visibility:visible;opacity:1;isolation:auto;mix-blend-mode:normal;color-interpolation:sRGB;color-interpolation-filters:linearRGB;solid-color:#000000;solid-opacity:1;fill:#a12c2c;fill-opacity:1;fill-rule:nonzero;stroke:none;stroke-width:0.00238124px;stroke-linecap:butt;stroke-linejoin:miter;stroke-miterlimit:4;stroke-dasharray:none;stroke-dashoffset:0;stroke-opacity:1;color-rendering:auto;image-rendering:auto;shape-rendering:auto;text-rendering:auto;enable-background:accumulate"
         id="text1284">
        <path
           d="m -30.651033,86.077621 q -0.0079,0.04719 -0.03146,0.251678 -0.01573,0.196623 -0.03146,0.306731 -0.01573,0.110109 -0.07078,0.275272 -0.05505,0.165164 -0.133704,0.275272 -0.133703,0.188758 -0.43257,0.369651 -0.291002,0.173028 -0.519084,0.259542 l -0.228083,0.08651 -0.0079,0.0079 q 0.534815,0.07865 0.888736,0.401111 0.361786,0.314597 0.291001,0.849411 -0.06292,0.511219 -0.424705,0.84941 -0.361786,0.346057 -0.794356,0.46403 -0.43257,0.125839 -0.91233,0.125839 -1.612308,0 -1.643767,-0.967384 -0.01573,-0.314597 0.228082,-0.566274 0.251678,-0.259542 0.582004,-0.259542 0.4483,0 0.550544,0.204487 0.0079,0.01573 0,0.05505 -0.0079,0.03146 -0.02359,0.110109 -0.01573,0.07078 -0.0236,0.141568 -0.03146,0.220218 0.07865,0.346056 0.110108,0.125839 0.298866,0.125839 0.196623,0 0.353921,-0.157298 0.165164,-0.165164 0.188758,-0.385381 0.03146,-0.275272 -0.125838,-0.487625 Q -32.7431,88.53934 -33.20713,88.53934 h -0.267407 l -0.02359,-0.0236 v -0.01573 q 0.04719,-0.424705 0.07865,-0.629193 0,-0.03146 0.01573,-0.03146 1.337035,-0.660653 1.423549,-0.692112 -1.3449,-0.08651 -2.453853,0.133703 -0.03146,0.0079 -0.04719,-0.03146 -0.0079,-0.0079 -0.02359,-0.09438 -0.0079,-0.09438 0,-0.243813 0.01573,-0.149433 0.05505,-0.306731 0.04719,-0.165163 0.180893,-0.330327 0.133704,-0.173028 0.346056,-0.275272 0.235948,-0.125838 0.582004,-0.125838 0.346056,-0.0079 0.715707,0.06292 0.377516,0.07078 0.873005,0.110109 0.503355,0.03932 1.053899,0 0.03933,0 0.04719,0.03146 z"
           style="font-style:normal;font-variant:normal;font-weight:normal;font-stretch:normal;font-family:'Appetite New';-inkscape-font-specification:'Appetite New';fill:#a12c2c;fill-opacity:1;stroke-width:0.00238124px"
           id="path1463" />
      </g>
      <g
         aria-label="1"
         style="color:#000000;font-style:normal;font-variant:normal;font-weight:normal;font-stretch:normal;font-size:7.86491394px;line-height:125%;font-family:sans-serif;text-indent:0;text-align:start;text-decoration:none;text-decoration-line:none;text-decoration-style:solid;text-decoration-color:#000000;letter-spacing:0px;word-spacing:0px;text-transform:none;writing-mode:lr-tb;direction:ltr;baseline-shift:baseline;text-anchor:start;white-space:normal;clip-rule:nonzero;display:inline;overflow:visible;visibility:visible;opacity:1;isolation:auto;mix-blend-mode:normal;color-interpolation:sRGB;color-interpolation-filters:linearRGB;solid-color:#000000;solid-opacity:1;fill:#a12c2c;fill-opacity:1;fill-rule:nonzero;stroke:none;stroke-width:0.00238124px;stroke-linecap:butt;stroke-linejoin:miter;stroke-miterlimit:4;stroke-dasharray:none;stroke-dashoffset:0;stroke-opacity:1;color-rendering:auto;image-rendering:auto;shape-rendering:auto;text-rendering:auto;enable-background:accumulate"
         id="text1288">
        <path
           d="m -31.654284,97.141518 0.01573,0.03932 -0.495489,4.034698 q -0.0079,0.0315 -0.03932,0.0393 h -1.517928 l -0.0236,-0.0236 v -0.0157 q 0.330327,-2.689798 0.330327,-2.697662 0.03932,-0.251678 0.0079,-0.416841 -0.02359,-0.173028 -0.06292,-0.243812 -0.03146,-0.07078 -0.07865,-0.117974 -0.03933,-0.05505 -0.04719,-0.07078 -0.01573,-0.05506 0.03146,-0.09438 0.05506,-0.03933 0.173028,-0.06292 z"
           style="font-style:normal;font-variant:normal;font-weight:normal;font-stretch:normal;font-family:'Appetite New';-inkscape-font-specification:'Appetite New';fill:#a12c2c;fill-opacity:1;stroke-width:0.00238124px"
           id="path1460" />
      </g>
    </g>
  </g>
</svg>
