<?xml version="1.0" encoding="UTF-8" standalone="no"?>
<!-- Generator: Adobe Illustrator 23.1.0, SVG Export Plug-In . SVG Version: 6.00 Build 0)  -->

<svg
   xmlns:dc="http://purl.org/dc/elements/1.1/"
   xmlns:cc="http://creativecommons.org/ns#"
   xmlns:rdf="http://www.w3.org/1999/02/22-rdf-syntax-ns#"
   xmlns:svg="http://www.w3.org/2000/svg"
   xmlns="http://www.w3.org/2000/svg"
   xmlns:sodipodi="http://sodipodi.sourceforge.net/DTD/sodipodi-0.dtd"
   xmlns:inkscape="http://www.inkscape.org/namespaces/inkscape"
   version="1.1"
   id="_x33_"
   x="0px"
   y="0px"
   viewBox="0 0 245 245"
   xml:space="preserve"
   sodipodi:docname="sun.svg"
   width="245"
   height="245"
   inkscape:version="0.92.3 (2405546, 2018-03-11)"><metadata
   id="metadata29"><rdf:RDF><cc:Work
       rdf:about=""><dc:format>image/svg+xml</dc:format><dc:type
         rdf:resource="http://purl.org/dc/dcmitype/StillImage" /><dc:title></dc:title></cc:Work></rdf:RDF></metadata><defs
   id="defs27" /><sodipodi:namedview
   pagecolor="#ffffff"
   bordercolor="#666666"
   borderopacity="1"
   objecttolerance="10"
   gridtolerance="10"
   guidetolerance="10"
   inkscape:pageopacity="0"
   inkscape:pageshadow="2"
   inkscape:window-width="2560"
   inkscape:window-height="1031"
   id="namedview25"
   showgrid="false"
   fit-margin-top="1"
   fit-margin-left="1"
   fit-margin-right="1"
   fit-margin-bottom="1"
   inkscape:zoom="1.6857143"
   inkscape:cx="138.37689"
   inkscape:cy="85.075709"
   inkscape:window-x="0"
   inkscape:window-y="0"
   inkscape:window-maximized="1"
   inkscape:current-layer="_x33_" />
<style
   type="text/css"
   id="style2">
	.st0{fill:#FFF188;}
	.st1{fill:#FFCE00;}
</style>
<circle
   class="st0"
   cx="123.145"
   cy="122.72498"
   r="79.610001"
   id="circle4"
   style="fill:#fff188" />
<path
   class="st1"
   d="m 197.605,103.595 c -0.12,-3.41 -0.57,-6.800003 -1.33,-10.130003 -11.59,-29.54 -40.35,-50.46 -74.01,-50.46 l -0.04,3.81 c 4.74,-0.05 9.2,0.67 13.89,1.56 4.69,0.91 9.05,2.1 13.51,3.85 8.92,3.5 16.82,8.82 23.82,15.32 3.48,3.27 6.94,6.42 9.59,10.35 2.64,3.94 5.51,7.51 6.96,12 1.93,5.95 2.3,9.16 2.43,13.870003 0.04,1.18 0.02,2.35 -0.02,3.53 -0.06,1.13 -0.16,2.24 -0.36,3.35 -0.39,2.21 -1.09,4.37 -2.04,6.4 -1.93,4.04 -5,7.56 -8.76,9.73 -1.86,1.11 -3.91,1.83 -5.97,2.18 -2.07,0.34 -4.19,0.28 -6.22,-0.17 -2.02,-0.45 -3.94,-1.27 -5.61,-2.44 -1.68,-1.14 -3.1,-2.62 -4.14,-4.3 -1.06,-1.67 -1.71,-3.55 -1.91,-5.48 -0.06,-0.48 -0.08,-0.97 -0.08,-1.46 -0.01,-0.48 0.03,-0.92 0.09,-1.37 0.13,-0.9 0.39,-1.78 0.78,-2.61 0.77,-1.67 2.05,-3.17 3.65,-4.26 1.6,-1.1 3.51,-1.81 5.52,-2.04 0.5,-0.07 1.01,-0.09 1.51,-0.09 0.48,0 0.96,0.04 1.44,0.1 0.95,0.14 1.88,0.42 2.75,0.84 1.73,0.85 3.21,2.23 4.08,3.95 0.43,0.86 0.72,1.79 0.8,2.77 0.1,0.99 0,1.86 -0.3,2.78 -0.6,1.79 -2.12,3.37 -4.05,4.19 -0.96,0.42 -2.02,0.66 -3.11,0.7 -1.05,0.04 -2.12,-0.18 -3.11,-0.62 -0.5,-0.22 -0.98,-0.52 -1.41,-0.88 0.12,0.01 0.25,0.02 0.38,0.02 1.9,0 3.44,-1.54 3.44,-3.44 0,-1.9 -1.54,-3.44 -3.44,-3.44 -1.56,0 -2.87,1.04 -3.3,2.46 h -0.02 c -0.01,0.05 -0.01,0.1 -0.01,0.14 -0.07,0.27 -0.11,0.55 -0.11,0.84 0,0.38 0.06,0.75 0.18,1.09 0.12,0.63 0.31,1.25 0.6,1.83 0.61,1.22 1.56,2.29 2.72,3.07 1.16,0.79 2.54,1.27 3.96,1.43 1.39,0.15 2.82,0.05 4.21,-0.34 2.76,-0.77 5.31,-2.72 6.66,-5.5 0.69,-1.37 1.01,-2.99 1,-4.48 0.01,-1.51 -0.28,-3.02 -0.82,-4.44 -0.54,-1.42 -1.35,-2.74 -2.33,-3.89 -1,-1.15 -2.19,-2.11 -3.5,-2.88 -1.31,-0.76 -2.74,-1.330003 -4.22,-1.660003 -0.74,-0.16 -1.49,-0.28 -2.25,-0.34 -0.74,-0.05 -1.47,-0.07 -2.2,-0.03 -2.94,0.13 -5.88,1.020003 -8.46,2.580003 -2.56,1.58 -4.77,3.85 -6.19,6.64 -0.7,1.39 -1.21,2.89 -1.47,4.44 -0.13,0.77 -0.22,1.57 -0.23,2.32 -0.02,0.75 -0.01,1.51 0.07,2.26 0.28,3.01 1.32,5.93 2.92,8.44 1.61,2.51 3.76,4.62 6.22,6.21 2.47,1.57 5.23,2.63 8.08,3.12 2.84,0.49 5.76,0.42 8.56,-0.18 2.79,-0.61 5.43,-1.74 7.78,-3.24 4.7,-3.02 8.31,-7.39 10.57,-12.31 1.14,-2.46 1.96,-5.07 2.42,-7.74 0.23,-1.33 0.35,-2.7 0.41,-4.04 0.06,-1.31 0.06,-2.61 0.02,-3.91 z"
   id="path6"
   inkscape:connector-curvature="0"
   style="fill:#ffce00" />
<path
   class="st1"
   d="m 48.155,93.714997 c -0.72,3.24 -1.16,6.550003 -1.27,9.870003 -0.05,1.3 -0.04,2.6 0,3.9 0.06,1.34 0.18,2.71 0.41,4.04 0.46,2.67 1.28,5.28 2.42,7.74 2.27,4.92 5.87,9.29 10.57,12.31 2.35,1.5 4.99,2.63 7.78,3.24 2.8,0.6 5.72,0.66 8.56,0.18 2.84,-0.49 5.61,-1.55 8.08,-3.12 2.46,-1.58 4.61,-3.69 6.22,-6.21 1.6,-2.51 2.64,-5.43 2.92,-8.44 0.07,-0.75 0.09,-1.5 0.07,-2.26 -0.01,-0.75 -0.1,-1.56 -0.23,-2.32 -0.27,-1.55 -0.77,-3.05 -1.47,-4.44 -1.42,-2.78 -3.63,-5.06 -6.19,-6.64 -2.58,-1.56 -5.52,-2.450003 -8.46,-2.580003 -0.74,-0.04 -1.47,-0.02 -2.2,0.03 -0.76,0.05 -1.51,0.17 -2.25,0.34 -1.48,0.33 -2.91,0.900003 -4.22,1.660003 -1.3,0.77 -2.5,1.73 -3.5,2.88 -0.99,1.15 -1.8,2.46 -2.33,3.89 -0.54,1.42 -0.83,2.94 -0.82,4.44 -0.01,1.49 0.31,3.11 1,4.48 1.36,2.78 3.9,4.73 6.66,5.5 1.39,0.38 2.82,0.49 4.21,0.34 1.42,-0.16 2.8,-0.63 3.96,-1.43 1.16,-0.78 2.11,-1.85 2.72,-3.07 0.6,-1.23 0.83,-2.61 0.66,-3.91 h -0.1 c -0.42,-1.42 -1.74,-2.46 -3.3,-2.46 -1.9,0 -3.44,1.54 -3.44,3.44 0,1.9 1.54,3.44 3.44,3.44 0.16,0 0.32,-0.02 0.47,-0.04 -0.44,0.36 -0.92,0.67 -1.43,0.89 -0.99,0.45 -2.06,0.66 -3.11,0.62 -1.08,-0.04 -2.15,-0.28 -3.11,-0.7 -1.93,-0.81 -3.45,-2.39 -4.05,-4.19 -0.3,-0.91 -0.4,-1.79 -0.3,-2.78 0.09,-0.97 0.38,-1.91 0.8,-2.77 0.87,-1.72 2.35,-3.1 4.08,-3.95 0.87,-0.42 1.8,-0.71 2.75,-0.84 0.48,-0.07 0.96,-0.11 1.44,-0.1 0.5,0.01 1.01,0.03 1.51,0.09 2,0.22 3.91,0.94 5.52,2.04 1.61,1.1 2.88,2.59 3.65,4.26 0.39,0.83 0.66,1.71 0.78,2.61 0.07,0.46 0.1,0.89 0.09,1.37 0,0.49 -0.02,0.97 -0.08,1.46 -0.2,1.93 -0.85,3.81 -1.91,5.48 -1.04,1.68 -2.45,3.17 -4.14,4.3 -1.67,1.16 -3.59,1.99 -5.61,2.44 -2.03,0.45 -4.15,0.51 -6.22,0.17 -2.07,-0.35 -4.11,-1.07 -5.97,-2.18 -3.76,-2.18 -6.83,-5.69 -8.76,-9.73 -0.96,-2.03 -1.65,-4.19 -2.04,-6.4 -0.2,-1.11 -0.31,-2.22 -0.36,-3.35 -0.04,-1.18 -0.06,-2.36 -0.02,-3.53 0.14,-4.710003 0.29,-8.240003 2.43,-13.870003 1.68,-4.41 4.31,-7.99 6.95,-11.93 2.65,-3.94 6.47,-7.83 9.95,-11.1 7.01,-6.49 14.69,-11.18 23.6,-14.68 4.46,-1.75 9.05,-2.96 13.74,-3.88 4.69,-0.89 8.77,-1.56 13.51,-1.51 v -3.8 c -33.72,0.06 -62.54,21.1 -74.06,50.76 z"
   id="path8"
   inkscape:connector-curvature="0"
   style="fill:#ffce00" />
<path
   class="st1"
   d="m 109.675,23.794997 c 0.83,-0.58 1.88,-0.76 2.83,-0.56 0.95,0.19 1.87,0.79 2.32,1.71 0.23,0.45 0.31,0.97 0.3,1.45 -0.01,0.49 -0.14,1 -0.42,1.43 -0.27,0.43 -0.67,0.77 -1.12,0.99 -0.34,0.15 -0.72,0.26 -1.12,0.24 -0.01,0 -0.02,0 -0.03,0 -0.13,0 -0.25,-0.02 -0.36,-0.06 -0.01,0 -0.01,0 -0.02,0 -0.01,0 -0.01,-0.01 -0.01,-0.01 -0.48,-0.16 -0.83,-0.62 -0.83,-1.16 0,-0.68 0.55,-1.23 1.23,-1.23 0.64,0 1.16,0.49 1.21,1.11 0.11,-0.11 0.22,-0.23 0.3,-0.36 0.34,-0.56 0.33,-1.39 0.02,-1.97 -0.31,-0.6 -0.96,-1.01 -1.66,-1.13 -0.7,-0.12 -1.44,0.03 -1.99,0.44 -0.56,0.4 -0.89,1.06 -1.07,1.8 -0.18,0.73 -0.19,1.5 -0.01,2.23 0.33,1.47 1.41,2.69 2.8,3.13 0.69,0.23 1.45,0.28 2.21,0.2 0.77,-0.08 1.51,-0.29 2.16,-0.62 1.32,-0.68 2.32,-1.93 3.03,-3.34 0.72,-1.41 1.2,-2.98 1.53,-4.57 0.31,-1.48 0.49,-2.99 0.58,-4.51 -1.49,-0.46 -4.28,-1.65 -5.16,-4.27 -1.31,-3.87 5.02,-8.9600001 6.01,-13.6800001 0.03,-0.13999995 0.23,-0.13999995 0.26,0 0.99,4.72 7.32,9.8100001 6.01,13.6800001 -0.88,2.62 -3.67,3.8 -5.16,4.27 0.09,1.51 0.28,3.03 0.58,4.51 0.33,1.6 0.81,3.16 1.53,4.57 0.71,1.4 1.71,2.65 3.03,3.34 0.65,0.34 1.39,0.54 2.15,0.62 0.76,0.08 1.51,0.03 2.21,-0.2 1.4,-0.44 2.47,-1.67 2.8,-3.13 0.17,-0.73 0.17,-1.5 -0.01,-2.23 -0.19,-0.74 -0.51,-1.4 -1.07,-1.8 -0.55,-0.41 -1.29,-0.57 -1.99,-0.44 -0.7,0.12 -1.35,0.54 -1.66,1.13 -0.31,0.58 -0.32,1.42 0.02,1.97 0.09,0.15 0.21,0.29 0.34,0.41 0.03,-0.65 0.56,-1.17 1.22,-1.17 0.68,0 1.23,0.55 1.23,1.23 0,0.68 -0.55,1.23 -1.23,1.23 0,0 -0.01,0 -0.01,0 -0.43,0.03 -0.83,-0.07 -1.19,-0.23 -0.45,-0.21 -0.85,-0.56 -1.12,-0.99 -0.28,-0.43 -0.41,-0.94 -0.42,-1.43 -0.01,-0.48 0.07,-0.99 0.3,-1.45 0.45,-0.92 1.37,-1.52 2.32,-1.71 0.95,-0.2 2,-0.02 2.83,0.56 3.15,2.64 1.89,8.08 -1.91,9.35 -0.9,0.33 -1.87,0.41 -2.79,0.34 -0.91,-0.07 -1.83,-0.29 -2.7,-0.71 -1.72,-0.84 -2.96,-2.35 -3.8,-3.91 -0.75,-1.38 -1.26,-2.84 -1.64,-4.31 -0.39,1.47 -0.89,2.93 -1.64,4.31 -0.85,1.56 -2.08,3.07 -3.8,3.91 -0.86,0.42 -1.78,0.64 -2.7,0.71 -0.92,0.08 -1.88,-0.01 -2.79,-0.34 -3.82,-1.28 -5.07,-6.71 -1.93,-9.35 z M 135.945,213.285 c -0.64,-0.76 -1.49,-1.36 -2.43,-1.7 -0.94,-0.34 -1.94,-0.44 -2.89,-0.36 -0.48,0.04 -0.94,0.11 -1.4,0.23 -0.47,0.12 -0.94,0.28 -1.38,0.5 -1.79,0.87 -3.06,2.42 -3.93,4.01 -0.6,1.09 -1.04,2.23 -1.4,3.38 -0.36,-1.15 -0.8,-2.29 -1.4,-3.38 -0.87,-1.59 -2.14,-3.14 -3.93,-4.01 -0.44,-0.22 -0.91,-0.38 -1.38,-0.5 -0.47,-0.12 -0.92,-0.19 -1.4,-0.23 -0.95,-0.08 -1.95,0.02 -2.89,0.36 -0.94,0.34 -1.79,0.93 -2.43,1.7 -0.64,0.76 -1.06,1.68 -1.26,2.64 -0.2,0.95 -0.16,1.95 0.1,2.88 0.14,0.47 0.3,0.91 0.58,1.36 0.27,0.44 0.63,0.84 1.07,1.14 0.87,0.61 1.98,0.79 2.97,0.58 0.99,-0.21 1.95,-0.83 2.43,-1.81 0.24,-0.48 0.33,-1.02 0.31,-1.52 -0.01,-0.51 -0.16,-1.05 -0.45,-1.51 -0.29,-0.45 -0.71,-0.81 -1.19,-1.04 -0.39,-0.17 -0.81,-0.28 -1.28,-0.24 -0.1,0 -0.2,0.02 -0.29,0.04 -0.02,0 -0.04,0 -0.06,0.01 -0.02,0.01 -0.04,0.02 -0.06,0.03 -0.46,0.18 -0.79,0.62 -0.79,1.14 0,0.68 0.55,1.23 1.23,1.23 0.55,0 1.01,-0.36 1.17,-0.86 0.1,0.1 0.19,0.2 0.26,0.32 0.31,0.5 0.29,1.3 0,1.82 -0.29,0.55 -0.89,0.93 -1.55,1.04 -0.66,0.11 -1.35,-0.04 -1.85,-0.42 -0.51,-0.38 -0.81,-0.98 -0.99,-1.7 -0.17,-0.7 -0.17,-1.44 0,-2.13 0.32,-1.4 1.35,-2.55 2.67,-2.96 0.66,-0.21 1.38,-0.26 2.11,-0.18 0.36,0.04 0.74,0.11 1.09,0.22 0.34,0.1 0.67,0.22 0.98,0.39 1.25,0.66 2.21,1.86 2.91,3.24 0.7,1.38 1.16,2.93 1.48,4.51 0.3,1.49 0.48,3.02 0.56,4.54 -1.54,0.53 -4.03,1.72 -4.85,4.17 -1.31,3.87 5.02,8.96 6.01,13.68 0.03,0.14 0.23,0.14 0.26,0 0.99,-4.72 7.32,-9.81 6.01,-13.68 -0.83,-2.44 -3.31,-3.64 -4.85,-4.17 0.08,-1.53 0.26,-3.05 0.56,-4.54 0.32,-1.58 0.79,-3.13 1.48,-4.51 0.69,-1.38 1.65,-2.58 2.91,-3.24 0.31,-0.17 0.64,-0.29 0.98,-0.39 0.35,-0.1 0.72,-0.17 1.09,-0.22 0.73,-0.08 1.45,-0.04 2.11,0.18 1.32,0.41 2.35,1.56 2.67,2.96 0.17,0.69 0.17,1.43 0,2.13 -0.18,0.72 -0.48,1.32 -0.99,1.7 -0.5,0.38 -1.19,0.53 -1.85,0.42 -0.66,-0.11 -1.26,-0.49 -1.55,-1.04 -0.29,-0.53 -0.31,-1.32 0,-1.82 0.07,-0.12 0.16,-0.22 0.26,-0.32 0.16,0.5 0.62,0.86 1.17,0.86 0.68,0 1.23,-0.55 1.23,-1.23 0,-0.52 -0.33,-0.97 -0.79,-1.14 -0.02,-0.01 -0.04,-0.02 -0.06,-0.03 -0.02,-0.01 -0.04,0 -0.06,-0.01 -0.09,-0.02 -0.19,-0.04 -0.29,-0.04 -0.47,-0.04 -0.89,0.07 -1.28,0.24 -0.48,0.22 -0.89,0.58 -1.19,1.04 -0.29,0.45 -0.44,0.99 -0.45,1.51 -0.01,0.5 0.07,1.04 0.31,1.52 0.48,0.98 1.44,1.6 2.43,1.81 1,0.21 2.1,0.03 2.97,-0.58 0.44,-0.3 0.8,-0.7 1.07,-1.14 0.27,-0.45 0.44,-0.89 0.58,-1.36 0.26,-0.93 0.3,-1.93 0.1,-2.88 -0.22,-0.96 -0.64,-1.88 -1.28,-2.64 z m -30.68,6.5 c -0.52,-0.55 -1.2,-0.97 -2,-1.1 -0.64,-0.12 -1.36,0.05 -1.9,0.45 -0.28,0.16 -0.5,0.43 -0.59,0.76 -0.18,0.67 0.22,1.35 0.88,1.53 0.67,0.18 1.35,-0.22 1.53,-0.88 0.06,-0.21 0.05,-0.42 0,-0.61 0.4,0.13 0.79,0.4 1.07,0.74 0.67,0.78 0.76,1.9 0.25,2.71 -0.48,0.84 -1.5,1.41 -2.47,1.48 -0.98,0.09 -1.99,-0.33 -2.63,-1.02 -0.65,-0.69 -0.97,-1.74 -1.06,-2.87 -0.09,-1.13 0.01,-2.33 0.19,-3.53 0.37,-2.4 1.06,-4.8 1.76,-7.23 0,-0.01 0.01,-0.03 0.01,-0.05 0.17,-0.68 -0.25,-1.37 -0.92,-1.53 -0.08,-0.02 -0.17,-0.03 -0.25,-0.04 -0.42,-0.02 -0.82,0.18 -1.06,0.51 -0.1,0.13 -0.17,0.28 -0.22,0.45 -0.61,2.45 -1.22,4.88 -2.09,7.14 -0.44,1.13 -0.95,2.21 -1.6,3.15 -0.64,0.93 -1.44,1.68 -2.35,1.96 -0.9,0.28 -1.99,0.14 -2.79,-0.43 -0.81,-0.56 -1.4,-1.55 -1.4,-2.52 -0.03,-0.96 0.61,-1.88 1.58,-2.22 0.42,-0.15 0.89,-0.2 1.3,-0.11 -0.14,0.15 -0.25,0.32 -0.3,0.53 -0.18,0.67 0.22,1.35 0.88,1.53 0.67,0.18 1.35,-0.22 1.53,-0.88 0.09,-0.34 0.03,-0.68 -0.13,-0.96 -0.27,-0.61 -0.81,-1.13 -1.42,-1.34 -0.75,-0.29 -1.55,-0.26 -2.28,-0.05 -0.73,0.22 -1.41,0.65 -1.9,1.26 -0.5,0.61 -0.78,1.39 -0.83,2.18 -0.08,1.58 0.69,3.05 1.89,4.01 1.22,0.97 2.89,1.33 4.42,0.91 1.56,-0.43 2.71,-1.52 3.53,-2.63 0.11,-0.15 0.2,-0.3 0.31,-0.45 0.01,0.18 0.02,0.36 0.04,0.54 0.16,1.37 0.61,2.89 1.74,4.04 1.12,1.13 2.74,1.65 4.28,1.42 1.52,-0.24 2.92,-1.13 3.64,-2.53 0.36,-0.71 0.5,-1.52 0.37,-2.3 -0.11,-0.76 -0.49,-1.47 -1.01,-2.02 z m -10.34,5.65 c -1.07,-0.29 -2.18,0.35 -2.47,1.42 -0.29,1.07 0.35,2.18 1.42,2.47 1.07,0.29 2.18,-0.35 2.47,-1.42 0.29,-1.08 -0.35,-2.18 -1.42,-2.47 z m 44.96,-200.390003 c 0.5,0.53 1.15,0.93 1.9,1.06 0.6,0.12 1.26,-0.05 1.77,-0.41 0.13,-0.07 0.24,-0.17 0.34,-0.29 0,0 0.01,-0.01 0.01,-0.01 l 0.01,-0.01 c 0,0 0,0 0,-0.01 0.1,-0.13 0.18,-0.28 0.23,-0.45 0.18,-0.67 -0.22,-1.35 -0.88,-1.53 -0.67,-0.18 -1.35,0.22 -1.53,0.88 -0.08,0.3 -0.04,0.61 0.09,0.87 -0.45,-0.13 -0.87,-0.42 -1.18,-0.78 -0.72,-0.82 -0.84,-2.03 -0.3,-2.92 0.51,-0.91 1.57,-1.52 2.62,-1.62 1.05,-0.11 2.14,0.33 2.84,1.07 0.71,0.75 1.04,1.86 1.14,3.01 0.1,1.16 0,2.38 -0.17,3.59 -0.36,2.43 -1.05,4.84 -1.73,7.28 0,0.01 -0.01,0.02 -0.01,0.03 -0.03,0.13 -0.04,0.25 -0.02,0.38 0.06,0.37 0.32,0.68 0.71,0.78 0.13,0.03 0.25,0.04 0.38,0.02 0.24,-0.04 0.46,-0.17 0.61,-0.37 0.07,-0.1 0.13,-0.21 0.16,-0.34 0.62,-2.45 1.24,-4.88 2.14,-7.17 0.45,-1.14 0.98,-2.24 1.65,-3.2 0.67,-0.95 1.51,-1.74 2.5,-2.04 0.98,-0.3 2.14,-0.13 2.99,0.49 0.86,0.61 1.47,1.66 1.46,2.71 0.02,1.04 -0.69,2.03 -1.72,2.38 -0.47,0.17 -0.99,0.21 -1.45,0.08 0.25,-0.16 0.45,-0.41 0.54,-0.73 0.18,-0.67 -0.22,-1.35 -0.88,-1.53 -0.67,-0.18 -1.35,0.22 -1.53,0.88 -0.09,0.34 -0.03,0.69 0.14,0.97 0.26,0.57 0.75,1.04 1.33,1.24 0.71,0.27 1.48,0.24 2.17,0.03 0.7,-0.21 1.34,-0.63 1.81,-1.22 0.47,-0.59 0.74,-1.32 0.78,-2.07 0.07,-1.5 -0.68,-2.91 -1.82,-3.83 -1.16,-0.92 -2.76,-1.26 -4.22,-0.85 -1.48,0.41 -2.58,1.46 -3.38,2.54 -0.28,0.38 -0.52,0.76 -0.75,1.16 0,-0.46 -0.02,-0.92 -0.07,-1.38 -0.15,-1.34 -0.58,-2.8 -1.66,-3.89 -1.06,-1.08 -2.61,-1.59 -4.08,-1.37 -1.45,0.22 -2.8,1.06 -3.49,2.4 -0.34,0.67 -0.48,1.44 -0.37,2.18 0.07,0.77 0.42,1.46 0.92,1.99 z m 10.22,-5.54 c 1.07,0.29 2.18,-0.35 2.47,-1.42 0.29,-1.07 -0.35,-2.18 -1.42,-2.47 -1.07,-0.29 -2.18,0.35 -2.47,1.42 -0.29,1.08 0.34,2.18 1.42,2.47 z m -86.77,12.74 c 2.07,1.82 5.08,1.46 6.6,1.11 0.68,1.36 1.28,2.76 1.75,4.19 0.51,1.55 0.88,3.14 0.96,4.72 0.09,1.57 -0.16,3.16 -0.96,4.41 -0.39,0.62 -0.93,1.16 -1.55,1.62 -0.61,0.45 -1.29,0.78 -2.01,0.93 -1.43,0.32 -2.98,-0.21 -3.99,-1.31 -0.51,-0.54 -0.9,-1.21 -1.1,-1.93 -0.21,-0.73 -0.25,-1.47 0.03,-2.1 0.27,-0.63 0.83,-1.14 1.5,-1.38 0.67,-0.24 1.43,-0.21 2,0.15 0.56,0.35 0.99,1.07 0.97,1.72 0,0.16 -0.03,0.31 -0.07,0.47 -0.36,-0.51 -1.06,-0.68 -1.61,-0.36 -0.59,0.34 -0.79,1.09 -0.45,1.67 0.27,0.47 0.8,0.68 1.3,0.58 0.01,0 0.01,0 0.02,0 0.01,0 0.01,0 0.02,-0.01 0.12,-0.03 0.23,-0.07 0.34,-0.13 0.01,0 0.02,-0.01 0.02,-0.02 0.36,-0.19 0.63,-0.47 0.85,-0.77 0.28,-0.41 0.45,-0.91 0.48,-1.42 0.03,-0.51 -0.11,-1.02 -0.35,-1.45 -0.23,-0.42 -0.56,-0.83 -0.99,-1.1 -0.85,-0.57 -1.94,-0.63 -2.86,-0.32 -0.92,0.31 -1.75,0.98 -2.17,1.9 -1.41,3.86 2.4,7.94 6.33,7.14 0.95,-0.17 1.82,-0.57 2.58,-1.1 0.75,-0.52 1.44,-1.17 1.98,-1.96 1.07,-1.59 1.39,-3.51 1.34,-5.29 -0.04,-1.57 -0.33,-3.08 -0.73,-4.55 1.07,1.08 2.24,2.09 3.58,2.91 1.51,0.93 3.33,1.62 5.25,1.49 0.96,-0.07 1.86,-0.34 2.69,-0.73 0.84,-0.39 1.63,-0.95 2.25,-1.69 2.65,-3 1.02,-8.34 -3.02,-9.05 -1.01,-0.09 -2.01,0.28 -2.73,0.93 -0.72,0.64 -1.22,1.62 -1.15,2.64 0.03,0.51 0.21,1 0.46,1.41 0.25,0.42 0.63,0.8 1.08,1.03 0.45,0.24 0.97,0.33 1.46,0.29 0.39,-0.04 0.79,-0.15 1.15,-0.39 0,0 0.01,0 0.01,0 0.59,-0.34 0.79,-1.09 0.45,-1.67 -0.34,-0.59 -1.09,-0.79 -1.67,-0.45 -0.57,0.33 -0.77,1.04 -0.47,1.62 -0.18,-0.04 -0.34,-0.1 -0.5,-0.18 -0.58,-0.31 -0.98,-1.04 -1,-1.7 -0.03,-0.68 0.32,-1.36 0.87,-1.81 0.54,-0.46 1.26,-0.7 1.94,-0.61 0.69,0.07 1.3,0.47 1.83,1.02 0.52,0.54 0.91,1.2 1.12,1.92 0.45,1.43 0.13,3.04 -0.86,4.11 -0.49,0.55 -1.11,0.97 -1.81,1.28 -0.7,0.31 -1.45,0.51 -2.18,0.54 -1.48,0.07 -2.98,-0.51 -4.29,-1.37 -1.33,-0.86 -2.52,-1.98 -3.61,-3.2 -1,-1.13 -1.92,-2.34 -2.76,-3.61 1.06,-1.15 2.88,-3.57 2.34,-6.28 -0.8,-4 -8.83,-5.25 -12.04,-8.84 -0.1,-0.11 -0.27,-0.01 -0.22,0.13 1.47,4.58 -1.47,12.15 1.6,14.85 z M 179.145,200.325 c 0.59,-0.34 0.79,-1.09 0.45,-1.67 -0.26,-0.45 -0.77,-0.67 -1.25,-0.59 -0.02,0 -0.04,0 -0.06,0 -0.02,0.01 -0.04,0.02 -0.06,0.02 -0.09,0.02 -0.18,0.06 -0.27,0.11 -0.43,0.2 -0.74,0.5 -0.99,0.85 -0.3,0.43 -0.48,0.95 -0.51,1.49 -0.03,0.54 0.12,1.08 0.36,1.53 0.24,0.44 0.58,0.87 1.03,1.16 0.9,0.61 2.05,0.67 3.01,0.35 0.97,-0.32 1.83,-1.02 2.28,-1.99 0.23,-0.48 0.34,-1 0.36,-1.52 0.01,-0.53 -0.06,-0.99 -0.18,-1.46 -0.24,-0.94 -0.7,-1.82 -1.35,-2.55 -0.64,-0.73 -1.47,-1.32 -2.41,-1.66 -0.93,-0.34 -1.97,-0.43 -2.95,-0.25 -0.98,0.17 -1.89,0.59 -2.68,1.13 -0.4,0.27 -0.76,0.56 -1.1,0.9 -0.35,0.34 -0.68,0.71 -0.95,1.12 -1.12,1.65 -1.44,3.63 -1.4,5.43 0.03,1.24 0.21,2.45 0.48,3.63 -0.89,-0.82 -1.84,-1.58 -2.9,-2.23 -1.54,-0.94 -3.42,-1.65 -5.41,-1.5 -0.49,0.03 -0.98,0.13 -1.45,0.26 -0.46,0.13 -0.89,0.3 -1.33,0.51 -0.86,0.41 -1.68,0.99 -2.32,1.75 -0.64,0.76 -1.08,1.7 -1.26,2.68 -0.17,0.98 -0.08,1.99 0.23,2.91 0.31,0.92 0.83,1.77 1.53,2.44 0.35,0.34 0.72,0.63 1.18,0.89 0.45,0.24 0.97,0.41 1.49,0.45 1.06,0.09 2.11,-0.3 2.86,-0.98 0.76,-0.67 1.27,-1.7 1.2,-2.78 -0.03,-0.54 -0.23,-1.05 -0.49,-1.48 -0.27,-0.44 -0.66,-0.84 -1.14,-1.08 -0.48,-0.25 -1.02,-0.35 -1.55,-0.31 -0.42,0.05 -0.84,0.16 -1.23,0.43 -0.09,0.05 -0.16,0.11 -0.23,0.18 -0.02,0.01 -0.03,0.02 -0.05,0.04 -0.02,0.02 -0.02,0.04 -0.04,0.05 -0.31,0.38 -0.37,0.93 -0.11,1.38 0.34,0.59 1.09,0.79 1.67,0.45 0.48,-0.27 0.69,-0.82 0.58,-1.33 0.13,0.04 0.26,0.08 0.38,0.15 0.52,0.28 0.9,0.98 0.92,1.58 0.02,0.62 -0.31,1.25 -0.82,1.67 -0.51,0.43 -1.19,0.64 -1.81,0.56 -0.63,-0.07 -1.2,-0.44 -1.71,-0.98 -0.5,-0.52 -0.87,-1.16 -1.07,-1.85 -0.42,-1.38 -0.11,-2.89 0.83,-3.9 0.46,-0.51 1.06,-0.92 1.74,-1.21 0.33,-0.15 0.7,-0.27 1.05,-0.36 0.34,-0.08 0.69,-0.14 1.05,-0.15 1.41,-0.06 2.85,0.5 4.14,1.35 1.29,0.85 2.47,1.96 3.54,3.16 1.01,1.14 1.92,2.37 2.76,3.65 -1.07,1.23 -2.63,3.51 -2.12,6.04 0.8,4 8.83,5.25 12.04,8.84 0.1,0.11 0.27,0.01 0.22,-0.13 -1.51,-4.58 1.43,-12.15 -1.64,-14.85 -1.94,-1.7 -4.69,-1.5 -6.29,-1.18 -0.69,-1.36 -1.3,-2.78 -1.79,-4.21 -0.51,-1.53 -0.88,-3.1 -0.97,-4.65 -0.09,-1.54 0.14,-3.06 0.9,-4.26 0.18,-0.3 0.41,-0.58 0.65,-0.83 0.25,-0.26 0.54,-0.51 0.83,-0.73 0.59,-0.44 1.24,-0.76 1.92,-0.9 1.35,-0.31 2.82,0.18 3.8,1.23 0.49,0.52 0.87,1.16 1.06,1.85 0.21,0.71 0.25,1.39 -0.01,1.97 -0.24,0.58 -0.77,1.06 -1.39,1.29 -0.62,0.23 -1.34,0.2 -1.86,-0.13 -0.51,-0.31 -0.92,-0.99 -0.91,-1.58 0,-0.13 0.03,-0.27 0.06,-0.4 0.4,0.39 0.98,0.48 1.46,0.2 z m -22.91,15.04 c -0.73,-0.21 -1.52,-0.24 -2.28,0.05 -0.61,0.21 -1.15,0.73 -1.42,1.34 -0.16,0.28 -0.22,0.62 -0.13,0.96 0.18,0.67 0.87,1.06 1.53,0.88 0.67,-0.18 1.06,-0.86 0.88,-1.53 -0.06,-0.21 -0.16,-0.39 -0.3,-0.53 0.41,-0.09 0.88,-0.05 1.3,0.11 0.97,0.34 1.61,1.26 1.58,2.22 0,0.97 -0.59,1.96 -1.4,2.52 -0.8,0.57 -1.89,0.71 -2.79,0.43 -0.91,-0.28 -1.71,-1.02 -2.35,-1.96 -0.65,-0.93 -1.16,-2.02 -1.6,-3.15 -0.88,-2.27 -1.48,-4.69 -2.09,-7.14 0,-0.01 -0.01,-0.03 -0.01,-0.05 -0.05,-0.17 -0.13,-0.32 -0.23,-0.45 -0.31,-0.38 -0.83,-0.57 -1.33,-0.42 -0.67,0.19 -1.06,0.9 -0.87,1.57 0.7,2.43 1.39,4.83 1.76,7.23 0.18,1.2 0.28,2.39 0.19,3.53 -0.09,1.13 -0.41,2.17 -1.06,2.87 -0.64,0.69 -1.65,1.12 -2.63,1.02 -0.98,-0.08 -1.99,-0.64 -2.47,-1.48 -0.51,-0.82 -0.42,-1.94 0.25,-2.71 0.29,-0.34 0.67,-0.61 1.07,-0.74 -0.05,0.2 -0.05,0.4 0,0.61 0.18,0.67 0.86,1.06 1.53,0.88 0.67,-0.18 1.06,-0.86 0.88,-1.53 -0.09,-0.34 -0.31,-0.6 -0.59,-0.76 -0.54,-0.4 -1.26,-0.57 -1.9,-0.45 -0.8,0.13 -1.47,0.55 -2,1.1 -0.52,0.55 -0.9,1.27 -1.02,2.05 -0.13,0.78 0.02,1.59 0.37,2.3 0.72,1.41 2.12,2.3 3.64,2.53 1.54,0.23 3.17,-0.29 4.28,-1.42 1.14,-1.15 1.58,-2.67 1.74,-4.04 0.02,-0.18 0.03,-0.36 0.04,-0.54 0.1,0.15 0.2,0.3 0.31,0.45 0.82,1.1 1.97,2.2 3.53,2.63 1.53,0.42 3.2,0.06 4.42,-0.91 1.2,-0.96 1.97,-2.43 1.89,-4.01 -0.05,-0.79 -0.33,-1.56 -0.83,-2.18 -0.48,-0.63 -1.16,-1.06 -1.89,-1.28 z m -6.13,10.07 c -1.07,0.29 -1.71,1.39 -1.42,2.47 0.29,1.07 1.39,1.71 2.47,1.42 1.07,-0.29 1.71,-1.39 1.42,-2.47 -0.29,-1.07 -1.4,-1.71 -2.47,-1.42 z M 88.845,29.414997 c 0.7,0.21 1.46,0.24 2.17,-0.03 0.64,-0.22 1.19,-0.77 1.41,-1.42 0.02,-0.06 0.04,-0.13 0.06,-0.2 0,-0.02 0.01,-0.03 0.01,-0.05 v -0.01 c 0,0 0,0 0,-0.01 0.02,-0.16 0.02,-0.33 -0.03,-0.5 -0.18,-0.67 -0.87,-1.06 -1.53,-0.88 -0.67,0.18 -1.06,0.87 -0.88,1.53 0.08,0.3 0.27,0.55 0.52,0.71 -0.45,0.11 -0.96,0.07 -1.42,-0.09 -1.03,-0.35 -1.74,-1.33 -1.72,-2.38 -0.01,-1.05 0.61,-2.1 1.46,-2.71 0.85,-0.62 2.01,-0.78 2.99,-0.49 0.99,0.3 1.83,1.09 2.5,2.04 0.67,0.96 1.19,2.06 1.65,3.2 0.9,2.29 1.51,4.72 2.14,7.17 0,0.01 0.01,0.02 0.01,0.03 0.14,0.5 0.67,0.8 1.17,0.65 0.5,-0.14 0.8,-0.67 0.65,-1.17 -0.69,-2.43 -1.37,-4.85 -1.73,-7.28 -0.18,-1.21 -0.27,-2.43 -0.17,-3.59 0.1,-1.16 0.44,-2.26 1.14,-3.01 0.7,-0.75 1.79,-1.19 2.84,-1.07 1.05,0.1 2.11,0.7 2.62,1.62 0.54,0.89 0.42,2.1 -0.3,2.92 -0.32,0.38 -0.76,0.67 -1.22,0.8 0.14,-0.27 0.19,-0.58 0.1,-0.9 -0.18,-0.67 -0.86,-1.06 -1.53,-0.88 -0.67,0.18 -1.06,0.86 -0.88,1.53 0.08,0.29 0.26,0.53 0.48,0.69 0.51,0.43 1.25,0.62 1.89,0.49 0.75,-0.12 1.4,-0.53 1.9,-1.06 0.5,-0.53 0.85,-1.22 0.96,-1.96 0.12,-0.74 -0.02,-1.51 -0.37,-2.18 -0.69,-1.34 -2.04,-2.19 -3.49,-2.4 -1.47,-0.22 -3.02,0.29 -4.08,1.37 -1.07,1.09 -1.5,2.56 -1.66,3.89 -0.05,0.46 -0.07,0.92 -0.07,1.38 -0.23,-0.39 -0.48,-0.78 -0.75,-1.16 -0.8,-1.08 -1.91,-2.13 -3.38,-2.54 -1.45,-0.4 -3.05,-0.07 -4.22,0.85 -1.15,0.91 -1.9,2.32 -1.82,3.83 0.04,0.75 0.3,1.49 0.78,2.07 0.46,0.57 1.1,0.99 1.8,1.2 z m 6.08,-9.91 c 1.07,-0.29 1.71,-1.39 1.42,-2.47 -0.29,-1.07 -1.39,-1.71 -2.47,-1.42 -1.07,0.29 -1.71,1.39 -1.42,2.47 0.29,1.07 1.39,1.71 2.47,1.42 z m -68.77,54.41 c 2.71,0.54 5.13,-1.28 6.28,-2.34 1.27,0.84 2.48,1.75 3.61,2.76 1.22,1.09 2.33,2.28 3.2,3.61 0.86,1.32 1.44,2.81 1.37,4.29 -0.03,0.73 -0.22,1.47 -0.54,2.18 -0.31,0.7 -0.73,1.32 -1.28,1.81 -1.08,0.99 -2.68,1.31 -4.11,0.86 -0.72,-0.21 -1.38,-0.6 -1.92,-1.12 -0.55,-0.53 -0.95,-1.14 -1.02,-1.83 -0.08,-0.68 0.15,-1.4 0.61,-1.94 0.46,-0.54 1.14,-0.9 1.81,-0.87 0.66,0.02 1.39,0.43 1.7,1 0.08,0.14 0.13,0.29 0.17,0.44 -0.57,-0.26 -1.25,-0.06 -1.57,0.49 -0.34,0.59 -0.14,1.34 0.45,1.67 0.47,0.27 1.03,0.19 1.42,-0.14 0,0 0.01,-0.01 0.01,-0.01 0,0 0.01,-0.01 0.01,-0.01 0.09,-0.08 0.17,-0.17 0.23,-0.28 0,-0.01 0.01,-0.02 0.01,-0.03 0.22,-0.34 0.31,-0.72 0.35,-1.09 0.04,-0.5 -0.06,-1.01 -0.29,-1.46 -0.23,-0.45 -0.61,-0.83 -1.03,-1.08 -0.41,-0.25 -0.9,-0.44 -1.41,-0.46 -1.03,-0.07 -2,0.43 -2.64,1.15 -0.65,0.73 -1.02,1.73 -0.93,2.73 0.71,4.05 6.05,5.68 9.05,3.02 0.73,-0.62 1.29,-1.41 1.69,-2.25 0.39,-0.83 0.66,-1.73 0.73,-2.69 0.14,-1.91 -0.56,-3.74 -1.49,-5.25 -0.82,-1.34 -1.83,-2.51 -2.91,-3.58 1.47,0.4 2.99,0.69 4.55,0.73 1.77,0.05 3.7,-0.26 5.29,-1.34 0.79,-0.54 1.45,-1.23 1.96,-1.98 0.53,-0.76 0.93,-1.64 1.1,-2.58 0.8,-3.92 -3.28,-7.73 -7.14,-6.33 -0.92,0.42 -1.6,1.25 -1.9,2.17 -0.31,0.92 -0.25,2.01 0.32,2.86 0.28,0.43 0.68,0.76 1.1,0.99 0.43,0.24 0.94,0.38 1.45,0.35 0.51,-0.02 1,-0.19 1.42,-0.48 0.32,-0.23 0.61,-0.52 0.8,-0.92 0,0 0,0 0.01,-0.01 0.34,-0.59 0.14,-1.34 -0.45,-1.67 -0.59,-0.34 -1.34,-0.14 -1.67,0.45 -0.33,0.57 -0.15,1.29 0.4,1.64 -0.17,0.06 -0.35,0.09 -0.52,0.09 -0.65,0.02 -1.37,-0.41 -1.72,-0.97 -0.36,-0.57 -0.4,-1.34 -0.15,-2 0.24,-0.67 0.75,-1.23 1.38,-1.5 0.63,-0.28 1.36,-0.24 2.1,-0.03 0.72,0.2 1.39,0.59 1.93,1.1 1.11,1.01 1.63,2.56 1.31,3.99 -0.15,0.72 -0.48,1.4 -0.93,2.01 -0.45,0.62 -1,1.16 -1.62,1.55 -1.25,0.8 -2.83,1.04 -4.41,0.96 -1.58,-0.08 -3.18,-0.45 -4.72,-0.96 -1.43,-0.47 -2.84,-1.07 -4.19,-1.75 0.35,-1.53 0.71,-4.53 -1.11,-6.6 -2.7,-3.07 -10.27,-0.13 -14.85,-1.64 -0.14,-0.05 -0.24,0.12 -0.13,0.22 3.58,3.25 4.82,11.27 8.83,12.07 z M 218.875,171.015 c -2.53,-0.51 -4.81,1.05 -6.04,2.12 -1.28,-0.83 -2.52,-1.75 -3.65,-2.76 -1.21,-1.07 -2.31,-2.24 -3.16,-3.54 -0.85,-1.29 -1.41,-2.72 -1.35,-4.14 0.01,-0.35 0.06,-0.7 0.15,-1.05 0.09,-0.35 0.21,-0.71 0.36,-1.05 0.29,-0.67 0.69,-1.27 1.21,-1.74 1.02,-0.94 2.53,-1.26 3.9,-0.83 0.69,0.2 1.33,0.57 1.85,1.07 0.53,0.51 0.91,1.08 0.98,1.71 0.08,0.63 -0.13,1.3 -0.56,1.81 -0.43,0.51 -1.06,0.84 -1.67,0.82 -0.6,-0.01 -1.3,-0.4 -1.58,-0.92 -0.07,-0.12 -0.11,-0.25 -0.15,-0.38 0.51,0.11 1.06,-0.1 1.33,-0.58 0.34,-0.59 0.14,-1.34 -0.45,-1.67 -0.45,-0.26 -1,-0.2 -1.38,0.11 -0.02,0.01 -0.04,0.02 -0.05,0.04 -0.02,0.02 -0.02,0.03 -0.04,0.05 -0.07,0.07 -0.13,0.14 -0.18,0.23 -0.27,0.39 -0.39,0.81 -0.43,1.23 -0.04,0.52 0.06,1.07 0.31,1.55 0.25,0.48 0.64,0.88 1.08,1.14 0.43,0.26 0.94,0.46 1.48,0.49 1.08,0.08 2.11,-0.44 2.78,-1.2 0.68,-0.76 1.08,-1.8 0.98,-2.86 -0.04,-0.53 -0.21,-1.04 -0.45,-1.49 -0.25,-0.46 -0.55,-0.82 -0.89,-1.18 -0.68,-0.7 -1.52,-1.22 -2.44,-1.53 -0.92,-0.31 -1.93,-0.41 -2.91,-0.23 -0.98,0.17 -1.92,0.61 -2.68,1.26 -0.76,0.64 -1.34,1.46 -1.75,2.32 -0.21,0.43 -0.37,0.87 -0.51,1.33 -0.13,0.47 -0.23,0.96 -0.26,1.45 -0.15,1.98 0.56,3.86 1.5,5.41 0.65,1.06 1.41,2.02 2.23,2.9 -1.18,-0.27 -2.39,-0.45 -3.63,-0.48 -1.81,-0.04 -3.79,0.28 -5.43,1.4 -0.41,0.27 -0.78,0.6 -1.12,0.95 -0.33,0.35 -0.63,0.71 -0.9,1.1 -0.54,0.78 -0.96,1.69 -1.13,2.68 -0.18,0.98 -0.09,2.02 0.25,2.95 0.34,0.94 0.93,1.76 1.66,2.41 0.73,0.65 1.61,1.11 2.55,1.35 0.48,0.12 0.94,0.19 1.46,0.18 0.52,-0.02 1.04,-0.13 1.52,-0.36 0.97,-0.45 1.67,-1.32 1.99,-2.28 0.32,-0.96 0.26,-2.11 -0.35,-3.01 -0.29,-0.45 -0.72,-0.8 -1.16,-1.03 -0.45,-0.25 -0.99,-0.39 -1.53,-0.36 -0.54,0.03 -1.06,0.21 -1.49,0.51 -0.34,0.25 -0.65,0.56 -0.85,0.99 -0.05,0.09 -0.08,0.18 -0.11,0.27 -0.01,0.02 -0.02,0.04 -0.02,0.06 -0.01,0.02 0,0.04 -0.01,0.07 -0.08,0.49 0.14,0.99 0.59,1.25 0.59,0.34 1.34,0.14 1.67,-0.45 0.27,-0.48 0.19,-1.06 -0.17,-1.44 0.13,-0.04 0.27,-0.06 0.4,-0.06 0.59,-0.02 1.27,0.39 1.58,0.91 0.33,0.52 0.36,1.23 0.13,1.86 -0.23,0.63 -0.71,1.15 -1.29,1.39 -0.58,0.25 -1.26,0.21 -1.97,0.01 -0.69,-0.2 -1.33,-0.57 -1.85,-1.06 -1.05,-0.98 -1.54,-2.45 -1.23,-3.8 0.14,-0.68 0.46,-1.33 0.9,-1.92 0.22,-0.29 0.47,-0.58 0.73,-0.83 0.26,-0.24 0.53,-0.47 0.83,-0.65 1.19,-0.76 2.72,-0.99 4.26,-0.9 1.55,0.09 3.12,0.46 4.65,0.97 1.44,0.48 2.85,1.09 4.21,1.79 -0.32,1.6 -0.52,4.35 1.18,6.29 2.7,3.07 10.27,0.13 14.85,1.64 0.14,0.05 0.24,-0.12 0.13,-0.22 -3.62,-3.24 -4.86,-11.26 -8.86,-12.07 z m -18.43,15.19 c -0.74,-0.29 -1.54,-0.32 -2.28,-0.14 -0.74,0.18 -1.44,0.56 -1.95,1.18 -0.43,0.49 -0.63,1.21 -0.56,1.87 0,0.32 0.12,0.65 0.37,0.89 0.49,0.49 1.28,0.49 1.77,0 0.49,-0.49 0.49,-1.28 0,-1.77 -0.15,-0.15 -0.34,-0.25 -0.53,-0.31 0.31,-0.29 0.74,-0.48 1.18,-0.56 1.01,-0.19 2.02,0.29 2.48,1.14 0.49,0.84 0.47,2 0.05,2.88 -0.41,0.89 -1.28,1.56 -2.2,1.77 -0.93,0.21 -1.99,-0.03 -3.01,-0.52 -1.03,-0.49 -2.01,-1.17 -2.96,-1.92 -1.89,-1.52 -3.63,-3.32 -5.38,-5.14 -0.01,-0.01 -0.02,-0.02 -0.03,-0.03 -0.5,-0.49 -1.3,-0.47 -1.79,0.03 -0.49,0.5 -0.47,1.3 0.03,1.79 1.82,1.76 3.61,3.49 5.14,5.38 0.75,0.95 1.44,1.93 1.92,2.96 0.48,1.02 0.73,2.09 0.52,3.01 -0.21,0.92 -0.87,1.8 -1.77,2.2 -0.89,0.42 -2.04,0.44 -2.88,-0.05 -0.85,-0.45 -1.33,-1.47 -1.14,-2.48 0.08,-0.44 0.27,-0.87 0.56,-1.18 0.06,0.19 0.16,0.38 0.31,0.53 0.49,0.49 1.28,0.49 1.77,0 0.49,-0.49 0.49,-1.28 0,-1.77 -0.25,-0.25 -0.57,-0.37 -0.89,-0.37 -0.66,-0.07 -1.38,0.13 -1.87,0.56 -0.63,0.51 -1,1.21 -1.18,1.95 -0.18,0.74 -0.14,1.54 0.14,2.28 0.28,0.74 0.81,1.37 1.47,1.81 1.33,0.86 2.99,0.93 4.42,0.37 1.45,-0.57 2.6,-1.83 3,-3.37 0.41,-1.56 0.03,-3.1 -0.51,-4.37 -0.07,-0.17 -0.16,-0.33 -0.23,-0.49 0.16,0.08 0.32,0.16 0.49,0.23 1.27,0.54 2.81,0.92 4.37,0.51 1.54,-0.4 2.8,-1.55 3.37,-3 0.55,-1.43 0.49,-3.09 -0.37,-4.42 -0.46,-0.64 -1.09,-1.17 -1.83,-1.45 z m -2.56,11.64 c -0.79,0.79 -0.79,2.06 0,2.85 0.79,0.79 2.06,0.79 2.85,0 0.79,-0.79 0.79,-2.06 0,-2.85 -0.79,-0.79 -2.06,-0.79 -2.85,0 z M 59.185,57.794997 c -1.81,-1.77 -3.61,-3.51 -5.14,-5.43 -0.76,-0.96 -1.45,-1.97 -1.94,-3.02 -0.49,-1.05 -0.75,-2.18 -0.52,-3.18 0.23,-1 0.96,-1.92 1.92,-2.35 0.95,-0.44 2.18,-0.44 3.08,0.09 0.91,0.5 1.41,1.61 1.2,2.68 -0.09,0.49 -0.32,0.96 -0.66,1.3 -0.01,-0.3 -0.13,-0.6 -0.36,-0.83 -0.49,-0.49 -1.28,-0.49 -1.77,0 -0.49,0.49 -0.49,1.28 0,1.77 0.21,0.21 0.48,0.33 0.76,0.35 0.66,0.11 1.39,-0.09 1.89,-0.52 0.59,-0.48 0.95,-1.16 1.12,-1.87 0.17,-0.71 0.13,-1.48 -0.15,-2.18 -0.27,-0.7 -0.78,-1.3 -1.41,-1.71 -1.27,-0.81 -2.86,-0.87 -4.23,-0.33 -1.38,0.55 -2.47,1.76 -2.84,3.23 -0.39,1.48 -0.03,2.97 0.51,4.2 0.19,0.43 0.4,0.83 0.63,1.23 -0.4,-0.22 -0.8,-0.44 -1.23,-0.63 -1.24,-0.53 -2.72,-0.9 -4.2,-0.51 -1.46,0.38 -2.68,1.46 -3.23,2.84 -0.54,1.36 -0.48,2.96 0.33,4.23 0.41,0.63 1.01,1.14 1.71,1.41 0.7,0.27 1.47,0.31 2.18,0.15 0.71,-0.17 1.38,-0.53 1.87,-1.12 0.44,-0.51 0.64,-1.27 0.51,-1.94 -0.01,-0.07 -0.03,-0.13 -0.05,-0.2 0,-0.02 -0.01,-0.03 -0.01,-0.05 v -0.01 c 0,0 0,0 0,-0.01 -0.06,-0.15 -0.15,-0.3 -0.28,-0.42 -0.49,-0.49 -1.28,-0.49 -1.77,0 -0.49,0.49 -0.49,1.28 0,1.77 0.22,0.22 0.51,0.34 0.8,0.36 -0.33,0.32 -0.79,0.54 -1.27,0.63 -1.07,0.22 -2.17,-0.28 -2.68,-1.2 -0.53,-0.9 -0.53,-2.12 -0.09,-3.08 0.43,-0.96 1.35,-1.69 2.35,-1.92 1,-0.24 2.13,0.02 3.18,0.52 1.06,0.49 2.06,1.19 3.02,1.94 1.92,1.53 3.67,3.33 5.43,5.14 0,0 0.01,0.01 0.02,0.02 0.38,0.37 0.98,0.36 1.34,-0.02 0.09,-0.09 0.16,-0.2 0.2,-0.32 0.09,-0.23 0.09,-0.49 -0.01,-0.71 -0.05,-0.1 -0.12,-0.21 -0.21,-0.3 z m -12.05,-10.7 c 0.79,-0.79 0.79,-2.06 0,-2.85 -0.79,-0.79 -2.06,-0.79 -2.85,0 -0.79,0.79 -0.79,2.06 0,2.85 0.79,0.79 2.07,0.79 2.85,0 z M 19.055,123.445 c 1.51,0.09 3.03,0.28 4.51,0.58 1.6,0.33 3.16,0.81 4.57,1.53 1.4,0.71 2.65,1.71 3.34,3.03 0.34,0.65 0.54,1.39 0.62,2.15 0.08,0.76 0.03,1.51 -0.2,2.21 -0.44,1.4 -1.67,2.47 -3.13,2.8 -0.73,0.17 -1.5,0.17 -2.23,-0.01 -0.74,-0.19 -1.4,-0.51 -1.8,-1.07 -0.41,-0.55 -0.57,-1.29 -0.44,-1.99 0.12,-0.7 0.54,-1.35 1.13,-1.66 0.58,-0.31 1.42,-0.32 1.97,0.02 0.13,0.08 0.25,0.18 0.36,0.3 -0.62,0.06 -1.11,0.58 -1.11,1.21 0,0.68 0.55,1.23 1.23,1.23 0.54,0 0.99,-0.35 1.16,-0.83 0,-0.01 0.01,-0.01 0.01,-0.02 0,-0.01 0,-0.01 0,-0.02 0.04,-0.11 0.06,-0.23 0.06,-0.36 0,-0.01 0,-0.02 0,-0.03 0.02,-0.41 -0.09,-0.78 -0.24,-1.12 -0.21,-0.45 -0.56,-0.85 -0.99,-1.12 -0.43,-0.28 -0.94,-0.41 -1.43,-0.42 -0.48,-0.01 -0.99,0.07 -1.45,0.3 -0.92,0.45 -1.52,1.37 -1.71,2.32 -0.2,0.95 -0.02,2 0.56,2.83 2.64,3.15 8.08,1.89 9.35,-1.91 0.33,-0.9 0.41,-1.87 0.34,-2.79 -0.07,-0.91 -0.29,-1.83 -0.71,-2.7 -0.84,-1.72 -2.35,-2.96 -3.91,-3.8 -1.38,-0.75 -2.84,-1.26 -4.31,-1.64 1.47,-0.39 2.93,-0.89 4.31,-1.64 1.56,-0.85 3.07,-2.08 3.91,-3.8 0.42,-0.86 0.64,-1.78 0.71,-2.7 0.08,-0.92 -0.01,-1.88 -0.34,-2.79 -1.27,-3.8 -6.71,-5.05 -9.35,-1.91 -0.58,0.83 -0.76,1.88 -0.56,2.83 0.19,0.95 0.79,1.87 1.71,2.32 0.45,0.23 0.97,0.31 1.45,0.3 0.49,-0.01 1,-0.14 1.43,-0.42 0.43,-0.27 0.77,-0.67 0.99,-1.12 0.16,-0.36 0.27,-0.76 0.23,-1.19 0,0 0,-0.01 0,-0.01 0,-0.68 -0.55,-1.23 -1.23,-1.23 -0.68,0 -1.23,0.55 -1.23,1.23 0,0.66 0.52,1.19 1.17,1.22 -0.12,0.13 -0.25,0.25 -0.41,0.34 -0.56,0.34 -1.39,0.33 -1.97,0.02 -0.6,-0.31 -1.01,-0.96 -1.13,-1.66 -0.12,-0.7 0.03,-1.44 0.44,-1.99 0.4,-0.56 1.06,-0.89 1.8,-1.07 0.73,-0.18 1.5,-0.19 2.23,-0.01 1.47,0.33 2.69,1.41 3.13,2.8 0.23,0.69 0.28,1.45 0.2,2.21 -0.08,0.77 -0.29,1.51 -0.62,2.16 -0.68,1.32 -1.93,2.32 -3.34,3.03 -1.41,0.72 -2.98,1.2 -4.57,1.53 -1.48,0.31 -2.99,0.49 -4.51,0.58 -0.46,-1.49 -1.65,-4.28 -4.27,-5.16 -3.87,-1.31 -8.96,5.02 -13.68,6.01 -0.14,0.03 -0.14,0.23 0,0.26 4.72,0.99 9.81,7.32 13.68,6.01 2.62,-0.89 3.81,-3.68 4.27,-5.17 z m 224.86,-1.1 c -4.72,-0.99 -9.81,-7.32 -13.68,-6.01 -2.44,0.83 -3.64,3.31 -4.17,4.85 -1.53,-0.08 -3.05,-0.26 -4.54,-0.56 -1.58,-0.32 -3.13,-0.79 -4.51,-1.48 -1.38,-0.69 -2.58,-1.65 -3.24,-2.91 -0.17,-0.31 -0.29,-0.64 -0.39,-0.98 -0.1,-0.35 -0.17,-0.72 -0.22,-1.09 -0.08,-0.73 -0.04,-1.45 0.18,-2.11 0.41,-1.32 1.56,-2.35 2.96,-2.67 0.69,-0.17 1.43,-0.17 2.13,0 0.72,0.18 1.32,0.48 1.7,0.99 0.38,0.5 0.53,1.19 0.42,1.85 -0.11,0.66 -0.49,1.26 -1.04,1.55 -0.53,0.29 -1.32,0.31 -1.82,0 -0.12,-0.07 -0.22,-0.16 -0.32,-0.26 0.5,-0.16 0.86,-0.62 0.86,-1.17 0,-0.68 -0.55,-1.23 -1.23,-1.23 -0.52,0 -0.97,0.33 -1.14,0.79 -0.01,0.02 -0.02,0.04 -0.03,0.06 -0.01,0.02 0,0.04 -0.01,0.06 -0.02,0.09 -0.04,0.19 -0.04,0.29 -0.04,0.47 0.07,0.89 0.24,1.28 0.22,0.48 0.58,0.89 1.04,1.19 0.45,0.29 0.99,0.44 1.51,0.45 0.5,0.01 1.04,-0.07 1.52,-0.31 0.98,-0.48 1.6,-1.44 1.81,-2.43 0.21,-1 0.03,-2.1 -0.58,-2.97 -0.3,-0.44 -0.7,-0.8 -1.14,-1.07 -0.45,-0.27 -0.89,-0.44 -1.36,-0.58 -0.93,-0.26 -1.93,-0.3 -2.88,-0.1 -0.95,0.19 -1.87,0.61 -2.64,1.26 -0.76,0.64 -1.36,1.49 -1.7,2.43 -0.34,0.94 -0.44,1.94 -0.36,2.89 0.04,0.48 0.11,0.94 0.23,1.4 0.12,0.47 0.28,0.94 0.5,1.38 0.87,1.79 2.42,3.06 4.01,3.93 1.09,0.6 2.23,1.04 3.38,1.4 -1.15,0.36 -2.29,0.8 -3.38,1.4 -1.59,0.87 -3.14,2.14 -4.01,3.93 -0.22,0.44 -0.38,0.91 -0.5,1.38 -0.12,0.47 -0.19,0.92 -0.23,1.4 -0.08,0.95 0.02,1.95 0.36,2.89 0.34,0.94 0.93,1.79 1.7,2.43 0.76,0.64 1.68,1.06 2.64,1.26 0.95,0.2 1.95,0.16 2.88,-0.1 0.47,-0.14 0.91,-0.3 1.36,-0.58 0.44,-0.27 0.84,-0.63 1.14,-1.07 0.61,-0.87 0.79,-1.98 0.58,-2.97 -0.21,-0.99 -0.83,-1.95 -1.81,-2.43 -0.48,-0.24 -1.02,-0.33 -1.52,-0.31 -0.51,0.01 -1.05,0.16 -1.51,0.45 -0.45,0.29 -0.81,0.71 -1.04,1.19 -0.17,0.39 -0.28,0.81 -0.24,1.28 0,0.1 0.02,0.2 0.04,0.29 0,0.02 0,0.04 0.01,0.06 0.01,0.02 0.02,0.04 0.03,0.06 0.18,0.46 0.62,0.79 1.14,0.79 0.68,0 1.23,-0.55 1.23,-1.23 0,-0.55 -0.36,-1.01 -0.86,-1.17 0.1,-0.1 0.2,-0.19 0.32,-0.26 0.5,-0.31 1.3,-0.29 1.82,0 0.55,0.29 0.93,0.89 1.04,1.55 0.11,0.66 -0.04,1.35 -0.42,1.85 -0.38,0.51 -0.98,0.81 -1.7,0.99 -0.7,0.17 -1.44,0.17 -2.13,0 -1.4,-0.32 -2.55,-1.35 -2.96,-2.67 -0.21,-0.66 -0.26,-1.38 -0.18,-2.11 0.04,-0.36 0.11,-0.74 0.22,-1.09 0.1,-0.34 0.22,-0.67 0.39,-0.98 0.66,-1.25 1.86,-2.21 3.24,-2.91 1.38,-0.7 2.93,-1.16 4.51,-1.48 1.49,-0.3 3.02,-0.48 4.54,-0.56 0.53,1.54 1.72,4.03 4.17,4.85 3.87,1.31 8.96,-5.02 13.68,-6.01 0.14,-0.02 0.14,-0.21 0,-0.24 z m -22.89,24.27 c -1.13,0.09 -2.33,-0.01 -3.53,-0.19 -2.4,-0.37 -4.8,-1.06 -7.23,-1.76 -0.01,0 -0.03,-0.01 -0.05,-0.01 -0.68,-0.17 -1.37,0.25 -1.53,0.92 -0.17,0.68 0.25,1.37 0.92,1.53 2.45,0.61 4.88,1.21 7.14,2.09 1.13,0.44 2.21,0.95 3.15,1.6 0.93,0.64 1.68,1.44 1.96,2.35 0.28,0.9 0.14,1.99 -0.43,2.79 -0.56,0.81 -1.55,1.4 -2.52,1.4 -0.96,0.03 -1.88,-0.61 -2.22,-1.58 -0.15,-0.42 -0.2,-0.89 -0.11,-1.3 0.15,0.14 0.32,0.25 0.53,0.3 0.67,0.18 1.35,-0.22 1.53,-0.88 0.18,-0.67 -0.22,-1.35 -0.88,-1.53 -0.34,-0.09 -0.68,-0.03 -0.96,0.13 -0.61,0.27 -1.13,0.81 -1.34,1.42 -0.29,0.75 -0.26,1.55 -0.05,2.28 0.22,0.73 0.65,1.41 1.26,1.9 0.62,0.5 1.39,0.78 2.18,0.83 1.58,0.08 3.05,-0.69 4.01,-1.89 0.97,-1.22 1.33,-2.89 0.91,-4.42 -0.43,-1.56 -1.52,-2.71 -2.63,-3.53 -0.15,-0.11 -0.3,-0.2 -0.45,-0.31 0.18,-0.01 0.36,-0.02 0.54,-0.04 1.37,-0.16 2.89,-0.61 4.04,-1.74 1.13,-1.12 1.65,-2.74 1.42,-4.28 -0.24,-1.52 -1.12,-2.92 -2.53,-3.64 -0.71,-0.36 -1.52,-0.5 -2.3,-0.37 -0.78,0.12 -1.5,0.49 -2.05,1.02 -0.55,0.52 -0.97,1.2 -1.1,2 -0.12,0.64 0.05,1.36 0.45,1.9 0.16,0.28 0.43,0.5 0.76,0.59 0.67,0.18 1.35,-0.22 1.53,-0.88 0.18,-0.67 -0.22,-1.35 -0.88,-1.53 -0.21,-0.06 -0.42,-0.05 -0.61,0 0.13,-0.4 0.4,-0.79 0.74,-1.07 0.78,-0.67 1.9,-0.76 2.71,-0.25 0.84,0.48 1.41,1.5 1.48,2.47 0.09,0.98 -0.33,1.99 -1.02,2.63 -0.67,0.64 -1.71,0.96 -2.84,1.05 z m 6.92,2.02 c -1.07,-0.29 -2.18,0.35 -2.47,1.42 -0.29,1.07 0.35,2.18 1.42,2.47 1.07,0.29 2.18,-0.35 2.47,-1.42 0.29,-1.08 -0.35,-2.18 -1.42,-2.47 z M 23.975,98.054997 c 1.16,-0.1 2.38,0 3.59,0.17 2.43,0.36 4.84,1.05 7.28,1.73 0.01,0 0.02,0.01 0.03,0.01 0.51,0.130003 1.02,-0.18 1.15,-0.69 0.13,-0.51 -0.18,-1.02 -0.69,-1.15 -2.45,-0.62 -4.88,-1.24 -7.17,-2.14 -1.14,-0.45 -2.24,-0.98 -3.2,-1.65 -0.95,-0.67 -1.74,-1.51 -2.04,-2.5 -0.3,-0.98 -0.13,-2.14 0.49,-2.99 0.61,-0.86 1.66,-1.47 2.71,-1.46 1.04,-0.02 2.03,0.69 2.38,1.72 0.17,0.47 0.2,0.99 0.08,1.45 -0.16,-0.25 -0.41,-0.45 -0.73,-0.54 -0.67,-0.18 -1.35,0.22 -1.53,0.88 -0.18,0.67 0.22,1.35 0.88,1.53 0.29,0.08 0.58,0.04 0.84,-0.07 0.63,-0.23 1.16,-0.77 1.37,-1.4 0.27,-0.71 0.24,-1.48 0.03,-2.17 -0.21,-0.7 -0.63,-1.34 -1.22,-1.81 -0.59,-0.47 -1.32,-0.74 -2.07,-0.78 -1.5,-0.07 -2.91,0.68 -3.83,1.82 -0.92,1.16 -1.26,2.76 -0.85,4.22 0.41,1.48 1.46,2.58 2.54,3.38 0.38,0.28 0.76,0.52 1.16,0.75 -0.46,0 -0.92,0.02 -1.38,0.07 -1.34,0.15 -2.8,0.58 -3.89,1.66 -1.08,1.06 -1.59,2.610003 -1.37,4.080003 0.22,1.45 1.06,2.8 2.4,3.49 0.67,0.34 1.44,0.48 2.18,0.37 0.74,-0.11 1.43,-0.46 1.96,-0.96 0.53,-0.5 0.93,-1.15 1.06,-1.9 0.13,-0.66 -0.08,-1.42 -0.53,-1.93 -0.04,-0.05 -0.09,-0.1 -0.14,-0.15 -0.01,-0.01 -0.02,-0.02 -0.03,-0.04 l -0.01,-0.01 c 0,0 0,0 -0.01,0 -0.13,-0.1 -0.28,-0.18 -0.45,-0.23 -0.67,-0.18 -1.35,0.22 -1.53,0.88 -0.18,0.67 0.22,1.35 0.88,1.53 0.3,0.08 0.61,0.04 0.87,-0.09 -0.13,0.45 -0.42,0.87 -0.78,1.18 -0.82,0.72 -2.03,0.84 -2.92,0.3 -0.91,-0.51 -1.52,-1.57 -1.62,-2.62 -0.11,-1.05 0.33,-2.140003 1.07,-2.840003 0.78,-0.66 1.88,-1 3.04,-1.1 z m -6.89,-1.75 c 1.07,0.29 2.18,-0.35 2.47,-1.42 0.29,-1.07 -0.35,-2.18 -1.42,-2.47 -1.07,-0.29 -2.18,0.35 -2.47,1.42 -0.29,1.08 0.34,2.18 1.42,2.47 z M 43.475,182.925 c 3.86,1.41 7.94,-2.4 7.14,-6.33 -0.17,-0.95 -0.57,-1.82 -1.1,-2.58 -0.52,-0.75 -1.17,-1.44 -1.96,-1.98 -1.59,-1.07 -3.51,-1.39 -5.29,-1.34 -1.57,0.04 -3.08,0.33 -4.55,0.73 1.08,-1.07 2.09,-2.24 2.91,-3.58 0.93,-1.51 1.62,-3.33 1.49,-5.25 -0.07,-0.96 -0.34,-1.86 -0.73,-2.69 -0.39,-0.84 -0.95,-1.63 -1.69,-2.25 -3,-2.65 -8.34,-1.02 -9.05,3.02 -0.09,1.01 0.28,2 0.93,2.73 0.64,0.72 1.62,1.22 2.64,1.15 0.51,-0.03 1,-0.21 1.41,-0.46 0.42,-0.25 0.8,-0.63 1.03,-1.08 0.24,-0.45 0.33,-0.97 0.29,-1.46 -0.04,-0.39 -0.15,-0.79 -0.39,-1.15 0,0 0,-0.01 0,-0.01 -0.34,-0.59 -1.09,-0.79 -1.67,-0.45 -0.59,0.34 -0.79,1.09 -0.45,1.67 0.33,0.57 1.04,0.77 1.62,0.47 -0.04,0.18 -0.1,0.34 -0.18,0.5 -0.31,0.58 -1.04,0.98 -1.7,1 -0.68,0.03 -1.36,-0.32 -1.81,-0.87 -0.46,-0.54 -0.7,-1.26 -0.61,-1.94 0.07,-0.69 0.47,-1.3 1.02,-1.83 0.54,-0.52 1.2,-0.91 1.92,-1.12 1.43,-0.45 3.04,-0.13 4.11,0.86 0.55,0.49 0.97,1.11 1.28,1.81 0.31,0.7 0.51,1.45 0.54,2.18 0.07,1.48 -0.51,2.98 -1.37,4.29 -0.86,1.33 -1.98,2.52 -3.2,3.61 -1.13,1 -2.34,1.92 -3.61,2.76 -1.15,-1.06 -3.57,-2.88 -6.28,-2.34 -4,0.8 -5.25,8.83 -8.84,12.04 -0.11,0.1 -0.01,0.27 0.13,0.22 4.58,-1.51 12.15,1.43 14.85,-1.64 1.82,-2.07 1.46,-5.08 1.11,-6.6 1.36,-0.68 2.76,-1.28 4.19,-1.75 1.55,-0.51 3.14,-0.88 4.72,-0.96 1.57,-0.09 3.16,0.16 4.41,0.96 0.62,0.39 1.16,0.93 1.62,1.55 0.45,0.61 0.78,1.29 0.93,2.01 0.32,1.43 -0.21,2.98 -1.31,3.99 -0.54,0.51 -1.21,0.9 -1.93,1.1 -0.73,0.21 -1.47,0.25 -2.1,-0.03 -0.63,-0.27 -1.14,-0.83 -1.38,-1.5 -0.24,-0.67 -0.21,-1.43 0.15,-2 0.35,-0.56 1.07,-0.99 1.72,-0.97 0.16,0 0.31,0.03 0.47,0.07 -0.51,0.36 -0.68,1.06 -0.36,1.61 0.34,0.59 1.09,0.79 1.67,0.45 0.47,-0.27 0.68,-0.8 0.58,-1.3 0,-0.01 0,-0.01 0,-0.02 0,-0.01 0,-0.01 -0.01,-0.02 -0.03,-0.12 -0.07,-0.23 -0.13,-0.34 0,-0.01 -0.01,-0.02 -0.02,-0.02 -0.19,-0.36 -0.47,-0.63 -0.77,-0.85 -0.41,-0.28 -0.91,-0.45 -1.42,-0.48 -0.51,-0.03 -1.02,0.11 -1.45,0.35 -0.42,0.23 -0.83,0.56 -1.1,0.99 -0.57,0.85 -0.63,1.94 -0.32,2.86 0.3,0.96 0.98,1.78 1.9,2.21 z M 201.635,61.844997 c -0.48,-0.23 -1,-0.34 -1.52,-0.36 -0.53,-0.01 -0.99,0.06 -1.46,0.18 -0.94,0.24 -1.82,0.7 -2.55,1.35 -0.73,0.64 -1.32,1.47 -1.66,2.41 -0.34,0.93 -0.43,1.97 -0.25,2.95 0.17,0.98 0.59,1.89 1.13,2.68 0.27,0.4 0.56,0.76 0.9,1.1 0.34,0.35 0.71,0.68 1.12,0.95 1.65,1.12 3.63,1.44 5.43,1.4 1.24,-0.03 2.45,-0.21 3.63,-0.48 -0.82,0.89 -1.58,1.84 -2.23,2.9 -0.94,1.54 -1.65,3.42 -1.5,5.41 0.03,0.49 0.13,0.98 0.26,1.45 0.13,0.46 0.3,0.89 0.51,1.33 0.41,0.86 0.99,1.68 1.75,2.32 0.76,0.64 1.7,1.08 2.68,1.26 0.98,0.17 1.99,0.08 2.91,-0.23 0.92,-0.31 1.77,-0.83 2.44,-1.53 0.34,-0.35 0.63,-0.72 0.89,-1.18 0.24,-0.45 0.41,-0.97 0.45,-1.49 0.09,-1.06 -0.3,-2.11 -0.98,-2.86 -0.67,-0.76 -1.7,-1.27 -2.78,-1.2 -0.54,0.03 -1.05,0.23 -1.48,0.49 -0.44,0.27 -0.84,0.66 -1.08,1.14 -0.25,0.48 -0.35,1.02 -0.31,1.55 0.05,0.42 0.16,0.84 0.43,1.23 0.05,0.09 0.11,0.16 0.18,0.23 0.02,0.02 0.02,0.03 0.04,0.05 0.02,0.02 0.04,0.02 0.05,0.04 0.38,0.31 0.93,0.37 1.38,0.11 0.59,-0.34 0.79,-1.09 0.45,-1.67 -0.28,-0.48 -0.82,-0.69 -1.33,-0.58 0.04,-0.13 0.08,-0.26 0.15,-0.38 0.28,-0.52 0.98,-0.9 1.58,-0.92 0.62,-0.02 1.25,0.31 1.67,0.82 0.43,0.51 0.64,1.19 0.56,1.81 -0.07,0.63 -0.44,1.2 -0.98,1.71 -0.52,0.5 -1.16,0.87 -1.85,1.07 -1.38,0.42 -2.89,0.11 -3.9,-0.83 -0.51,-0.46 -0.92,-1.06 -1.21,-1.74 -0.15,-0.33 -0.27,-0.7 -0.36,-1.05 -0.08,-0.34 -0.14,-0.69 -0.15,-1.05 -0.06,-1.41 0.5,-2.85 1.35,-4.14 0.85,-1.29 1.96,-2.47 3.16,-3.54 1.14,-1.01 2.37,-1.92 3.65,-2.76 1.23,1.07 3.51,2.63 6.04,2.12 4,-0.8 5.25,-8.83 8.84,-12.04 0.11,-0.1 0.01,-0.27 -0.13,-0.22 -4.58,1.51 -12.15,-1.43 -14.85,1.64 -1.7,1.94 -1.5,4.69 -1.18,6.29 -1.36,0.69 -2.78,1.3 -4.21,1.79 -1.53,0.51 -3.1,0.88 -4.65,0.97 -1.54,0.09 -3.06,-0.14 -4.26,-0.9 -0.3,-0.18 -0.58,-0.41 -0.83,-0.65 -0.26,-0.25 -0.51,-0.54 -0.73,-0.83 -0.44,-0.59 -0.76,-1.24 -0.9,-1.92 -0.31,-1.35 0.18,-2.82 1.23,-3.8 0.52,-0.49 1.16,-0.86 1.85,-1.06 0.71,-0.21 1.39,-0.25 1.97,0.01 0.58,0.24 1.06,0.77 1.29,1.39 0.23,0.62 0.2,1.34 -0.13,1.86 -0.31,0.51 -0.99,0.92 -1.58,0.91 -0.13,0 -0.27,-0.03 -0.4,-0.06 0.35,-0.38 0.44,-0.96 0.17,-1.44 -0.34,-0.59 -1.09,-0.79 -1.67,-0.45 -0.45,0.26 -0.67,0.77 -0.59,1.25 0,0.02 0,0.04 0,0.07 0.01,0.02 0.02,0.04 0.02,0.06 0.03,0.09 0.06,0.18 0.11,0.27 0.2,0.43 0.51,0.74 0.85,0.99 0.43,0.3 0.95,0.48 1.49,0.51 0.54,0.03 1.08,-0.12 1.53,-0.36 0.44,-0.24 0.87,-0.58 1.16,-1.03 0.61,-0.9 0.67,-2.05 0.35,-3.01 -0.29,-0.99 -1,-1.86 -1.96,-2.31 z m 18.96,41.310003 c 0.67,-0.18 1.06,-0.86 0.88,-1.53 -0.18,-0.67 -0.86,-1.06 -1.53,-0.88 -0.34,0.09 -0.6,0.31 -0.76,0.59 -0.4,0.54 -0.57,1.26 -0.45,1.9 0.13,0.8 0.55,1.47 1.1,2 0.55,0.52 1.27,0.9 2.05,1.02 0.78,0.13 1.59,-0.02 2.3,-0.37 1.41,-0.72 2.3,-2.12 2.53,-3.64 0.23,-1.54 -0.29,-3.170003 -1.42,-4.280003 -1.15,-1.14 -2.67,-1.58 -4.04,-1.74 -0.18,-0.02 -0.36,-0.03 -0.54,-0.04 0.15,-0.1 0.3,-0.2 0.45,-0.31 1.1,-0.82 2.2,-1.97 2.63,-3.53 0.42,-1.53 0.06,-3.2 -0.91,-4.42 -0.96,-1.2 -2.43,-1.97 -4.01,-1.89 -0.79,0.05 -1.56,0.33 -2.18,0.83 -0.62,0.5 -1.05,1.18 -1.26,1.9 -0.21,0.73 -0.24,1.52 0.05,2.28 0.21,0.61 0.73,1.15 1.34,1.42 0.28,0.16 0.62,0.22 0.96,0.13 0.67,-0.18 1.06,-0.86 0.88,-1.53 -0.18,-0.67 -0.87,-1.06 -1.53,-0.88 -0.21,0.06 -0.39,0.17 -0.53,0.3 -0.09,-0.41 -0.05,-0.88 0.11,-1.3 0.34,-0.97 1.26,-1.61 2.22,-1.58 0.97,0 1.96,0.59 2.52,1.4 0.57,0.8 0.71,1.89 0.43,2.79 -0.28,0.91 -1.02,1.71 -1.96,2.35 -0.93,0.65 -2.02,1.16 -3.15,1.6 -2.27,0.88 -4.69,1.48 -7.14,2.09 -0.01,0 -0.03,0.01 -0.05,0.01 -0.67,0.19 -1.06,0.89 -0.87,1.57 0.09,0.3 0.28,0.54 0.52,0.700003 0.05,0.03 0.1,0.06 0.15,0.09 0.12,0.06 0.26,0.1 0.39,0.12 0.08,0.01 0.16,0.01 0.25,0.01 0.08,-0.01 0.17,-0.02 0.25,-0.05 2.43,-0.700003 4.83,-1.390003 7.23,-1.760003 1.2,-0.18 2.39,-0.28 3.53,-0.19 1.13,0.09 2.17,0.41 2.87,1.06 0.69,0.640003 1.12,1.650003 1.02,2.630003 -0.08,0.98 -0.64,1.99 -1.48,2.47 -0.82,0.51 -1.94,0.42 -2.71,-0.25 -0.34,-0.29 -0.61,-0.67 -0.74,-1.07 0.18,0.03 0.39,0.03 0.6,-0.02 z m 6.31,-10.740003 c -1.07,0.29 -1.71,1.39 -1.42,2.47 0.29,1.07 1.39,1.71 2.47,1.42 1.07,-0.29 1.71,-1.39 1.42,-2.47 -0.3,-1.07 -1.4,-1.71 -2.47,-1.42 z M 24.965,150.595 c 0.96,-0.67 2.06,-1.19 3.2,-1.65 2.29,-0.9 4.72,-1.51 7.17,-2.14 0.01,0 0.02,-0.01 0.03,-0.01 0.25,-0.07 0.45,-0.24 0.57,-0.45 0.09,-0.16 0.13,-0.34 0.12,-0.53 0,-0.06 -0.02,-0.13 -0.03,-0.19 -0.14,-0.5 -0.67,-0.8 -1.17,-0.65 -2.43,0.68 -4.85,1.37 -7.28,1.73 -1.21,0.18 -2.43,0.27 -3.59,0.17 -1.16,-0.1 -2.26,-0.44 -3.01,-1.14 -0.75,-0.7 -1.19,-1.79 -1.07,-2.84 0.1,-1.05 0.7,-2.11 1.62,-2.62 0.89,-0.54 2.1,-0.42 2.92,0.3 0.38,0.32 0.67,0.76 0.8,1.22 -0.27,-0.14 -0.58,-0.19 -0.9,-0.1 -0.67,0.18 -1.06,0.86 -0.88,1.53 0.18,0.67 0.86,1.06 1.53,0.88 0.29,-0.08 0.53,-0.26 0.69,-0.48 0.43,-0.51 0.62,-1.25 0.49,-1.89 -0.12,-0.75 -0.53,-1.4 -1.06,-1.9 -0.53,-0.5 -1.22,-0.85 -1.96,-0.96 -0.74,-0.12 -1.51,0.02 -2.18,0.37 -1.34,0.69 -2.19,2.04 -2.4,3.49 -0.22,1.47 0.29,3.02 1.37,4.08 1.09,1.07 2.56,1.5 3.89,1.66 0.46,0.05 0.92,0.07 1.38,0.07 -0.39,0.23 -0.78,0.48 -1.16,0.75 -1.08,0.8 -2.13,1.91 -2.54,3.38 -0.4,1.45 -0.07,3.05 0.85,4.22 0.91,1.15 2.32,1.9 3.83,1.82 0.75,-0.04 1.49,-0.3 2.07,-0.78 0.59,-0.47 1,-1.11 1.22,-1.81 0.21,-0.7 0.24,-1.46 -0.03,-2.17 -0.22,-0.64 -0.77,-1.19 -1.42,-1.41 -0.06,-0.02 -0.13,-0.04 -0.2,-0.06 -0.02,0 -0.03,-0.01 -0.05,-0.01 h -0.01 c 0,0 0,0 -0.01,0 -0.16,-0.02 -0.34,-0.02 -0.51,0.03 -0.67,0.18 -1.06,0.86 -0.88,1.53 0.18,0.67 0.86,1.06 1.53,0.88 0.3,-0.08 0.55,-0.27 0.71,-0.52 0.11,0.45 0.07,0.96 -0.09,1.42 -0.35,1.03 -1.33,1.74 -2.38,1.72 -1.05,0.01 -2.1,-0.61 -2.71,-1.46 -0.62,-0.85 -0.78,-2.01 -0.49,-2.99 0.28,-0.98 1.07,-1.82 2.02,-2.49 z m -6.84,1.93 c 1.07,-0.29 1.71,-1.39 1.42,-2.47 -0.29,-1.07 -1.39,-1.71 -2.47,-1.42 -1.07,0.29 -1.71,1.39 -1.42,2.47 0.29,1.07 1.4,1.71 2.47,1.42 z m 69.19,52.77 c -0.62,-0.73 -1.41,-1.29 -2.25,-1.69 -0.83,-0.39 -1.73,-0.66 -2.69,-0.73 -1.91,-0.14 -3.74,0.56 -5.25,1.49 -1.34,0.82 -2.51,1.83 -3.58,2.91 0.4,-1.47 0.69,-2.99 0.73,-4.55 0.05,-1.77 -0.26,-3.7 -1.34,-5.29 -0.54,-0.79 -1.23,-1.45 -1.98,-1.96 -0.76,-0.53 -1.64,-0.93 -2.58,-1.1 -3.92,-0.8 -7.73,3.28 -6.33,7.14 0.42,0.92 1.25,1.6 2.17,1.9 0.92,0.31 2.01,0.25 2.86,-0.32 0.43,-0.28 0.76,-0.68 0.99,-1.1 0.24,-0.43 0.38,-0.94 0.35,-1.45 -0.02,-0.51 -0.19,-1 -0.48,-1.42 -0.23,-0.32 -0.52,-0.61 -0.92,-0.8 0,0 0,0 -0.01,-0.01 -0.59,-0.34 -1.34,-0.14 -1.67,0.45 -0.34,0.59 -0.14,1.34 0.45,1.67 0.57,0.33 1.29,0.15 1.64,-0.4 0.06,0.17 0.09,0.35 0.09,0.52 0.02,0.65 -0.41,1.37 -0.97,1.72 -0.57,0.36 -1.34,0.4 -2,0.15 -0.67,-0.24 -1.23,-0.75 -1.5,-1.38 -0.28,-0.63 -0.24,-1.36 -0.03,-2.1 0.2,-0.72 0.59,-1.39 1.1,-1.93 1.01,-1.11 2.56,-1.63 3.99,-1.31 0.72,0.15 1.4,0.48 2.01,0.93 0.62,0.45 1.16,1 1.55,1.62 0.8,1.25 1.04,2.83 0.96,4.41 -0.08,1.58 -0.45,3.18 -0.96,4.72 -0.47,1.43 -1.07,2.84 -1.75,4.19 -1.53,-0.35 -4.53,-0.71 -6.6,1.11 -3.07,2.7 -0.13,10.27 -1.64,14.85 -0.05,0.14 0.12,0.24 0.22,0.13 3.21,-3.6 11.24,-4.84 12.04,-8.84 0.54,-2.71 -1.28,-5.13 -2.34,-6.28 0.84,-1.27 1.75,-2.48 2.76,-3.61 1.09,-1.22 2.28,-2.33 3.61,-3.2 1.32,-0.86 2.81,-1.44 4.29,-1.37 0.73,0.03 1.47,0.22 2.18,0.54 0.7,0.31 1.32,0.73 1.81,1.28 0.99,1.08 1.31,2.68 0.86,4.11 -0.21,0.72 -0.6,1.38 -1.12,1.92 -0.53,0.55 -1.14,0.95 -1.83,1.02 -0.68,0.08 -1.4,-0.15 -1.94,-0.61 -0.54,-0.46 -0.9,-1.14 -0.87,-1.81 0.02,-0.66 0.43,-1.39 1,-1.7 0.14,-0.08 0.29,-0.13 0.44,-0.17 -0.26,0.57 -0.06,1.25 0.49,1.57 0.59,0.34 1.34,0.14 1.67,-0.45 0.27,-0.47 0.19,-1.03 -0.14,-1.42 0,0 -0.01,-0.01 -0.01,-0.01 0,0 -0.01,-0.01 -0.01,-0.01 -0.08,-0.09 -0.17,-0.17 -0.28,-0.23 -0.01,0 -0.02,-0.01 -0.03,-0.01 -0.34,-0.22 -0.72,-0.31 -1.09,-0.35 -0.5,-0.04 -1.01,0.06 -1.46,0.29 -0.45,0.23 -0.83,0.61 -1.08,1.03 -0.25,0.41 -0.44,0.9 -0.46,1.41 -0.07,1.03 0.43,2 1.15,2.64 0.73,0.65 1.73,1.02 2.73,0.93 4.07,-0.7 5.7,-6.04 3.05,-9.04 z m 93.54,-163.930003 c -0.96,-0.32 -2.11,-0.26 -3.01,0.35 -0.45,0.29 -0.8,0.72 -1.03,1.16 -0.25,0.45 -0.39,0.99 -0.36,1.53 0.03,0.54 0.21,1.06 0.51,1.49 0.25,0.34 0.56,0.65 0.99,0.85 0.09,0.05 0.18,0.08 0.27,0.11 0.02,0.01 0.04,0.02 0.06,0.02 0.02,0.01 0.04,0 0.07,0.01 0.49,0.08 0.99,-0.14 1.25,-0.59 0.34,-0.59 0.14,-1.34 -0.45,-1.67 -0.48,-0.27 -1.06,-0.19 -1.44,0.17 -0.04,-0.13 -0.06,-0.27 -0.06,-0.4 -0.02,-0.59 0.39,-1.27 0.91,-1.58 0.52,-0.33 1.23,-0.36 1.86,-0.13 0.63,0.23 1.15,0.71 1.39,1.29 0.25,0.58 0.21,1.26 0.01,1.97 -0.2,0.69 -0.57,1.33 -1.06,1.85 -0.98,1.05 -2.45,1.54 -3.8,1.23 -0.68,-0.14 -1.33,-0.46 -1.92,-0.9 -0.29,-0.22 -0.58,-0.47 -0.83,-0.73 -0.24,-0.26 -0.47,-0.53 -0.65,-0.83 -0.76,-1.19 -0.99,-2.72 -0.9,-4.26 0.09,-1.55 0.46,-3.12 0.97,-4.65 0.48,-1.44 1.09,-2.85 1.79,-4.21 1.6,0.32 4.35,0.52 6.29,-1.18 3.07,-2.7 0.13,-10.27 1.64,-14.85 0.05,-0.14 -0.12,-0.24 -0.22,-0.13 -3.21,3.6 -11.24,4.84 -12.04,8.84 -0.51,2.53 1.05,4.81 2.12,6.04 -0.83,1.28 -1.75,2.52 -2.76,3.65 -1.07,1.21 -2.24,2.31 -3.54,3.16 -1.29,0.85 -2.72,1.41 -4.14,1.35 -0.35,-0.01 -0.7,-0.06 -1.05,-0.15 -0.35,-0.09 -0.71,-0.21 -1.05,-0.36 -0.67,-0.29 -1.27,-0.69 -1.74,-1.21 -0.94,-1.02 -1.26,-2.53 -0.83,-3.9 0.2,-0.69 0.57,-1.33 1.07,-1.85 0.51,-0.53 1.08,-0.91 1.71,-0.98 0.63,-0.08 1.3,0.13 1.81,0.56 0.51,0.43 0.84,1.06 0.82,1.67 -0.01,0.6 -0.4,1.3 -0.92,1.58 -0.12,0.07 -0.25,0.11 -0.38,0.15 0.11,-0.51 -0.1,-1.06 -0.58,-1.33 -0.59,-0.34 -1.34,-0.14 -1.67,0.45 -0.26,0.45 -0.2,1 0.11,1.38 0.01,0.02 0.02,0.04 0.04,0.05 0.02,0.02 0.03,0.02 0.05,0.04 0.07,0.07 0.14,0.13 0.23,0.18 0.39,0.27 0.81,0.39 1.23,0.43 0.52,0.04 1.07,-0.06 1.55,-0.31 0.48,-0.25 0.88,-0.64 1.14,-1.08 0.26,-0.43 0.46,-0.94 0.49,-1.48 0.08,-1.08 -0.44,-2.11 -1.2,-2.78 -0.76,-0.68 -1.8,-1.08 -2.86,-0.98 -0.53,0.04 -1.04,0.21 -1.49,0.45 -0.46,0.25 -0.82,0.55 -1.18,0.89 -0.7,0.68 -1.22,1.52 -1.53,2.44 -0.31,0.92 -0.41,1.93 -0.23,2.91 0.17,0.98 0.61,1.92 1.26,2.68 0.64,0.77 1.46,1.34 2.32,1.75 0.43,0.21 0.87,0.37 1.33,0.51 0.47,0.13 0.96,0.23 1.45,0.26 1.98,0.15 3.86,-0.56 5.41,-1.5 1.06,-0.65 2.02,-1.41 2.9,-2.23 -0.27,1.18 -0.45,2.39 -0.48,3.63 -0.04,1.81 0.28,3.79 1.4,5.43 0.27,0.41 0.6,0.78 0.95,1.12 0.35,0.33 0.71,0.63 1.1,0.9 0.78,0.54 1.69,0.96 2.68,1.13 0.98,0.18 2.02,0.09 2.95,-0.25 0.94,-0.34 1.76,-0.93 2.41,-1.66 0.65,-0.73 1.11,-1.61 1.35,-2.55 0.12,-0.48 0.19,-0.94 0.18,-1.46 -0.02,-0.52 -0.13,-1.04 -0.36,-1.52 -0.48,-0.95 -1.35,-1.65 -2.31,-1.97 z m 6.55,18 c 1.76,-1.82 3.49,-3.61 5.38,-5.14 0.95,-0.75 1.93,-1.44 2.96,-1.92 1.02,-0.48 2.09,-0.73 3.01,-0.52 0.92,0.21 1.8,0.87 2.2,1.77 0.42,0.89 0.44,2.04 -0.05,2.88 -0.45,0.85 -1.47,1.33 -2.48,1.14 -0.44,-0.08 -0.87,-0.27 -1.18,-0.56 0.19,-0.06 0.38,-0.16 0.53,-0.31 0.49,-0.49 0.49,-1.28 0,-1.77 -0.49,-0.49 -1.28,-0.49 -1.77,0 -0.25,0.25 -0.37,0.57 -0.37,0.89 -0.07,0.66 0.13,1.38 0.56,1.87 0.51,0.63 1.21,1 1.95,1.18 0.74,0.18 1.54,0.14 2.28,-0.14 0.74,-0.28 1.37,-0.81 1.81,-1.47 0.86,-1.33 0.93,-2.99 0.37,-4.42 -0.57,-1.45 -1.83,-2.6 -3.37,-3 -1.56,-0.41 -3.1,-0.03 -4.37,0.51 -0.17,0.07 -0.33,0.16 -0.49,0.23 0.08,-0.16 0.16,-0.32 0.23,-0.49 0.54,-1.27 0.92,-2.81 0.51,-4.37 -0.4,-1.54 -1.55,-2.8 -3,-3.37 -1.43,-0.55 -3.09,-0.49 -4.42,0.37 -0.66,0.44 -1.19,1.07 -1.47,1.81 -0.29,0.74 -0.32,1.54 -0.14,2.28 0.18,0.74 0.56,1.44 1.18,1.95 0.49,0.43 1.21,0.63 1.87,0.56 0.32,0 0.65,-0.12 0.89,-0.37 0.49,-0.49 0.49,-1.28 0,-1.77 -0.49,-0.49 -1.28,-0.49 -1.77,0 -0.15,0.15 -0.25,0.34 -0.31,0.53 -0.29,-0.31 -0.48,-0.74 -0.56,-1.18 -0.19,-1.01 0.29,-2.02 1.14,-2.48 0.84,-0.49 2,-0.47 2.88,-0.05 0.89,0.41 1.56,1.28 1.77,2.2 0.21,0.93 -0.03,1.99 -0.52,3.01 -0.49,1.03 -1.17,2.01 -1.92,2.96 -1.52,1.89 -3.32,3.63 -5.14,5.38 -0.01,0.01 -0.02,0.02 -0.03,0.03 -0.49,0.5 -0.47,1.3 0.03,1.79 0.53,0.51 1.33,0.49 1.81,-0.01 z m 13.33,-12.27 c 0.79,-0.79 0.79,-2.06 0,-2.85 -0.79,-0.79 -2.06,-0.79 -2.85,0 -0.79,0.79 -0.79,2.06 0,2.85 0.79,0.79 2.06,0.79 2.85,0 z M 57.845,185.795 c -1.77,1.81 -3.51,3.61 -5.43,5.14 -0.96,0.76 -1.97,1.45 -3.02,1.94 -1.05,0.49 -2.18,0.75 -3.18,0.52 -1,-0.23 -1.92,-0.96 -2.35,-1.92 -0.44,-0.95 -0.44,-2.18 0.09,-3.08 0.5,-0.91 1.61,-1.41 2.68,-1.2 0.49,0.09 0.96,0.32 1.3,0.66 -0.3,0.01 -0.6,0.13 -0.83,0.36 -0.49,0.49 -0.49,1.28 0,1.77 0.49,0.49 1.28,0.49 1.77,0 0.21,-0.21 0.33,-0.48 0.35,-0.76 0.11,-0.66 -0.09,-1.39 -0.52,-1.89 -0.48,-0.59 -1.16,-0.95 -1.87,-1.12 -0.71,-0.17 -1.48,-0.13 -2.18,0.15 -0.7,0.27 -1.3,0.78 -1.71,1.41 -0.81,1.27 -0.87,2.86 -0.33,4.23 0.55,1.38 1.76,2.47 3.23,2.84 1.48,0.39 2.96,0.03 4.2,-0.51 0.43,-0.19 0.83,-0.4 1.23,-0.62 -0.22,0.4 -0.44,0.8 -0.63,1.23 -0.53,1.24 -0.9,2.72 -0.51,4.2 0.38,1.46 1.46,2.68 2.84,3.23 1.36,0.54 2.96,0.48 4.23,-0.33 0.63,-0.41 1.14,-1.01 1.41,-1.71 0.27,-0.7 0.31,-1.47 0.15,-2.18 -0.17,-0.71 -0.53,-1.38 -1.12,-1.87 -0.51,-0.44 -1.27,-0.64 -1.94,-0.51 -0.07,0.01 -0.13,0.03 -0.2,0.05 -0.02,0 -0.03,0.01 -0.05,0.01 h -0.01 c 0,0 0,0 -0.01,0 -0.15,0.06 -0.3,0.15 -0.42,0.28 -0.49,0.49 -0.49,1.28 0,1.77 0.49,0.49 1.28,0.49 1.77,0 0.22,-0.22 0.34,-0.51 0.36,-0.8 0.32,0.33 0.54,0.79 0.63,1.27 0.22,1.07 -0.28,2.17 -1.2,2.68 -0.9,0.53 -2.12,0.53 -3.08,0.09 -0.96,-0.43 -1.69,-1.35 -1.92,-2.35 -0.24,-1 0.02,-2.13 0.52,-3.18 0.49,-1.06 1.19,-2.06 1.94,-3.02 1.53,-1.92 3.33,-3.67 5.14,-5.43 0,0 0.01,-0.01 0.02,-0.02 0.37,-0.38 0.36,-0.98 -0.02,-1.34 -0.37,-0.37 -0.97,-0.36 -1.33,0.01 z m -13.55,12.05 c -0.79,0.79 -0.79,2.06 0,2.85 0.79,0.79 2.06,0.79 2.85,0 0.79,-0.79 0.79,-2.06 0,-2.85 -0.79,-0.79 -2.07,-0.79 -2.85,0 z"
   id="path10"
   inkscape:connector-curvature="0"
   style="fill:#ffce00" />
<path
   class="st1"
   d="m 177.725,65.404997 c -0.4,-0.38 -11.45,-8.57 -11.92,-8.83 -0.46,-0.27 -0.94,-0.51 -1.41,-0.77 -1.9,-1 -2.19,-2.1 -4.18,-2.89 -3.97,-1.59 -0.98,-1.28 -5.07,-2.48 -5.34,-1.56 -10.84,-2.71 -20.43,-3.24 -5.25,-0.29 -10.48,0.39 -14.77,1.03 -4.53,0.68 -8.82,1.56 -13.21,2.88 -7.51,2.27 -14.84,5.65 -20.69,10.98 -4.08,3.72 -7.15,8.48 -8.02,14 -1.54,9.73 5.33,17.31 13.01,22.37 3.73,2.460003 7.8,4.260003 11.96,5.580003 4.16,1.31 8.45,2.18 12.8,2.6 8.67,0.83 17.61,-0.08 25.89,-3.41 4.12,-1.67 8.06,-4.000003 11.44,-7.100003 1.73,-1.56 3.29,-3.47 4.45,-5.63 1.16,-2.17 1.93,-4.63 2.05,-7.17 0.16,-2.54 -0.35,-5.11 -1.34,-7.4 -1,-2.29 -2.44,-4.31 -4.12,-6 -1.67,-1.71 -3.56,-3.1 -5.53,-4.26 -1.97,-1.17 -4.04,-2.09 -6.13,-2.87 -4.18,-1.52 -8.51,-2.24 -12.89,-2.65 -4.38,-0.41 -8.95,-0.33 -13.32,0.41 -4.36,0.74 -8.54,1.97 -12.5,4.1 -1.97,1.07 -3.89,2.29 -5.67,3.86 -1.76,1.56 -3.42,3.49 -4.4,6 -0.48,1.24 -0.77,2.62 -0.76,4.01 0,1.39 0.3,2.76 0.8,4 1.01,2.49 2.7,4.4 4.52,5.91 3.52,2.92 7.85,4.7 12.27,5.74 8.01,1.88 16.56,1.35 23.9,-2.54 2.51,-1.33 4.99,-3.15 6.43,-5.68 1.59,-2.81 1.59,-6.31 -0.09,-9.08 -3.53,-5.83 -11.3,-7.36 -17.78,-6.91 -3.19,0.22 -5.96,1.06 -8.6,2.9 -2.93,2.03 -4.83,5.12 -3,8.5 2.33,4.32 8.37,5.26 12.9,4.46 2.24,-0.4 3.75,-1.05 4.88,-2.41 1.19,-1.43 1.25,-3.38 0.24,-5.03 -2.2,-3.59 -8.58,-3.22 -8.6,0.62 -0.01,1.57 1.42,2.74 3.45,2.69 1.46,-0.04 2.72,-0.81 2.82,-2.42 0.06,-0.89 -0.19,-1.13 -0.45,-1.83 0.76,0.6 1.8,1.76 1.8,2.77 -0.01,2.37 -2.79,3.23 -4.68,3.49 -3.25,0.45 -7.85,-0.15 -9.27,-3.4 -1.15,-2.64 0.63,-4.56 2.65,-5.6 3.22,-1.65 7.59,-1.97 11.05,-1.12 3.19,0.77 6.61,2.43 8.22,5.5 1.04,1.97 0.28,4.8 -1.66,6.47 -3.17,2.74 -7.36,4.33 -11.49,4.75 -5.99,0.61 -12.46,-0.45 -17.84,-3.2 -2.91,-1.49 -5.48,-3.89 -6.22,-7.24 -1.08,-4.9 3.2,-8.78 6.86,-10.71 7.54,-3.97 16.74,-4.69 25.13,-3.49 3.16,0.45 6.32,1.23 9.32,2.34 3.61,1.35 6.41,3.4 8.9,5.97 1.25,1.27 2.25,2.72 2.91,4.25 0.65,1.54 0.96,3.17 0.87,4.79 -0.07,1.63 -0.56,3.25 -1.36,4.75 -0.81,1.51 -1.9,2.89 -3.26,4.12 -2.76,2.55 -5.49,4.56 -9.08,6.03 -3.6,1.47 -7.44,2.420003 -11.35,2.930003 -3.91,0.52 -7.91,0.59 -11.86,0.25 -3.96,-0.34 -7.89,-1.100003 -11.69,-2.250003 -3.79,-1.16 -7.43,-2.74 -10.7,-4.82 -3.26,-2.08 -6.15,-4.7 -8.11,-7.82 -1.97,-3.1 -2.89,-6.73 -2.3,-10.2 0.28,-1.74 0.93,-3.43 1.85,-4.99 0.46,-0.78 0.99,-1.54 1.58,-2.26 0.3,-0.36 0.6,-0.71 0.93,-1.06 0.34,-0.35 0.67,-0.72 1.03,-1.06 2.79,-2.77 6.01,-5.14 9.49,-7.08 3.47,-1.96 7.21,-3.5 11.06,-4.68 1.93,-0.59 3.88,-1.09 5.86,-1.54 1.97,-0.47 3.96,-0.91 5.97,-1.18 4.03,-0.52 8.12,-0.69 12.19,-0.57 4.08,0.14 8.14,0.61 12.14,1.37 4,0.77 7.94,1.75 11.78,3.07 4.24,1.47 8.73,3.34 11.11,4.73 2.31,1.35 6.22,3.26 13.65,10.15 3.47,3.23 -3.63,-4.71 -4.41,-5.5 z"
   id="path12"
   inkscape:connector-curvature="0"
   style="fill:#ffce00" />
<path
   class="st1"
   d="m 199.315,97.734997 c -2.5,-7.71 -6.21,-15.02 -10.92,-21.62 -4.7,-6.57 -10.35,-12.43 -16.78,-17.32 -6.5,-4.94 -13.71,-8.9 -21.38,-11.69 -7.95,-2.89 -16.36,-4.52 -24.81,-4.85 -8.55,-0.33 -17.16,0.66 -25.4,2.97 -7.9,2.22 -15.43,5.65 -22.3,10.12 -6.78,4.41 -12.84,9.84 -18.01,16.05 -5.16,6.2 -9.38,13.19 -12.44,20.66 -3.15,7.68 -5.1,15.860003 -5.74,24.130003 -0.66,8.46 0.04,17.01 2.04,25.25 1.92,7.93 5.08,15.54 9.33,22.5 4.2,6.9 9.44,13.16 15.5,18.51 6.1,5.38 12.99,9.81 20.4,13.16 7.57,3.42 15.7,5.65 23.95,6.59 8.63,0.98 17.36,0.63 25.88,-1.07 8.06,-1.61 15.88,-4.48 23.07,-8.46 7.09,-3.92 13.58,-8.9 19.19,-14.74 5.58,-5.82 10.3,-12.46 13.9,-19.66 3.68,-7.35 6.21,-15.29 7.47,-23.41 0.64,-4.08 0.95,-8.2 0.95,-12.33 0,-8.41 -1.3,-16.8 -3.9,-24.790003 z m -2.89,49.040003 c -2.45,7.55 -6.05,14.71 -10.62,21.19 -4.54,6.43 -10.05,12.17 -16.29,16.98 -6.2,4.79 -13.14,8.67 -20.5,11.38 -7.63,2.81 -15.67,4.42 -23.79,4.74 -8.11,0.32 -16.29,-0.64 -24.09,-2.87 -7.65,-2.19 -14.93,-5.55 -21.56,-9.94 -6.53,-4.32 -12.39,-9.63 -17.36,-15.67 -5.04,-6.11 -9.13,-13 -12.11,-20.33 -3.07,-7.53 -4.94,-15.51 -5.56,-23.62 -0.63,-8.31 0.03,-16.72 1.98,-24.82 1.87,-7.750003 4.96,-15.210003 9.08,-22.040003 4.07,-6.75 9.14,-12.88 15.02,-18.13 5.86,-5.24 12.49,-9.59 19.64,-12.86 7.3,-3.34 15.12,-5.53 23.09,-6.46 8.15,-0.95 16.43,-0.6 24.46,1.04 7.79,1.59 15.32,4.41 22.25,8.3 6.84,3.84 13.07,8.7 18.48,14.38 5.45,5.72 10.02,12.25 13.53,19.33 3.57,7.21 6.04,14.960003 7.26,22.910003 0.61,4.01 0.91,8.06 0.92,12.12 -0.04,8.26 -1.28,16.52 -3.83,24.37 z"
   id="path14"
   inkscape:connector-curvature="0"
   style="fill:#ffce00" />
<path
   class="st1"
   d="m 139.165,140.115 c 0,0 0.29,4.32 5.39,4.22 3.71,-0.07 7,-4.15 4.85,-8.74 -3.08,-6.58 -12.54,-6.22 -17.37,2.75 -9.66,17.96 0.33,65.41 31.79,51.87 0.58,-0.36 1.16,-0.72 1.73,-1.09 -0.22,0.08 -0.45,0.17 -0.7,0.27 -25.32,9.78 -39.28,-24.62 -25.69,-49.28 z"
   id="path16"
   inkscape:connector-curvature="0"
   style="fill:#ffce00" />
<path
   class="st1"
   d="m 112.155,138.345 c -4.83,-8.98 -14.29,-9.33 -17.37,-2.75 -2.15,4.59 1.14,8.67 4.85,8.74 5.11,0.1 5.39,-4.22 5.39,-4.22 13.57,24.63 -0.34,58.97 -25.59,49.32 0.53,0.34 1.06,0.67 1.59,1 32.34,13.05 40.72,-34.25 31.13,-52.09 z"
   id="path18"
   inkscape:connector-curvature="0"
   style="fill:#ffce00" />
<path
   class="st1"
   d="m 97.415,151.245 c -0.43,-0.76 -0.97,-1.44 -1.6,-2.04 -0.64,-0.59 -1.37,-1.08 -2.16,-1.44 -1.58,-0.75 -3.47,-0.89 -5.15,-0.39 -1.68,0.5 -3.19,1.64 -4.06,3.21 -0.46,0.8 -0.68,1.73 -0.68,2.63 -0.01,0.9 0.19,1.79 0.57,2.6 0.38,0.81 0.93,1.53 1.62,2.1 0.18,0.13 0.36,0.27 0.54,0.39 0.19,0.11 0.37,0.23 0.58,0.33 0.42,0.21 0.87,0.34 1.31,0.43 0.88,0.15 1.77,0.11 2.62,-0.13 0.83,-0.25 1.7,-0.63 2.33,-1.37 1.28,-1.48 1.11,-3.86 -0.33,-5.02 -0.7,-0.56 -1.58,-0.82 -2.43,-0.72 -0.42,0.05 -0.84,0.22 -1.17,0.47 -0.34,0.25 -0.58,0.6 -0.74,0.96 0,0.01 0,0.02 0,0.03 -0.05,0.14 -0.09,0.3 -0.09,0.46 0,0.73 0.59,1.32 1.32,1.32 0.73,0 1.32,-0.59 1.32,-1.32 0,-0.58 -0.38,-1.07 -0.89,-1.25 0.09,-0.01 0.18,-0.01 0.28,0 0.65,0.03 1.28,0.35 1.68,0.81 0.39,0.46 0.57,1.05 0.52,1.64 -0.05,0.59 -0.32,1.1 -0.73,1.46 -0.74,0.83 -2.18,1.13 -3.35,0.89 -0.29,-0.07 -0.57,-0.16 -0.82,-0.29 -0.13,-0.07 -0.26,-0.16 -0.39,-0.24 l -0.36,-0.28 c -0.46,-0.4 -0.82,-0.9 -1.07,-1.46 -0.49,-1.11 -0.46,-2.46 0.14,-3.44 0.61,-1.05 1.69,-1.83 2.88,-2.15 2.41,-0.71 5.12,0.69 6.29,2.95 0.62,1.1 0.87,2.4 0.71,3.62 -0.17,1.22 -0.73,2.39 -1.62,3.28 -0.86,0.91 -2.08,1.59 -3.31,1.96 -1.24,0.39 -2.58,0.43 -3.87,0.15 -2.58,-0.55 -4.9,-2.55 -5.81,-5.14 -1.19,-2.5 -1.32,-5.61 -0.28,-8.44 -1.69,2.52 -2.22,5.89 -1.34,9.04 0.58,1.52 1.45,2.95 2.64,4.1 1.18,1.15 2.65,2.02 4.27,2.48 1.62,0.46 3.37,0.48 5.02,0.05 1.64,-0.46 3.15,-1.27 4.39,-2.51 1.24,-1.23 2.04,-2.91 2.27,-4.66 0.19,-1.77 -0.19,-3.57 -1.05,-5.07 z"
   id="path20"
   inkscape:connector-curvature="0"
   style="fill:#ffce00" />
<path
   class="st1"
   d="m 162.755,147.805 c 1.04,2.83 0.9,5.94 -0.28,8.44 -0.91,2.59 -3.23,4.59 -5.81,5.14 -1.29,0.28 -2.63,0.24 -3.87,-0.15 -1.23,-0.38 -2.44,-1.05 -3.31,-1.96 -0.89,-0.89 -1.45,-2.05 -1.62,-3.28 -0.16,-1.22 0.09,-2.51 0.71,-3.62 1.17,-2.26 3.88,-3.65 6.29,-2.95 1.19,0.32 2.27,1.1 2.88,2.15 0.6,0.98 0.63,2.33 0.14,3.44 -0.24,0.56 -0.61,1.06 -1.07,1.46 l -0.36,0.28 c -0.13,0.08 -0.26,0.17 -0.39,0.24 -0.24,0.13 -0.53,0.22 -0.82,0.29 -1.17,0.24 -2.61,-0.06 -3.35,-0.89 -0.42,-0.36 -0.68,-0.87 -0.73,-1.46 -0.06,-0.59 0.12,-1.18 0.52,-1.64 0.4,-0.46 1.03,-0.77 1.68,-0.81 0.09,-0.01 0.18,0 0.28,0 -0.52,0.18 -0.89,0.67 -0.89,1.25 0,0.73 0.59,1.32 1.32,1.32 0.73,0 1.32,-0.59 1.32,-1.32 0,-0.16 -0.03,-0.32 -0.09,-0.47 0,-0.01 0,-0.02 0,-0.02 -0.16,-0.36 -0.4,-0.71 -0.74,-0.96 -0.33,-0.26 -0.75,-0.42 -1.17,-0.47 -0.85,-0.1 -1.73,0.16 -2.43,0.72 -1.45,1.16 -1.61,3.54 -0.33,5.02 0.63,0.73 1.5,1.11 2.33,1.37 0.85,0.24 1.74,0.27 2.62,0.13 0.44,-0.09 0.88,-0.21 1.31,-0.43 0.21,-0.1 0.39,-0.22 0.58,-0.33 0.18,-0.12 0.36,-0.26 0.54,-0.39 0.69,-0.56 1.24,-1.29 1.62,-2.1 0.38,-0.81 0.58,-1.7 0.57,-2.6 0,-0.89 -0.22,-1.83 -0.68,-2.63 -0.86,-1.58 -2.37,-2.71 -4.06,-3.21 -1.68,-0.51 -3.57,-0.37 -5.15,0.39 -0.79,0.37 -1.52,0.86 -2.16,1.44 -0.63,0.6 -1.17,1.28 -1.6,2.04 -0.86,1.51 -1.24,3.3 -1.02,5.06 0.22,1.75 1.03,3.42 2.27,4.66 1.24,1.24 2.75,2.05 4.39,2.51 1.65,0.43 3.4,0.41 5.02,-0.05 1.62,-0.46 3.09,-1.34 4.27,-2.48 1.19,-1.15 2.06,-2.58 2.64,-4.1 0.85,-3.14 0.32,-6.51 -1.37,-9.03 z"
   id="path22"
   inkscape:connector-curvature="0"
   style="fill:#ffce00" />
</svg>