<?xml version="1.0" encoding="UTF-8" standalone="no"?>
<!-- Created with Inkscape (http://www.inkscape.org/) -->

<svg
   xmlns:dc="http://purl.org/dc/elements/1.1/"
   xmlns:cc="http://creativecommons.org/ns#"
   xmlns:rdf="http://www.w3.org/1999/02/22-rdf-syntax-ns#"
   xmlns:svg="http://www.w3.org/2000/svg"
   xmlns="http://www.w3.org/2000/svg"
   xmlns:sodipodi="http://sodipodi.sourceforge.net/DTD/sodipodi-0.dtd"
   xmlns:inkscape="http://www.inkscape.org/namespaces/inkscape"
   width="17"
   height="41"
   version="1.1"
   id="svg1300"
   inkscape:version="0.92.3 (2405546, 2018-03-11)"
   sodipodi:docname="table_tr_bg.svg">
  <defs
     id="defs1294" />
  <sodipodi:namedview
     id="base"
     pagecolor="#ffffff"
     bordercolor="#666666"
     borderopacity="1.0"
     inkscape:pageopacity="0.0"
     inkscape:pageshadow="2"
     inkscape:zoom="7.9195959"
     inkscape:cx="25.487912"
     inkscape:cy="13.010456"
     inkscape:document-units="px"
     inkscape:current-layer="layer1"
     showgrid="false"
     units="px"
     inkscape:window-width="2560"
     inkscape:window-height="1031"
     inkscape:window-x="0"
     inkscape:window-y="0"
     inkscape:window-maximized="1" />
  <metadata
     id="metadata1297">
    <rdf:RDF>
      <cc:Work
         rdf:about="">
        <dc:format>image/svg+xml</dc:format>
        <dc:type
           rdf:resource="http://purl.org/dc/dcmitype/StillImage" />
        <dc:title></dc:title>
      </cc:Work>
    </rdf:RDF>
  </metadata>
  <g
     inkscape:label="Layer 1"
     inkscape:groupmode="layer"
     id="layer1"
     transform="translate(0,-286.15207)">
    <path
       id="path1276"
       d="m 0,297.71848 c 4.0080102,0 6.3248002,0.43362 8.1230402,0.72851 5.2155898,0.85529 10.1209998,5.41795 8.1132798,12.76368 -0.71083,2.6007 -3.00695,5.14479 -6.9785098,5.03906 -5.76606,-0.15361 -6.56328,-7.69817 -2.7207,-8.35352 1.49141,-0.25486 2.78052,0.68594 3.15234,1.36524 -1.13114,1.27343 -1.17563,3.16037 0.10352,3.60156 0.8084098,0.27862 1.5213698,-0.0119 2.4199198,-1.11133 2.49683,-3.05387 0.28624,-8.3797 -4.4062498,-9.26758 C 5.7111202,302.0876 3.7889402,301.65207 0,301.65207 Z m 5.7402302,8.42187 c 0.86282,0.016 1.68551,0.2881 2.35352,0.80469 1.07211,0.8291 0.98549,0.81112 -0.19532,0.37891 -3.29849,-1.20735 -5.40234,0.79593 -5.40234,6.86133 v 4.71289 c 1.20337,-3.47177 4.85328,-3.38758 5.93555,-1.38868 -3.08058,3.08059 -4.10352,6.12421 -4.10352,9.64258 H 0 v -13.94531 c 0.20326,-4.85936 3.1517902,-7.11446 5.7402302,-7.06641 z"
       style="fill:#a12c2c;fill-opacity:1;fill-rule:evenodd;stroke:none;stroke-width:0.26458332px;stroke-linecap:butt;stroke-linejoin:miter;stroke-opacity:1"
       inkscape:connector-curvature="0" />
  </g>
</svg>
