<?xml version="1.0" encoding="UTF-8" standalone="no"?>
<!-- Created with Inkscape (http://www.inkscape.org/) -->

<svg
   xmlns:dc="http://purl.org/dc/elements/1.1/"
   xmlns:cc="http://creativecommons.org/ns#"
   xmlns:rdf="http://www.w3.org/1999/02/22-rdf-syntax-ns#"
   xmlns:svg="http://www.w3.org/2000/svg"
   xmlns="http://www.w3.org/2000/svg"
   xmlns:sodipodi="http://sodipodi.sourceforge.net/DTD/sodipodi-0.dtd"
   xmlns:inkscape="http://www.inkscape.org/namespaces/inkscape"
   width="17"
   height="41"
   version="1.1"
   id="svg1300"
   inkscape:version="0.92.3 (2405546, 2018-03-11)"
   sodipodi:docname="table_tl_bg.svg">
  <defs
     id="defs1294" />
  <sodipodi:namedview
     id="base"
     pagecolor="#ffffff"
     bordercolor="#666666"
     borderopacity="1.0"
     inkscape:pageopacity="0.0"
     inkscape:pageshadow="2"
     inkscape:zoom="7.9195959"
     inkscape:cx="25.487912"
     inkscape:cy="13.010456"
     inkscape:document-units="px"
     inkscape:current-layer="layer1"
     showgrid="false"
     units="px"
     inkscape:window-width="2560"
     inkscape:window-height="1031"
     inkscape:window-x="0"
     inkscape:window-y="0"
     inkscape:window-maximized="1" />
  <metadata
     id="metadata1297">
    <rdf:RDF>
      <cc:Work
         rdf:about="">
        <dc:format>image/svg+xml</dc:format>
        <dc:type
           rdf:resource="http://purl.org/dc/dcmitype/StillImage" />
        <dc:title></dc:title>
      </cc:Work>
    </rdf:RDF>
  </metadata>
  <g
     inkscape:label="Layer 1"
     inkscape:groupmode="layer"
     id="layer1"
     transform="translate(0,-286.15207)">
    <path
       inkscape:connector-curvature="0"
       style="fill:#a12c2c;fill-opacity:1;fill-rule:evenodd;stroke:none;stroke-width:0.26458332px;stroke-linecap:butt;stroke-linejoin:miter;stroke-opacity:1"
       d="m 17,297.71848 c -4.008016,0 -6.324802,0.43362 -8.1230465,0.72851 -5.215584,0.85529 -10.121001,5.41795 -8.11328101,12.76368 0.71083001,2.6007 3.00695501,5.14479 6.97851501,5.03906 5.7660595,-0.15361 6.5632825,-7.69817 2.7207025,-8.35352 -1.4914085,-0.25486 -2.7805225,0.68594 -3.1523425,1.36524 1.13114,1.27343 1.175634,3.16037 -0.103516,3.60156 -0.80841,0.27862 -1.521372,-0.0119 -2.419922,-1.11133 -2.49683,-3.05387 -0.286246,-8.3797 4.40625,-9.26758 C 11.288875,302.0876 13.211054,301.65207 17,301.65207 Z m -5.740234,8.42187 c -0.862815,0.016 -1.6855085,0.2881 -2.3535155,0.80469 -1.072116,0.8291 -0.985492,0.81112 0.195312,0.37891 3.2984915,-1.20735 5.4023435,0.79593 5.4023435,6.86133 v 4.71289 c -1.20337,-3.47177 -4.8532765,-3.38758 -5.9355465,-1.38868 3.0805795,3.08059 4.1035155,6.12421 4.1035155,9.64258 H 17 v -13.94531 c -0.203267,-4.85936 -3.151791,-7.11446 -5.740234,-7.06641 z"
       id="path959" />
  </g>
</svg>
