<?xml version="1.0" encoding="UTF-8" standalone="no"?>
<!-- Created with Inkscape (http://www.inkscape.org/) -->

<svg
   xmlns:dc="http://purl.org/dc/elements/1.1/"
   xmlns:cc="http://creativecommons.org/ns#"
   xmlns:rdf="http://www.w3.org/1999/02/22-rdf-syntax-ns#"
   xmlns:svg="http://www.w3.org/2000/svg"
   xmlns="http://www.w3.org/2000/svg"
   xmlns:xlink="http://www.w3.org/1999/xlink"
   xmlns:sodipodi="http://sodipodi.sourceforge.net/DTD/sodipodi-0.dtd"
   xmlns:inkscape="http://www.inkscape.org/namespaces/inkscape"
   width="110"
   height="20"
   version="1.1"
   id="svg2067"
   inkscape:version="0.92.3 (2405546, 2018-03-11)"
   sodipodi:docname="ts_sel_t_bg.svg">
  <defs
     id="defs2061" />
  <sodipodi:namedview
     id="base"
     pagecolor="#ffffff"
     bordercolor="#666666"
     borderopacity="1.0"
     inkscape:pageopacity="0.0"
     inkscape:pageshadow="2"
     inkscape:zoom="2.8"
     inkscape:cx="55.143846"
     inkscape:cy="-41.413703"
     inkscape:document-units="px"
     inkscape:current-layer="layer1"
     showgrid="false"
     units="px"
     inkscape:window-width="2560"
     inkscape:window-height="1031"
     inkscape:window-x="0"
     inkscape:window-y="0"
     inkscape:window-maximized="1" />
  <metadata
     id="metadata2064">
    <rdf:RDF>
      <cc:Work
         rdf:about="">
        <dc:format>image/svg+xml</dc:format>
        <dc:type
           rdf:resource="http://purl.org/dc/dcmitype/StillImage" />
        <dc:title></dc:title>
      </cc:Work>
    </rdf:RDF>
  </metadata>
  <g
     inkscape:label="Layer 1"
     inkscape:groupmode="layer"
     id="layer1"
     transform="translate(0,-291.70832)">
    <g
       id="g1167"
       transform="translate(-112.13703,-218.28621)">
      <g
         id="g1209"
         transform="translate(-15.25,7.0586725)">
        <path
           style="color:#000000;clip-rule:nonzero;display:inline;overflow:visible;visibility:visible;opacity:0.25;isolation:auto;mix-blend-mode:normal;color-interpolation:sRGB;color-interpolation-filters:linearRGB;solid-color:#000000;solid-opacity:1;fill:#ffce00;fill-opacity:1;fill-rule:evenodd;stroke:none;stroke-width:1.00156736;stroke-linecap:round;stroke-linejoin:round;stroke-miterlimit:4;stroke-dasharray:3.0047186, 3.0047186;stroke-dashoffset:0;stroke-opacity:1;paint-order:normal;color-rendering:auto;image-rendering:auto;shape-rendering:auto;text-rendering:auto;enable-background:accumulate"
           d="m 127.45355,521.49835 c 14.41354,-3.55353 53.29896,1.35703 55.17145,-6.375 2.13215,7.79648 36.27617,2.4375 54.6955,6.375 v 1.4375 H 127.45355 Z"
           id="rect1200"
           inkscape:connector-curvature="0"
           sodipodi:nodetypes="cccccc" />
        <path
           style="color:#000000;clip-rule:nonzero;display:inline;overflow:visible;visibility:visible;opacity:1;isolation:auto;mix-blend-mode:normal;color-interpolation:sRGB;color-interpolation-filters:linearRGB;solid-color:#000000;solid-opacity:1;fill:#ffce00;fill-opacity:1;fill-rule:evenodd;stroke:none;stroke-width:1.00156736;stroke-linecap:round;stroke-linejoin:round;stroke-miterlimit:4;stroke-dasharray:3.00471871, 3.00471871;stroke-dashoffset:0;stroke-opacity:1;paint-order:normal;color-rendering:auto;image-rendering:auto;shape-rendering:auto;text-rendering:auto;enable-background:accumulate"
           d="m 127.60199,522.45148 1.85156,-0.95313 v 1.4375 h -2 z"
           id="rect1202"
           inkscape:connector-curvature="0"
           sodipodi:nodetypes="ccccc" />
        <path
           style="color:#000000;clip-rule:nonzero;display:inline;overflow:visible;visibility:visible;opacity:1;isolation:auto;mix-blend-mode:normal;color-interpolation:sRGB;color-interpolation-filters:linearRGB;solid-color:#000000;solid-opacity:1;fill:#ffce00;fill-opacity:1;fill-rule:evenodd;stroke:none;stroke-width:0.10613993;stroke-linecap:round;stroke-linejoin:round;stroke-miterlimit:4;stroke-dasharray:0.31842154, 0.31842154;stroke-dashoffset:0;stroke-opacity:1;paint-order:normal;color-rendering:auto;image-rendering:auto;shape-rendering:auto;text-rendering:auto;enable-background:accumulate"
           d="m 235.3205,521.49835 1.38128,0.41984 0.61872,1.01766 h -2 z"
           id="use1204"
           inkscape:connector-curvature="0"
           sodipodi:nodetypes="ccccc" />
      </g>
      <path
         style="color:#000000;clip-rule:nonzero;display:inline;overflow:visible;visibility:visible;opacity:1;isolation:auto;mix-blend-mode:normal;color-interpolation:sRGB;color-interpolation-filters:linearRGB;solid-color:#000000;solid-opacity:1;fill:#ffce00;fill-opacity:1;fill-rule:evenodd;stroke:none;stroke-width:1.00157475;stroke-linecap:round;stroke-linejoin:round;stroke-miterlimit:4;stroke-dasharray:3.00472418, 3.00472418;stroke-dashoffset:0;stroke-opacity:1;paint-order:normal;color-rendering:auto;image-rendering:auto;shape-rendering:auto;text-rendering:auto;enable-background:accumulate"
         d="m 167.136,510.64719 a 7.7394855,6.0546017 0 0 0 -7.73849,6.05469 7.7394855,6.0546017 0 0 0 7.73849,6.05469 7.7394855,6.0546017 0 0 0 7.74054,-6.05469 7.7394855,6.0546017 0 0 0 -7.74054,-6.05469 z m -0.31494,2.29883 c -0.90917,0.2993 -1.67711,0.79843 -2.12481,1.42578 -1.69882,2.07104 -0.90425,3.68898 0.79143,4.61524 1.02271,0.55867 3.16804,0.78701 4.26599,-0.79297 1.32203,-1.90238 -0.90078,-3.38834 -2.4602,-2.77734 -1.48988,0.58375 -1.4902,2.18909 -0.40287,2.53125 -1.49502,-0.1947 -1.93774,-1.58761 -0.9121,-2.85938 1.21844,-1.51077 3.65756,-1.55673 4.97971,-0.45703 1.66819,1.38755 1.53675,3.12671 0.11657,4.65039 -0.83275,0.89342 -2.12117,1.46148 -3.48069,1.59375 -1.3595,0.13231 -2.79052,-0.17225 -3.9081,-1.02539 -2.31466,-1.76702 -1.76343,-6.37944 2.12686,-6.76758 z"
         id="path1019"
         inkscape:connector-curvature="0" />
      <g
         id="g1027"
         transform="matrix(1.0470688,0,0,1,-5.3557307,1.5)"
         style="stroke-width:0.97726506">
        <path
           style="fill:#ffce00;fill-opacity:1;fill-rule:evenodd;stroke:none;stroke-width:0.97726506px;stroke-linecap:butt;stroke-linejoin:miter;stroke-opacity:1"
           d="m 163.1272,520.78313 c 0,0.63191 -0.85496,2.04475 -3.83966,2.65508 -13.88763,2.83985 -26.95973,-1.63714 -41.11308,0.41299 -5.75667,0.83386 -6.17965,4.57007 -5.89981,4.64333 0,0 4.3435,-1.36687 7.86396,-1.60174 17.53553,-1.16987 25.79021,1.67784 39.04252,-1.22127 4.19485,-0.91767 5.58516,-3.5119 5.58516,-4.88839 z"
           id="path1004"
           inkscape:connector-curvature="0"
           sodipodi:nodetypes="csscsscc" />
        <use
           x="0"
           y="0"
           xlink:href="#path1004"
           id="use1010"
           transform="matrix(-1,0,0,1,329.47741,-8.9540827e-8)"
           width="100%"
           height="100%"
           style="fill:#ffce00;fill-opacity:1;stroke-width:0.97726506" />
      </g>
    </g>
  </g>
</svg>
